<svg width="62" height="48" viewBox="0 0 62 48" fill="none" xmlns="http://www.w3.org/2000/svg">
<path d="M38.0318 0.487178C36.5581 1.52307 36.4751 3.70161 37.8655 4.84971L56.0661 19.8787C57.4895 21.0541 56.6879 23.381 54.8519 23.3886C49.8339 23.4097 43.0669 23.3703 37.9096 23.0893C31.1232 22.7194 7.62275 21.6313 2.90137 21.0594C1.35942 20.8726 3.45828e-05 22.0918 0 23.6656C-3.38965e-05 25.2108 1.31025 26.4204 2.82816 26.2776C7.52611 25.8352 31.0957 24.9862 37.9096 24.727C43.0728 24.5307 49.843 24.5516 54.8606 24.6094C56.691 24.6306 57.4821 26.952 56.0629 28.1238L37.8655 43.1502C36.4751 44.2984 36.5581 46.4769 38.0318 47.5128C39.2282 48.3537 40.8671 48.0798 41.7335 46.8941L49.2116 36.6621C51.3283 33.7659 53.8163 31.1687 56.6101 28.9387L61.5154 25.0186C62.162 24.5019 62.1626 23.5086 61.5165 22.9911L56.6101 19.0613C53.8163 16.8313 51.3283 14.234 49.2116 11.3379L41.7335 1.10588C40.8671 -0.0797558 39.2282 -0.35368 38.0318 0.487178Z" fill="white"/>
</svg>
