<svg width="477" height="356" viewBox="0 0 477 356" fill="none" xmlns="http://www.w3.org/2000/svg">
<g clip-path="url(#clip0_113_1614)">
<path d="M126.591 102.471V214.174C126.591 214.174 138.081 219.506 145.877 215.057C146.156 213.389 147.095 127.495 147.095 127.495L148.299 203.749C148.299 203.749 159.089 211.185 166.676 203.332C166.955 201.942 165.214 94.0889 165.214 94.0889C165.214 94.0889 158.055 107.389 126.591 102.471Z" fill="#022445"/>
<path d="M130.211 105.785C134.423 107.204 138.933 107.77 141.923 107.909C143.584 107.986 145.994 107.996 147.825 107.82C161.684 106.492 165.77 103.002 165.138 94.3132C164.472 85.1486 166.468 64.6945 166.468 64.6945C173.904 31.4389 151.747 36.963 151.747 36.963C151.688 36.819 150.598 37.5073 149.293 38.2759C145.028 40.7893 142.505 38.522 139.805 38.8586C136.279 39.2973 125.29 45.3523 121.3 50.4964C104.007 72.7975 127.171 71.7359 127.013 74.8119C126.854 77.9516 127.194 82.3606 127.278 86.3828C127.293 87.148 127.452 89.134 126.909 94.4288C126.909 94.4288 126.235 100.127 126.895 102.852C127.233 104.223 128.876 105.335 130.211 105.785Z" fill="#022445"/>
<path d="M133.278 121.983H132.973V210.353H133.278V121.983Z" fill="white"/>
<path d="M153.038 123.979L152.732 123.985L154.346 202.551L154.651 202.544L153.038 123.979Z" fill="white"/>
<path d="M164.917 99.5812C163.651 103.62 160.052 105.912 152.9 107.19C152.343 105.835 151.411 101.43 151.411 101.43C151.411 101.43 150.674 105.877 150.961 107.498C149.846 107.657 148.655 107.796 147.385 107.919C145.48 108.101 142.973 108.093 141.245 108.011C138.134 107.865 133.441 107.277 129.062 105.802C128.061 105.465 126.893 104.77 126.19 103.876C126.19 105.546 126.19 108.754 126.19 108.754C126.19 108.754 160.349 116.958 164.917 99.5812Z" fill="#022445"/>
<path d="M134.576 61.4678L124.122 79.9242C123.185 82.1865 121.878 83.6986 122.995 85.8788L134.576 108.486L126.51 114.65L112.018 92.9351C108.633 87.8647 107.556 81.6021 109.051 75.6961C111.216 67.1427 117.876 53.3833 122.264 49.542C129.434 43.2626 141.119 51.5263 134.576 61.4678Z" fill="#022445"/>
<path d="M170.321 72.5999L171.064 63.2227C170.917 51.5397 167.829 44.783 164.793 40.9685C167.086 45.0242 168.245 52.2128 166.469 64.6946C166.469 64.6946 164.473 85.1487 165.139 94.3132C165.286 96.3394 165.175 98.0826 164.746 99.5812C171.036 98.1596 166.735 91.7814 166.735 91.7797C168.372 84.4621 170.377 73.8759 170.321 72.5999Z" fill="#022445"/>
<path d="M160.592 54.6258C159.565 44.8048 150.755 40.0225 150.577 40.0225L148.544 38.6795C144.787 40.498 142.421 38.6058 139.929 38.847L139.635 38.9139C139.635 38.9575 139.63 38.9993 139.635 39.0412C139.806 40.6219 139.806 48.5641 143.655 58.9829C147.228 68.6532 144.816 98.4661 141.181 108.009C141.406 108.022 141.587 108.024 141.797 108.034C143.457 108.111 146.003 108.051 147.835 107.875C155.059 107.184 159.616 105.847 162.246 103.55C161.181 94.8475 161.498 63.283 160.592 54.6258Z" fill="white"/>
<path d="M147.845 43.7498L150.512 43.4299L152.026 46.1912L151.305 51.0322C151.305 51.0322 157.308 81.5517 156.904 84.0267L153.061 94.7854L149.358 84.591C149.358 84.591 151.233 54.2824 149.932 51.6032C148.63 48.924 147.669 47.2093 147.669 47.2093L147.845 43.7498Z" fill="#BC2C37"/>
<path d="M156.425 23.5855C156.425 23.5855 157.461 41.4993 151.891 39.9722C151.891 39.9722 150.799 40.6269 151.344 42.4806C151.891 44.3343 142.5 44.7814 140.208 39.5468C140.208 39.5468 140.095 34.1934 140.204 32.8857C140.313 31.5779 137.583 34.0846 137.147 27.9794C137.147 27.9777 142.145 11.4185 156.425 23.5855Z" fill="#F2B5A7"/>
<path d="M142.936 30.1596C143.245 29.8515 141.626 23.5084 144.357 23.3996C147.087 23.2907 157.354 27.6528 158.118 20.2381C158.883 12.8234 153.858 13.1499 153.204 14.0224C152.548 14.8948 151.565 9.98847 146.978 11.8421C142.391 13.6958 142.933 14.59 142.933 14.59C142.933 14.59 138.408 12.8067 138.042 18.0512C138.042 18.0512 134.253 20.3168 136.274 23.835C137.806 26.5008 137.148 27.9777 137.148 27.9777C137.148 27.9777 138.398 26.2094 139.602 27.6227C139.805 27.8621 139.957 28.1418 140.053 28.4398C140.459 29.7292 141.91 31.1844 142.936 30.1596Z" fill="#022445"/>
<path d="M140.207 32.8857C140.281 31.9932 139.034 32.8756 138.097 31.5896C138.308 31.8994 139.004 32.9995 138.956 34.2219C138.927 34.9369 139.439 35.1128 139.933 35.1178C140.044 34.3375 140.158 33.4701 140.207 32.8857Z" fill="#022445"/>
<path d="M127.425 113.95L133.575 109.251L134.503 110.616L128.473 115.117L127.425 113.95Z" fill="white"/>
<path d="M128.473 115.117L129.055 116.591L136.042 111.484L134.502 110.616L128.473 115.117Z" fill="#F2B5A7"/>
<path d="M165.301 99.4356C165.301 99.4356 166.195 99.176 166.654 98.826C166.654 98.826 166.411 100.258 165.326 101.04L165.301 99.4356Z" fill="#F2B5A7"/>
<path d="M135.879 58.9326L127.017 74.8136V81.5552C127.017 81.5552 137.385 68.9763 135.879 58.9326Z" fill="#022445"/>
<path d="M166.469 64.6945C166.469 64.6945 165.352 76.1414 165.068 85.7447C165.204 87.292 165.303 88.2146 165.303 88.2146C165.34 88.1225 165.377 88.0304 165.412 87.935C167.802 81.5668 167.769 66.8228 167.547 58.7802C167.297 60.6037 166.943 62.5696 166.469 64.6945Z" fill="#022445"/>
<path d="M143.966 305.517L64.1454 259.497C59.3938 256.757 59.4123 249.903 64.1789 247.189L264.551 133.085C270.661 129.605 278.163 129.629 284.253 133.145L362.747 178.482C367.48 181.217 367.476 188.039 362.742 190.768L163.747 305.515C157.627 309.045 150.086 309.045 143.966 305.517Z" fill="#90D1EF"/>
<path d="M144.047 236.604L64.2263 190.584C59.4747 187.844 59.4932 180.991 64.2598 178.276L264.632 64.1721C270.742 60.6925 278.244 60.7159 284.334 64.2324L362.828 109.57C367.561 112.304 367.557 119.126 362.823 121.855L163.828 236.604C157.708 240.133 150.167 240.133 144.047 236.604Z" fill="#0077B6"/>
<path d="M366.371 115.807C366.339 118.165 365.159 120.507 362.822 121.855L163.827 236.604C157.707 240.133 150.166 240.134 144.046 236.604L64.2259 190.584C61.8241 189.199 60.6434 186.764 60.6752 184.343L60.6719 184.345V194.943C60.6719 197.846 62.2216 200.53 64.7374 201.984L144.045 247.829C150.165 251.357 157.705 251.357 163.826 247.829L361.075 134.106C364.353 132.216 366.373 128.724 366.371 124.943V115.807Z" fill="#022445"/>
<path d="M351.537 111.385L337.852 103.464L331.665 107.018C329.096 108.5 325.929 108.5 323.36 107.018L288.353 86.9403C286.357 85.7899 286.686 84.3298 288.688 83.1911L295.825 79.1388L283.692 72.1159C278.578 69.1621 272.278 69.1437 267.148 72.0657L76.2756 180.448C72.272 182.727 71.6163 185.647 75.6063 187.948L145.618 228.103C150.757 231.067 157.09 231.065 162.229 228.103L352.087 119.064C356.065 116.77 355.512 113.68 351.537 111.385Z" fill="#90D1EF"/>
<path d="M303.665 159.575L315.823 152.472C316.37 152.154 317.056 152.548 317.052 153.179L317.042 155.925C317.041 156.613 316.673 157.248 316.08 157.594L303.942 164.686C303.398 165.004 302.714 164.614 302.712 163.984L302.702 161.257C302.7 160.567 303.066 159.925 303.665 159.575Z" fill="#0077B6"/>
<path d="M315.83 152.469L303.672 159.572C303.073 159.922 302.706 160.563 302.709 161.255L302.719 163.983C302.721 164.276 302.87 164.517 303.085 164.658C302.699 164.46 302.365 164.073 302.364 163.708L302.354 160.98C302.35 160.287 302.717 159.646 303.316 159.297L315.474 152.194C315.954 151.915 316.778 152.281 316.97 152.802C316.768 152.409 316.258 152.219 315.83 152.469Z" fill="#0077B6"/>
<path d="M321.681 149.051L333.84 141.948C334.386 141.63 335.072 142.023 335.069 142.655L335.059 145.401C335.057 146.089 334.69 146.724 334.096 147.07L321.958 154.162C321.415 154.48 320.731 154.09 320.729 153.46L320.719 150.732C320.715 150.042 321.083 149.401 321.681 149.051Z" fill="#0077B6"/>
<path d="M333.845 141.945L321.686 149.048C321.088 149.398 320.72 150.039 320.724 150.731L320.734 153.458C320.735 153.752 320.885 153.993 321.099 154.133C320.714 153.936 320.38 153.549 320.378 153.184L320.368 150.456C320.365 149.765 320.732 149.122 321.331 148.773L333.489 141.67C333.969 141.39 334.792 141.757 334.985 142.278C334.784 141.883 334.272 141.695 333.845 141.945Z" fill="#0077B6"/>
<path d="M223.753 140.352L223.605 140.434C223.394 140.553 223.135 140.55 222.927 140.427L192.852 122.679C192.402 122.413 192.409 121.762 192.865 121.505L193.013 121.423C193.224 121.305 193.482 121.308 193.69 121.43L223.766 139.178C224.215 139.443 224.209 140.096 223.753 140.352Z" fill="white"/>
<path d="M218.65 143.247L218.502 143.329C218.291 143.448 218.033 143.445 217.825 143.323L187.749 125.575C187.299 125.308 187.306 124.657 187.762 124.401L187.91 124.319C188.121 124.2 188.38 124.203 188.588 124.325L218.663 142.073C219.113 142.338 219.106 142.991 218.65 143.247Z" fill="white"/>
<path d="M213.438 146.161L213.29 146.243C213.079 146.362 212.821 146.359 212.613 146.236L182.537 128.488C182.087 128.222 182.094 127.571 182.55 127.314L182.698 127.232C182.909 127.113 183.167 127.117 183.375 127.239L213.451 144.987C213.901 145.253 213.894 145.906 213.438 146.161Z" fill="white"/>
<path d="M207.962 149.09L207.814 149.172C207.603 149.291 207.344 149.287 207.136 149.165L177.061 131.417C176.611 131.151 176.618 130.499 177.074 130.243L177.222 130.161C177.433 130.042 177.691 130.045 177.899 130.168L207.975 147.916C208.425 148.18 208.418 148.833 207.962 149.09Z" fill="white"/>
<path d="M202.992 152.154L202.844 152.236C202.633 152.355 202.375 152.352 202.167 152.229L172.091 134.481C171.641 134.215 171.648 133.564 172.104 133.307L172.252 133.225C172.463 133.106 172.721 133.11 172.929 133.232L203.005 150.98C203.455 151.245 203.448 151.898 202.992 152.154Z" fill="white"/>
<path d="M197.779 155.068L197.631 155.15C197.42 155.269 197.162 155.265 196.954 155.143L166.878 137.395C166.429 137.129 166.435 136.477 166.891 136.221L167.039 136.139C167.25 136.02 167.509 136.024 167.717 136.146L197.792 153.894C198.242 154.16 198.235 154.813 197.779 155.068Z" fill="white"/>
<path d="M192.302 157.996L192.155 158.078C191.943 158.197 191.685 158.194 191.477 158.072L161.401 140.324C160.952 140.057 160.959 139.406 161.415 139.15L161.562 139.068C161.774 138.949 162.032 138.952 162.24 139.074L192.316 156.823C192.765 157.087 192.759 157.74 192.302 157.996Z" fill="white"/>
<path d="M209.273 196.046L209.15 196.115C208.974 196.214 208.759 196.21 208.587 196.108L183.551 181.336C183.177 181.115 183.182 180.57 183.561 180.358L183.683 180.289C183.859 180.19 184.074 180.194 184.247 180.296L209.283 195.068C209.657 195.289 209.652 195.834 209.273 196.046Z" fill="white"/>
<path d="M203.664 199.757L203.542 199.826C203.365 199.924 203.151 199.921 202.978 199.819L177.942 185.046C177.568 184.825 177.573 184.281 177.952 184.068L178.075 184C178.251 183.901 178.465 183.904 178.638 184.006L203.674 198.779C204.05 199 204.043 199.544 203.664 199.757Z" fill="white"/>
<path d="M197.944 203.275L197.822 203.344C197.646 203.442 197.431 203.439 197.258 203.337L172.223 188.564C171.849 188.343 171.854 187.799 172.233 187.587L172.355 187.518C172.531 187.419 172.746 187.422 172.919 187.525L197.955 202.297C198.33 202.52 198.325 203.062 197.944 203.275Z" fill="white"/>
<path d="M191.588 207.162L191.466 207.23C191.29 207.329 191.075 207.326 190.902 207.224L165.866 192.451C165.492 192.23 165.497 191.686 165.876 191.473L165.999 191.404C166.175 191.306 166.39 191.309 166.562 191.411L191.598 206.184C191.972 206.406 191.967 206.949 191.588 207.162Z" fill="white"/>
<path d="M186.454 161.747L186.306 161.829C186.095 161.948 185.836 161.945 185.629 161.823L155.553 144.075C155.103 143.808 155.11 143.157 155.566 142.901L155.714 142.819C155.925 142.7 156.183 142.703 156.391 142.825L186.467 160.573C186.917 160.838 186.91 161.491 186.454 161.747Z" fill="white"/>
<path d="M259.075 81.3945L224.547 101.572C223.152 102.388 223.165 104.406 224.571 105.203L259.355 124.938C260.428 125.548 261.745 125.539 262.811 124.917L297.313 104.752C298.709 103.937 298.695 101.921 297.292 101.122L262.535 81.371C261.458 80.7632 260.14 80.7699 259.075 81.3945Z" fill="#0077B6"/>
<path d="M259.201 82.8696L227.013 101.681C225.712 102.441 225.725 104.322 227.035 105.065L259.461 123.465C260.462 124.032 261.69 124.024 262.683 123.445L294.847 104.647C296.146 103.886 296.135 102.006 294.826 101.262L262.424 82.8495C261.423 82.2802 260.194 82.2886 259.201 82.8696Z" fill="white"/>
<path d="M267.324 102.779C270.423 102.618 272.845 100.741 272.733 98.5866C272.621 96.4318 270.018 94.8151 266.919 94.9756C263.82 95.1361 261.398 97.013 261.51 99.1677C261.622 101.322 264.225 102.939 267.324 102.779Z" fill="#0077B6"/>
<path d="M214.863 125.32C220.227 125.042 224.418 121.794 224.224 118.066C224.031 114.337 219.526 111.54 214.162 111.818C208.798 112.095 204.607 115.343 204.801 119.072C204.994 122.8 209.5 125.598 214.863 125.32Z" fill="#E95561"/>
<path d="M236.801 138.313C242.165 138.036 246.356 134.788 246.162 131.059C245.969 127.331 241.463 124.533 236.1 124.811C230.736 125.089 226.545 128.336 226.739 132.065C226.932 135.794 231.438 138.591 236.801 138.313Z" fill="#E95561"/>
<path d="M241.853 103.65C244.08 101.344 247.75 99.737 251.97 99.5176C259.062 99.1492 265.02 102.85 265.277 107.781C265.414 110.437 263.868 112.909 261.305 114.682L241.853 103.65Z" fill="#0077B6"/>
<path d="M139.09 151.278L184.713 176.118L140.333 203.109L94.7441 178.286L139.09 151.278Z" fill="#00B4D8"/>
<path d="M278.352 156.077L276.308 157.224L247.729 140.518L249.771 139.372L278.352 156.077Z" fill="#E95561"/>
<path d="M334.659 124.994L334.552 125.054C334.399 125.139 334.213 125.138 334.062 125.049L312.31 112.214C311.985 112.021 311.99 111.549 312.32 111.365L312.426 111.304C312.579 111.219 312.765 111.221 312.916 111.309L334.668 124.145C334.993 124.335 334.988 124.808 334.659 124.994Z" fill="white"/>
<path d="M316.831 123.245L316.724 123.306C316.571 123.391 316.385 123.389 316.234 123.301L294.482 110.465C294.157 110.273 294.162 109.801 294.493 109.616L294.598 109.556C294.751 109.471 294.937 109.472 295.088 109.561L316.84 122.396C317.167 122.589 317.162 123.061 316.831 123.245Z" fill="white"/>
<path d="M329.581 127.946L329.476 128.006C329.323 128.091 329.137 128.09 328.986 128.001L307.234 115.166C306.909 114.973 306.914 114.501 307.244 114.317L307.35 114.257C307.502 114.171 307.689 114.173 307.84 114.262L329.591 127.097C329.917 127.289 329.912 127.761 329.581 127.946Z" fill="white"/>
<path d="M311.174 111.098L311.067 111.159C310.914 111.244 310.728 111.242 310.577 111.154L302.166 106.159C301.84 105.966 301.845 105.494 302.176 105.31L302.283 105.249C302.436 105.164 302.622 105.166 302.773 105.254L311.184 110.249C311.508 110.442 311.503 110.914 311.174 111.098Z" fill="white"/>
<path d="M321.336 120.132L321.229 120.193C321.076 120.278 320.89 120.276 320.739 120.188L312.328 115.193C312.003 115 312.008 114.528 312.338 114.344L312.444 114.283C312.596 114.198 312.782 114.2 312.933 114.288L321.345 119.283C321.672 119.476 321.667 119.948 321.336 120.132Z" fill="white"/>
<path d="M306.215 113.88L306.11 113.94C305.957 114.025 305.771 114.024 305.62 113.935L297.209 108.94C296.883 108.747 296.888 108.275 297.219 108.091L297.326 108.031C297.479 107.945 297.665 107.947 297.816 108.036L306.227 113.031C306.551 113.222 306.546 113.694 306.215 113.88Z" fill="white"/>
<path d="M327.102 129.337L326.996 129.397C326.844 129.483 326.658 129.481 326.507 129.392L318.095 124.397C317.77 124.205 317.775 123.733 318.106 123.548L318.213 123.488C318.366 123.403 318.552 123.404 318.703 123.493L327.114 128.488C327.438 128.679 327.433 129.151 327.102 129.337Z" fill="white"/>
<path d="M311.042 114.002L310.935 114.062C310.782 114.148 310.596 114.146 310.445 114.057L299.565 107.617C299.24 107.425 299.245 106.952 299.575 106.768L299.682 106.708C299.835 106.622 300.021 106.624 300.172 106.713L311.052 113.153C311.378 113.344 311.373 113.816 311.042 114.002Z" fill="white"/>
<path d="M332.183 126.487L332.076 126.547C331.923 126.633 331.737 126.631 331.458 126.507L323.047 121.512C322.849 121.356 322.854 120.884 323.183 120.698L323.29 120.638C323.443 120.553 323.629 120.554 323.78 120.643L332.191 125.638C332.518 125.831 332.513 126.303 332.183 126.487Z" fill="white"/>
<path d="M303.536 130.116L303.43 130.176C303.277 130.261 303.091 130.26 302.94 130.171L294.529 125.176C294.204 124.983 294.209 124.511 294.539 124.327L294.646 124.267C294.799 124.181 294.985 124.183 295.136 124.272L303.547 129.267C303.871 129.459 303.864 129.932 303.536 130.116Z" fill="white"/>
<path d="M293.24 123.985L293.132 124.046C292.98 124.131 292.793 124.129 292.643 124.041L281.762 117.601C281.437 117.408 281.442 116.936 281.773 116.752L281.878 116.691C282.031 116.606 282.217 116.608 282.368 116.696L293.248 123.136C293.575 123.329 293.57 123.8 293.24 123.985Z" fill="white"/>
<path d="M314.381 136.471L314.273 136.531C314.121 136.616 313.934 136.615 313.656 136.491L305.245 131.496C305.047 131.34 305.052 130.868 305.381 130.682L305.486 130.622C305.639 130.536 305.825 130.538 305.976 130.627L314.387 135.622C314.716 135.814 314.711 136.286 314.381 136.471Z" fill="white"/>
<path d="M324.538 130.668L324.433 130.729C324.28 130.814 324.094 130.812 323.943 130.724L302.191 117.889C301.866 117.696 301.871 117.224 302.201 117.04L302.307 116.979C302.459 116.894 302.646 116.896 302.797 116.984L324.548 129.819C324.872 130.012 324.867 130.484 324.538 130.668Z" fill="white"/>
<path d="M306.712 128.922L306.607 128.982C306.454 129.068 306.268 129.066 306.117 128.977L284.365 116.142C284.04 115.95 284.045 115.477 284.375 115.293L284.481 115.233C284.633 115.147 284.82 115.149 284.97 115.238L306.722 128.073C307.048 128.266 307.043 128.736 306.712 128.922Z" fill="white"/>
<path d="M319.462 133.622L319.356 133.682C319.204 133.768 319.018 133.766 318.867 133.677L297.115 120.842C296.79 120.65 296.795 120.178 297.125 119.993L297.231 119.933C297.383 119.848 297.569 119.849 297.72 119.938L319.472 132.773C319.798 132.966 319.793 133.436 319.462 133.622Z" fill="white"/>
<path d="M301.054 116.775L300.949 116.835C300.796 116.921 300.61 116.919 300.459 116.83L292.048 111.835C291.722 111.643 291.727 111.17 292.058 110.986L292.163 110.926C292.316 110.841 292.502 110.842 292.653 110.931L301.064 115.926C301.388 116.117 301.383 116.589 301.054 116.775Z" fill="white"/>
<path d="M311.216 125.809L311.109 125.869C310.956 125.955 310.77 125.953 310.619 125.864L302.208 120.869C301.882 120.677 301.887 120.204 302.218 120.02L302.325 119.96C302.478 119.875 302.664 119.876 302.815 119.965L311.226 124.96C311.552 125.151 311.545 125.623 311.216 125.809Z" fill="white"/>
<path d="M296.094 119.555L295.989 119.615C295.836 119.7 295.65 119.699 295.499 119.61L287.088 114.615C286.762 114.422 286.767 113.95 287.098 113.766L287.205 113.706C287.358 113.62 287.544 113.622 287.695 113.711L296.106 118.706C296.43 118.898 296.425 119.37 296.094 119.555Z" fill="white"/>
<path d="M316.982 135.012L316.876 135.072C316.724 135.158 316.538 135.156 316.387 135.067L307.975 130.072C307.65 129.88 307.655 129.408 307.985 129.223L308.093 129.163C308.245 129.078 308.432 129.079 308.583 129.168L316.994 134.163C317.317 134.356 317.312 134.828 316.982 135.012Z" fill="white"/>
<path d="M300.921 119.677L300.814 119.737C300.661 119.823 300.475 119.821 300.324 119.732L289.444 113.292C289.119 113.1 289.124 112.627 289.454 112.443L289.561 112.383C289.714 112.297 289.9 112.299 290.051 112.388L300.931 118.828C301.257 119.021 301.251 119.493 300.921 119.677Z" fill="white"/>
<path d="M322.063 132.164L321.955 132.224C321.803 132.309 321.617 132.308 321.338 132.184L312.927 127.189C312.729 127.033 312.734 126.561 313.063 126.375L313.168 126.315C313.321 126.229 313.507 126.231 313.658 126.32L322.069 131.315C322.398 131.506 322.393 131.978 322.063 132.164Z" fill="white"/>
<path d="M311.836 138.363L311.729 138.423C311.576 138.508 311.39 138.507 311.239 138.418L289.487 125.583C289.162 125.39 289.167 124.918 289.497 124.734L289.603 124.674C289.755 124.588 289.941 124.59 290.092 124.679L311.844 137.514C312.171 137.705 312.166 138.177 311.836 138.363Z" fill="white"/>
<path d="M294.01 136.616L293.904 136.677C293.752 136.762 293.565 136.76 293.415 136.671L271.663 123.836C271.337 123.644 271.342 123.172 271.673 122.987L271.778 122.927C271.931 122.842 272.117 122.843 272.268 122.932L294.02 135.767C294.345 135.958 294.34 136.43 294.01 136.616Z" fill="white"/>
<path d="M306.761 141.315L306.655 141.375C306.503 141.461 306.317 141.459 306.166 141.37L284.414 128.535C284.089 128.342 284.094 127.87 284.424 127.686L284.53 127.626C284.682 127.54 284.868 127.542 285.019 127.631L306.771 140.466C307.097 140.658 307.092 141.131 306.761 141.315Z" fill="white"/>
<path d="M288.354 124.468L288.246 124.528C288.094 124.613 287.908 124.612 287.757 124.523L279.345 119.528C279.02 119.335 279.025 118.863 279.356 118.679L279.461 118.619C279.614 118.533 279.8 118.535 279.951 118.624L288.362 123.619C288.688 123.811 288.682 124.284 288.354 124.468Z" fill="white"/>
<path d="M298.516 133.502L298.41 133.562C298.258 133.647 298.071 133.646 297.921 133.557L289.509 128.562C289.184 128.369 289.189 127.897 289.519 127.713L289.625 127.653C289.778 127.567 289.964 127.569 290.115 127.658L298.526 132.653C298.85 132.845 298.845 133.318 298.516 133.502Z" fill="white"/>
<path d="M283.394 127.249L283.288 127.309C283.136 127.395 282.95 127.393 282.799 127.304L274.387 122.309C274.062 122.117 274.067 121.644 274.398 121.46L274.503 121.4C274.656 121.315 274.842 121.316 274.993 121.405L283.404 126.4C283.73 126.593 283.725 127.063 283.394 127.249Z" fill="white"/>
<path d="M304.283 142.706L304.177 142.767C304.024 142.852 303.838 142.85 303.687 142.762L295.276 137.767C294.951 137.574 294.956 137.102 295.286 136.918L295.392 136.857C295.544 136.772 295.731 136.774 295.882 136.862L304.293 141.857C304.618 142.05 304.613 142.521 304.283 142.706Z" fill="white"/>
<path d="M288.22 127.371L288.115 127.432C287.962 127.517 287.776 127.515 287.625 127.427L276.745 120.986C276.42 120.794 276.425 120.322 276.755 120.137L276.862 120.077C277.015 119.992 277.201 119.993 277.352 120.082L288.232 126.522C288.556 126.713 288.551 127.185 288.22 127.371Z" fill="white"/>
<path d="M309.363 139.856L309.255 139.917C309.103 140.002 308.916 140 308.638 139.876L300.227 134.881C300.029 134.726 300.034 134.253 300.363 134.068L300.47 134.007C300.623 133.922 300.809 133.924 300.96 134.012L309.371 139.007C309.698 139.2 309.693 139.672 309.363 139.856Z" fill="white"/>
<path d="M301.717 144.038L301.609 144.098C301.457 144.183 301.271 144.182 301.12 144.093L279.368 131.258C279.042 131.065 279.047 130.593 279.378 130.409L279.484 130.349C279.636 130.263 279.822 130.265 279.973 130.354L301.725 143.189C302.052 143.381 302.047 143.853 301.717 144.038Z" fill="white"/>
<path d="M296.642 146.991L296.536 147.052C296.384 147.137 296.198 147.135 296.047 147.047L274.295 134.212C273.969 134.019 273.974 133.547 274.305 133.363L274.411 133.302C274.563 133.217 274.749 133.219 274.9 133.307L296.652 146.142C296.977 146.335 296.972 146.807 296.642 146.991Z" fill="white"/>
<path d="M278.234 130.144L278.128 130.205C277.975 130.29 277.789 130.288 277.638 130.2L269.227 125.204C268.902 125.012 268.907 124.54 269.237 124.356L269.343 124.295C269.495 124.21 269.682 124.212 269.833 124.3L278.244 129.295C278.567 129.486 278.562 129.958 278.234 130.144Z" fill="white"/>
<path d="M288.396 139.178L288.29 139.239C288.138 139.324 287.951 139.322 287.801 139.234L279.389 134.238C279.064 134.046 279.069 133.574 279.399 133.39L279.505 133.329C279.658 133.244 279.844 133.246 279.995 133.334L288.406 138.329C288.73 138.52 288.725 138.992 288.396 139.178Z" fill="white"/>
<path d="M273.274 132.924L273.168 132.984C273.015 133.07 272.829 133.068 272.678 132.979L264.267 127.984C263.942 127.792 263.947 127.319 264.277 127.135L264.383 127.075C264.535 126.99 264.722 126.991 264.873 127.08L273.284 132.075C273.609 132.268 273.604 132.74 273.274 132.924Z" fill="white"/>
<path d="M278.101 133.046L277.996 133.107C277.843 133.192 277.657 133.19 277.506 133.101L266.626 126.661C266.3 126.469 266.305 125.997 266.636 125.812L266.742 125.752C266.894 125.667 267.08 125.668 267.231 125.757L278.111 132.197C278.437 132.39 278.432 132.862 278.101 133.046Z" fill="white"/>
<path d="M299.242 145.533L299.134 145.593C298.982 145.679 298.796 145.677 298.517 145.553L290.106 140.558C289.908 140.402 289.913 139.93 290.242 139.744L290.347 139.684C290.5 139.599 290.686 139.6 290.837 139.689L299.248 144.684C299.577 144.875 299.572 145.347 299.242 145.533Z" fill="white"/>
<path d="M172.693 218.255L172.571 218.324C172.395 218.423 172.18 218.419 172.007 218.317L146.972 203.545C146.598 203.324 146.603 202.779 146.982 202.567L147.104 202.498C147.28 202.399 147.495 202.403 147.668 202.505L172.703 217.279C173.077 217.5 173.072 218.043 172.693 218.255Z" fill="white"/>
<path d="M179.103 214.345L178.98 214.414C178.804 214.513 178.589 214.509 178.417 214.407L153.381 199.633C153.007 199.412 153.012 198.868 153.391 198.655L153.513 198.586C153.69 198.488 153.904 198.491 154.077 198.593L179.113 213.366C179.488 213.59 179.483 214.132 179.103 214.345Z" fill="white"/>
<path d="M185.351 210.837L185.228 210.906C185.052 211.005 184.837 211.001 184.665 210.899L159.629 196.127C159.255 195.906 159.26 195.361 159.639 195.149L159.761 195.08C159.937 194.981 160.152 194.985 160.325 195.087L185.361 209.859C185.736 210.08 185.73 210.624 185.351 210.837Z" fill="white"/>
<path d="M60.0558 156.74L50.9402 172.086C50.3045 173.154 50.6567 174.534 51.7268 175.168L74.9042 188.898C75.976 189.534 77.363 189.181 77.997 188.107L87.1043 172.709C87.7366 171.639 87.3827 170.26 86.3126 169.627L63.1419 155.952C62.0718 155.319 60.6898 155.672 60.0558 156.74Z" fill="#022445"/>
<path d="M60.8645 158.579L52.9178 171.957C52.3643 172.888 52.6712 174.092 53.6038 174.644L74.3711 186.942C75.3053 187.496 76.5145 187.188 77.068 186.254L85.008 172.829C85.5598 171.896 85.2495 170.694 84.3169 170.143L63.5564 157.891C62.6238 157.34 61.4179 157.648 60.8645 158.579Z" fill="white"/>
<path d="M50.2386 174.983L51.785 172.734C53.9083 171.732 55.079 169.699 55.8287 168.638C56.0166 168.372 55.926 168 55.6342 167.852C54.3511 167.208 52.8198 169.036 52.8198 169.036L55.4363 164.473C55.4363 164.473 47.8703 160.389 47.5785 170.363L47.119 171.054C47.5903 171.65 48.0247 172.23 48.4289 172.794C49.0612 173.497 49.665 174.234 50.2386 174.983Z" fill="#F2B5A7"/>
<path d="M36.8196 341.149C54.775 341.149 69.3307 333.651 69.3307 324.402C69.3307 315.153 54.775 307.655 36.8196 307.655C18.8641 307.655 4.30841 315.153 4.30841 324.402C4.30841 333.651 18.8641 341.149 36.8196 341.149Z" fill="#0077B6"/>
<path d="M51.3465 200.621C29.9838 175.292 40.8522 171.33 40.8522 171.33C49.9896 162.646 62.0572 187.674 62.0572 187.674L66.7333 195.542L79.7401 184.289L84.401 188.596C84.401 188.596 69.5527 213.093 62.8639 209.317C56.1148 205.509 50.32 199.532 51.3465 200.621Z" fill="#0077B6"/>
<path d="M52.5119 223.972V328.086C52.5119 328.086 41.8029 333.054 34.5355 328.91C34.2756 327.356 33.4001 247.298 33.4001 247.298L32.2763 318.371C32.2763 318.371 22.2197 325.301 15.1469 317.982C14.887 316.686 16.5088 216.16 16.5088 216.16C16.5088 216.16 23.1858 228.555 52.5119 223.972Z" fill="#022445"/>
<path d="M49.8401 227.612C45.7577 228.987 41.3836 229.536 38.4837 229.672C36.8735 229.747 34.5372 229.756 32.761 229.586C19.3248 228.299 15.3632 224.915 15.9754 216.492C16.6212 207.605 14.6856 187.774 14.6856 187.774C9.64897 152.367 28.9571 160.887 28.9571 160.887C29.0141 160.748 30.0926 161.375 31.3354 162.159C33.5661 163.566 36.0802 164.46 38.6983 164.785C42.1165 165.21 47.0978 166.913 51.2741 171.647C69.5541 192.361 52.688 197.126 52.8389 200.108C52.9932 203.153 52.7584 204.901 52.6779 208.801C52.6628 209.543 52.5085 211.468 53.0368 216.602C53.0368 216.602 53.691 222.127 53.0486 224.769C52.7282 226.098 51.1349 227.175 49.8401 227.612Z" fill="#0077B6"/>
<path d="M46.564 242.157H46.2789V324.523H46.564V242.157Z" fill="white"/>
<path d="M27.858 243.999L26.3541 317.227L26.6392 317.233L28.1431 244.005L27.858 243.999Z" fill="white"/>
<path d="M46.7958 142.296C47.1949 142.444 49.5816 163.44 39.7112 161.081C39.7112 161.081 39.7347 163.554 40.5716 165.123C40.5716 165.123 33.5676 167.638 29.3443 164.169C28.598 163.556 28.3128 162.544 28.6215 161.63C28.9166 160.751 29.3494 159.488 29.8743 158.021C31.2647 154.138 27.8231 135.3 46.7958 142.296Z" fill="#F2B5A7"/>
<path d="M83.7146 187.963L80.2478 184.889L81.8009 180.888C82.034 180.289 82.5674 179.857 83.2047 179.753L86.0509 179.284L90.9031 174.157C90.9031 174.157 92.0503 174.262 91.5237 174.988C90.997 175.713 87.5638 180.269 87.5638 180.269C87.5638 180.269 90.5241 183.546 88.6758 185.262C87.75 186.121 86.8275 186.495 86.269 186.652C85.8614 186.768 85.4824 186.962 85.1519 187.226L83.7146 187.963Z" fill="#F2B5A7"/>
<path d="M41.0392 165.239L40.0731 163.788C40.0731 163.788 32.0846 165.967 28.9582 160.887C28.9582 160.887 26.4458 164.333 32.7253 165.748C38.8018 166.977 41.0392 165.239 41.0392 165.239Z" fill="#022445"/>
<path d="M51.2565 200.515C51.1995 200.465 51.2247 200.494 51.3454 200.621C51.3152 200.586 51.2867 200.551 51.2565 200.515C51.3874 200.633 51.9677 201.188 52.8818 201.999C52.8264 205.351 52.6218 209.461 52.6587 211.137C44.3246 205.246 38.9206 194.72 39.781 183.41C41.579 187.583 45.0475 193.139 51.2565 200.515Z" fill="#022445"/>
<path d="M19.9056 161.069C19.9034 161.069 19.9034 161.071 19.9012 161.071C19.9034 161.071 19.9056 161.069 19.9056 161.069Z" fill="#022445"/>
<path d="M9.34409 195.072L9.72482 186.346C9.91435 171.409 15.06 164.775 18.5067 162.04C14.9896 165.056 12.4604 172.123 14.686 187.772C14.686 187.772 16.4823 200.065 16.3381 208.983L10.753 200.288C9.75501 198.737 9.26359 196.914 9.34409 195.072Z" fill="#0077B6"/>
<path d="M13.9937 181.332C14.1279 183.3 14.3526 185.44 14.6847 187.772C14.6847 187.772 15.8973 196.075 16.2496 203.983C12.4557 196.873 13.9937 181.332 13.9937 181.332Z" fill="#022445"/>
<path d="M29.3638 229.287C30.4037 229.434 31.5777 229.471 32.7601 229.585C34.5363 229.756 36.8727 229.746 38.4828 229.67C41.3827 229.535 45.7552 228.987 49.8392 227.611C50.7734 227.296 51.8603 226.649 52.5161 225.816C52.5161 227.371 52.5161 230.362 52.5161 230.362C52.5161 230.362 20.6808 238.008 16.4207 221.812H16.4224C17.6015 225.576 20.9576 227.713 27.6228 228.903L29.3638 229.287Z" fill="#022445"/>
<path d="M32.2788 318.369L32.4247 309.107L33.5467 308.807C33.5467 308.807 33.7648 308.801 34.1505 308.759C34.2193 313.657 34.2864 318.017 34.3468 321.42C33.0603 321.894 31.6666 322.398 30.1772 322.954V324.412C30.1772 324.412 19.8808 330.316 15.1208 323.114V316.135C15.1208 317.244 15.1292 317.885 15.1494 317.982C22.2222 325.3 32.2788 318.369 32.2788 318.369Z" fill="#022445"/>
<path d="M15.1311 313.717C15.1244 314.672 15.1227 315.484 15.1227 316.135V313.72L15.1311 313.717Z" fill="#022445"/>
<path d="M34.5354 327.805C41.8028 331.951 52.5118 326.981 52.5118 326.981V318.325L52.7801 318.253C52.7801 318.253 54.516 318.198 56.8658 317.471C59.6014 316.626 62.5432 318.205 63.2191 320.983C63.2342 321.045 63.3516 322.855 63.365 322.918C64.3009 327.461 58.7091 328.928 49.4106 332.398V333.856C49.4106 333.856 39.1142 339.761 34.3542 332.559V323.163L34.3979 323.151C34.4532 325.904 34.5002 327.59 34.5354 327.805Z" fill="#022445"/>
<path d="M49.4106 332.399C57.6156 329.338 62.934 327.835 63.4271 324.402C63.9806 328.652 58.4458 330.132 49.4106 333.503V332.399Z" fill="#EBEDF6"/>
<path d="M49.4105 333.858V334.963C49.4105 334.963 39.1141 340.867 34.3542 333.665V332.56C39.1141 339.761 49.4105 333.858 49.4105 333.858Z" fill="#EBEDF6"/>
<path d="M30.1851 324.382V325.487C30.1851 325.487 19.8887 331.391 15.1287 324.189V323.084C19.8887 330.285 30.1851 324.382 30.1851 324.382Z" fill="#EBEDF6"/>
<path d="M34.364 322.49C33.0742 322.965 31.6771 323.469 30.1844 324.027V322.922C31.6687 322.368 33.0591 321.865 34.3439 321.393C34.3506 321.77 34.3573 322.136 34.364 322.49Z" fill="#EBEDF6"/>
<path d="M41.9217 152.963C41.2223 153.087 41.291 144.87 37.6381 155.049C33.9851 165.229 28.3597 159.215 28.9417 157.944C29.522 156.673 26.1542 152.393 26.1592 151.893C26.1642 151.392 18.5849 144.664 26.2649 135.238C29.6159 131.126 43.188 131.549 45.2006 129.158C47.2133 126.765 55.2656 139.9 43.5687 144.326C43.5687 144.324 44.1993 152.559 41.9217 152.963Z" fill="#022445"/>
<path d="M292.237 246.995L251.068 269.41L337.056 321.599L378.195 299.201L292.237 246.995Z" fill="white"/>
<path d="M292.256 246.193L379.587 299.233L337.036 322.399L249.673 269.375L292.256 246.193ZM376.801 299.167L292.217 247.795L252.46 269.442L337.074 320.797L376.801 299.167Z" fill="#0077B6"/>
<path opacity="0.7" d="M337.057 321.599C337.057 321.599 342.139 317.168 336.91 313.766C331.68 310.363 338.845 298.754 333.476 293.159C329.007 288.502 306.188 301.165 305.464 294.109C304.739 287.052 310.14 276.659 300.694 276.995C291.246 277.332 285.206 283.023 281.614 277.769C278.021 272.514 282.219 270.347 275.946 267.394C270.745 264.944 256.209 266.863 251.071 269.41L337.057 321.599Z" fill="#0077B6"/>
<path opacity="0.57" d="M337.056 321.599L352.488 313.196C352.488 313.196 346.255 304.589 329.106 310.802C311.956 317.014 321.327 294.284 314.558 289.236C307.612 284.057 294.482 296.481 291.563 288.936C288.645 281.391 287.56 250.752 281.668 252.748C280.74 253.254 251.068 269.41 251.068 269.41L337.056 321.599Z" fill="#0077B6"/>
<path d="M337.037 322.401L337.056 322.391L337.074 322.401L376.801 300.771L376.784 300.76L379.587 299.233V300.837L337.037 324.004L249.675 270.98V269.376L337.037 322.401Z" fill="#022445"/>
<path d="M360.824 262.039L382.627 249.131C384.381 248.092 386.544 248.093 388.297 249.133L424.745 270.763C426.323 271.699 426.32 274.035 424.74 274.967L402.964 287.794C401.215 288.826 399.062 288.826 397.312 287.792L360.828 266.243C359.248 265.312 359.246 262.975 360.824 262.039Z" fill="#0077B6"/>
<path d="M424.974 274.81L392.872 272.409C389.548 272.161 386.772 269.646 386.123 266.295L382.778 249.046C382.778 249.046 383.052 248.897 383.186 248.842C383.364 248.756 383.614 248.669 383.614 248.669L386.996 266.116C387.568 269.065 390.01 271.278 392.937 271.496L425.683 273.941C425.683 273.941 425.554 274.211 425.364 274.437C425.203 274.648 424.974 274.81 424.974 274.81Z" fill="white"/>
<path d="M402.217 273.107L405.26 286.443L406.066 285.967L403.148 273.177L402.217 273.107Z" fill="white"/>
<path d="M385.249 261.796L363.586 260.404L362.191 261.23L385.429 262.723L385.249 261.796Z" fill="white"/>
<path d="M425.612 271.654L425.61 271.652C425.614 271.657 425.617 271.66 425.619 271.665C425.615 271.662 425.614 271.657 425.612 271.654Z" fill="#022445"/>
<path d="M425.66 271.747C426.207 272.836 425.902 274.281 424.738 274.967L402.963 287.794C401.213 288.826 399.06 288.826 397.31 287.792L360.826 266.243C359.947 265.724 359.558 264.771 359.657 263.865C359.343 265.351 359.61 267.357 360.826 268.075L397.31 289.624C399.06 290.657 401.213 290.657 402.963 289.626L424.738 276.799C426.286 275.887 426.423 273.222 425.66 271.747Z" fill="#022445"/>
<path d="M360.085 262.722L360.083 262.723C360.08 262.729 360.078 262.734 360.074 262.739C360.08 262.734 360.081 262.727 360.085 262.722Z" fill="#022445"/>
<path d="M346.061 208.772L391.685 233.614L347.306 260.603L301.716 235.781L346.061 208.772Z" fill="#0077B6"/>
<path d="M346.154 212.502L385.214 233.769L347.219 256.878L308.185 235.625L346.154 212.502Z" fill="white"/>
<path d="M337.049 234.23L347.841 240.106C348.24 240.323 348.738 240.148 348.912 239.729L352.195 231.839C352.423 231.293 351.966 230.707 351.379 230.79L337.306 232.805C336.58 232.909 336.404 233.88 337.049 234.23Z" fill="#0077B6"/>
<path d="M347.306 260.603L301.716 235.781V237.478L347.306 262.301L391.685 235.312V233.614L347.306 260.603Z" fill="#022445"/>
<path d="M392.965 221.197L418.279 206.076C419.127 205.569 420.181 205.552 421.045 206.031L436.428 214.553C438.295 215.588 438.338 218.252 436.505 219.345L418.373 230.152C416.221 235.047 415.558 236.802 415.558 236.802L412.865 233.438L411.176 234.454C410.329 234.96 409.276 234.977 408.412 234.498L393.045 225.988C391.177 224.955 391.133 222.291 392.965 221.197Z" fill="white"/>
<path d="M436.428 214.553L421.045 206.031C420.181 205.552 419.126 205.569 418.279 206.076L392.965 221.197C392.339 221.571 391.933 222.128 391.742 222.741C391.432 221.611 391.845 220.311 392.99 219.628L418.304 204.507C419.153 204 420.206 203.983 421.07 204.462L436.453 212.984C437.988 213.834 438.485 216.589 437.594 218.15C438.174 216.904 437.78 215.301 436.428 214.553Z" fill="#0077B6"/>
<path d="M410.087 218.471C407.98 218.401 403.677 218.893 403.67 221.919C403.663 224.945 409.433 225.11 409.433 225.11L421.772 224.943L421.474 216.626C421.474 216.626 419.541 213.414 414.582 214.429C411.977 214.963 410.481 216.443 410.087 218.471Z" fill="#E95561"/>
<path d="M469.061 232.624L453.678 224.103C452.814 223.624 451.759 223.64 450.912 224.148L425.598 239.269C424.972 239.642 424.566 240.2 424.375 240.812C424.065 239.682 424.478 238.383 425.623 237.7L450.937 222.579C451.786 222.071 452.839 222.055 453.703 222.534L469.086 231.055C470.621 231.906 471.118 234.66 470.227 236.221C470.809 234.977 470.413 233.374 469.061 232.624Z" fill="#0077B6"/>
<path d="M425.598 239.27L450.912 224.149C451.761 223.642 452.814 223.625 453.678 224.104L469.061 232.626C470.928 233.661 470.971 236.325 469.138 237.418L451.006 248.225C448.854 253.12 448.191 254.875 448.191 254.875L445.498 251.511L443.809 252.527C442.962 253.033 441.909 253.05 441.045 252.571L425.678 244.061C423.81 243.028 423.766 240.364 425.598 239.27Z" fill="white"/>
<path d="M448.85 234.503L458.982 240.114L461.048 238.85L450.95 233.257L448.85 234.503Z" fill="#0077B6"/>
<path d="M447.616 235.216L457.748 240.828L451.182 244.769C449.094 246.024 446.494 246.069 444.362 244.888L439.498 242.194C438.665 241.732 438.656 240.54 439.483 240.066L443.549 237.736L439.745 235.591C438.333 234.809 438.843 232.643 440.456 232.604C441.925 232.571 444.636 235.405 447.616 235.216Z" fill="#0077B6"/>
<path d="M392.965 221.197L418.279 206.076C419.127 205.569 420.181 205.552 421.045 206.031L436.428 214.553C438.295 215.588 438.338 218.252 436.505 219.345L418.373 230.152C416.221 235.047 415.558 236.802 415.558 236.802L412.865 233.438L411.176 234.454C410.329 234.96 409.276 234.977 408.412 234.498L393.045 225.988C391.177 224.955 391.133 222.291 392.965 221.197Z" fill="white"/>
<path d="M436.428 214.553L421.045 206.031C420.181 205.552 419.126 205.569 418.279 206.076L392.965 221.197C392.339 221.571 391.933 222.128 391.742 222.741C391.432 221.611 391.845 220.311 392.99 219.628L418.304 204.507C419.153 204 420.206 203.983 421.07 204.462L436.453 212.984C437.988 213.834 438.485 216.589 437.594 218.15C438.174 216.904 437.78 215.301 436.428 214.553Z" fill="#0077B6"/>
<path d="M410.087 218.471C407.98 218.401 403.677 218.893 403.67 221.919C403.663 224.945 409.433 225.11 409.433 225.11L421.772 224.943L421.474 216.626C421.474 216.626 419.541 213.414 414.582 214.429C411.977 214.963 410.481 216.443 410.087 218.471Z" fill="#E95561"/>
<path d="M360.726 203.345L386.04 188.225C386.888 187.717 387.942 187.7 388.805 188.179L404.189 196.701C406.056 197.736 406.099 200.4 404.266 201.493L386.134 212.301C383.982 217.195 383.319 218.95 383.319 218.95L380.626 215.586L378.937 216.602C378.09 217.108 377.036 217.125 376.173 216.646L360.806 208.136C358.938 207.103 358.894 204.439 360.726 203.345Z" fill="white"/>
<path d="M404.189 196.701L388.806 188.179C387.942 187.7 386.887 187.717 386.04 188.225L360.726 203.345C360.1 203.719 359.694 204.276 359.503 204.889C359.193 203.759 359.606 202.46 360.751 201.776L386.065 186.656C386.914 186.148 387.967 186.131 388.831 186.61L404.214 195.132C405.749 195.983 406.246 198.737 405.355 200.298C405.935 199.052 405.541 197.449 404.189 196.701Z" fill="#0077B6"/>
<path d="M390.761 197.24C388.415 196.053 385.327 195.418 382.065 195.452C378.834 195.485 375.592 196.219 373.169 197.464C370.54 198.817 369.103 200.623 369.123 202.55C369.143 204.471 370.598 206.21 373.221 207.449C375.611 208.578 378.843 209.206 382.091 209.173C385.362 209.139 388.455 208.444 390.803 207.217C392.369 206.398 393.492 205.393 394.107 204.283C394.476 203.618 394.664 202.915 394.657 202.192C394.639 200.259 393.255 198.501 390.761 197.24ZM382.075 196.483C383.681 196.466 385.238 196.62 386.672 196.925L383.727 198.397C383.64 198.372 383.552 198.345 383.463 198.32C380.862 197.588 378.165 197.381 376.277 197.339C378.016 196.818 380.002 196.505 382.075 196.483ZM392.822 200.103L389.542 201.743C389.26 201.43 388.951 201.132 388.612 200.849C387.663 200.06 386.487 199.395 385.104 198.863L388.19 197.319C388.943 197.553 389.649 197.833 390.291 198.158C391.407 198.724 392.259 199.383 392.822 200.103ZM390.464 205.996C388.039 206.073 385.853 205.974 383.928 205.705L389.263 203.037C389.889 203.908 390.29 204.896 390.464 205.996ZM382.216 205.407C379.896 204.914 378.043 204.127 376.711 203.061L383.821 199.506C385.872 200.16 387.462 201.068 388.581 202.223L382.216 205.407ZM374.442 198.382C375.773 198.335 379.056 198.322 382.333 199.097L375.904 202.312C374.557 200.854 374.324 199.331 374.309 198.521C374.308 198.446 374.366 198.384 374.442 198.382ZM370.158 202.54C370.153 202.026 370.296 201.522 370.566 201.036C371.069 200.13 372.018 199.29 373.276 198.585C373.3 199.516 373.566 201.177 374.947 202.789L371.094 204.715C370.487 204.035 370.165 203.298 370.158 202.54ZM371.907 205.464L375.706 203.563C376.968 204.692 378.658 205.547 380.768 206.13L377.553 207.737C376.117 207.461 374.789 207.048 373.663 206.515C372.984 206.195 372.397 205.842 371.907 205.464ZM382.083 208.139C381.157 208.149 380.233 208.101 379.332 208.004L382.34 206.5C384.161 206.857 386.241 207.043 388.576 207.056C386.665 207.729 384.391 208.116 382.083 208.139ZM393.624 202.203C393.636 203.434 392.873 204.621 391.447 205.623C391.241 204.502 390.821 203.483 390.196 202.572L393.357 200.991C393.528 201.384 393.621 201.79 393.624 202.203Z" fill="#0077B6"/>
<path d="M407.876 179.611C415.027 179.611 420.824 176.625 420.824 172.941C420.824 169.258 415.027 166.272 407.876 166.272C400.725 166.272 394.928 169.258 394.928 172.941C394.928 176.625 400.725 179.611 407.876 179.611Z" fill="#0077B6"/>
<path d="M407.64 139.153C400.99 139.153 395.508 136.837 394.733 133.848C394.667 133.766 394.639 133.719 394.639 133.719L401.071 174.81C401.071 174.81 403.323 176.771 407.602 176.771C411.835 176.771 414.031 174.81 414.031 174.81L420.537 133.9C419.708 136.864 414.25 139.153 407.64 139.153Z" fill="#022445"/>
<path d="M407.652 157.213C411.42 157.213 414.812 156.469 417.187 155.28L417.866 151.007C415.484 152.395 411.811 153.284 407.692 153.284C403.494 153.284 399.76 152.36 397.382 150.927L398.06 155.252C400.436 156.457 403.853 157.213 407.652 157.213Z" fill="white"/>
<path d="M407.651 160.098C404.105 160.098 400.893 159.44 398.547 158.371L398.872 160.451C401.19 161.444 404.288 162.052 407.691 162.052C411.019 162.052 414.053 161.471 416.354 160.518L416.691 158.402C414.35 159.45 411.163 160.098 407.651 160.098Z" fill="white"/>
<path d="M407.64 139.458C414.822 139.458 420.644 136.756 420.644 133.423C420.644 130.09 414.822 127.388 407.64 127.388C400.459 127.388 394.637 130.09 394.637 133.423C394.637 136.756 400.459 139.458 407.64 139.458Z" fill="#0077B6"/>
<path d="M407.826 137.958C413.803 137.958 418.649 135.834 418.649 133.214C418.649 130.594 413.803 128.47 407.826 128.47C401.848 128.47 397.003 130.594 397.003 133.214C397.003 135.834 401.848 137.958 407.826 137.958Z" fill="white"/>
<path d="M416.945 124.804C416.945 124.804 423.611 129.95 435.128 122.73C436.641 121.782 438.114 121.216 439.524 120.941C442.731 120.318 443.325 115.958 440.369 114.568C435.734 112.389 430.107 111.75 423.768 114.948C423.768 114.948 417.249 118.111 416.945 124.804Z" fill="#0077B6"/>
<path d="M402.313 128.468C402.333 129.439 401.681 130.302 400.736 130.531C398.075 131.179 392.087 131.509 384.684 124.824C382.217 122.597 379.657 121.7 377.234 121.578C375.083 121.47 374.455 118.602 376.38 117.641C382.225 114.72 389.695 113.505 397.224 119.131C397.223 119.131 402.189 122.723 402.313 128.468Z" fill="#0077B6"/>
<path d="M410.389 122.013C410.389 122.013 418.042 121.799 423.635 109.422C424.856 106.721 427.312 104.744 429.913 103.327C432.65 101.835 431.488 97.6756 428.37 97.7643C423.134 97.9117 416.955 100.156 412.218 108.061C412.22 108.061 407.826 116.197 410.389 122.013Z" fill="#0077B6"/>
<path d="M403.553 117.284C403.483 118.681 402.121 119.642 400.765 119.29C397.966 118.563 393.129 116.192 388.596 108.542C386.627 105.219 382.709 103.349 379.2 102.304C377.019 101.654 377.1 98.5531 379.309 98.0139C384.924 96.6458 392.933 96.9606 399.747 105.874C399.781 105.918 399.811 105.959 399.841 106.005C400.301 106.691 403.813 112.123 403.553 117.284Z" fill="#0077B6"/>
<path d="M404.858 114.774C406.057 116.055 408.135 115.894 409.103 114.431C411.2 111.259 413.759 105.094 410.121 96.7747C408.55 93.1829 407.614 89.9361 407.075 87.143C406.524 84.2829 402.458 84.2026 401.785 87.0375C401.291 89.1223 400.814 91.6122 400.383 94.5845C399.637 99.7403 399.635 104.819 401.478 109.692C402.143 111.45 403.479 113.299 404.858 114.774Z" fill="#0077B6"/>
<path d="M410.635 137.832C411.673 131.417 415.757 125.632 421.294 122.264C422.85 121.318 424.515 120.571 426.261 120.054C426.619 119.948 426.466 119.387 426.107 119.494C419.73 121.387 414.378 126.291 411.683 132.333C410.922 134.039 410.373 135.833 410.075 137.676C410.016 138.043 410.576 138.2 410.635 137.832Z" fill="#0077B6"/>
<path d="M405.413 137.87C404.424 131.755 400.544 126.246 395.253 123.051C393.762 122.152 392.16 121.442 390.489 120.948C390.13 120.841 389.978 121.4 390.335 121.507C396.148 123.232 400.985 127.661 403.422 133.18C404.105 134.726 404.581 136.358 404.851 138.025C404.913 138.391 405.472 138.236 405.413 137.87Z" fill="#0077B6"/>
<path d="M409.747 137.948C409.279 132.512 409.526 127.028 410.804 121.713C411.953 116.938 413.877 112.356 416.701 108.322C418.254 106.105 420.074 104.079 422.127 102.312C422.41 102.068 421.998 101.659 421.716 101.902C418.043 105.064 415.141 109.054 413.077 113.426C410.844 118.157 409.568 123.321 409.12 128.522C408.85 131.658 408.895 134.813 409.165 137.948C409.197 138.316 409.779 138.319 409.747 137.948Z" fill="#0077B6"/>
<path d="M406.255 137.958C406.458 135.61 406.537 133.246 406.263 130.901C406.017 128.78 405.499 126.712 404.9 124.665C404.199 122.271 403.454 119.895 402.443 117.611C401.463 115.397 400.279 113.274 398.885 111.294C397.312 109.057 395.482 107.008 393.408 105.223C393.126 104.98 392.713 105.388 392.997 105.633C396.638 108.766 399.499 112.706 401.545 117.04C402.599 119.272 403.37 121.596 404.081 123.955C404.704 126.02 405.286 128.106 405.596 130.243C405.967 132.802 405.894 135.392 405.673 137.959C405.643 138.329 406.223 138.326 406.255 137.958Z" fill="#0077B6"/>
<path d="M405.936 101.035C407.119 110.576 407.534 120.209 407.167 129.816C407.063 132.53 406.895 135.242 406.669 137.948C406.637 138.319 407.219 138.318 407.249 137.948C408.053 128.368 408.086 118.724 407.337 109.139C407.125 106.432 406.85 103.729 406.516 101.035C406.473 100.67 405.891 100.665 405.936 101.035Z" fill="#0077B6"/>
<path d="M130.085 352.966C137.236 352.966 143.033 349.98 143.033 346.296C143.033 342.613 137.236 339.627 130.085 339.627C122.934 339.627 117.137 342.613 117.137 346.296C117.137 349.98 122.934 352.966 130.085 352.966Z" fill="#0077B6"/>
<path d="M129.846 312.508C123.196 312.508 117.713 310.192 116.938 307.203C116.873 307.121 116.843 307.074 116.843 307.074L123.275 348.165C123.275 348.165 125.527 350.126 129.806 350.126C134.039 350.126 136.235 348.165 136.235 348.165L142.741 307.255C141.915 310.219 136.458 312.508 129.846 312.508Z" fill="#022445"/>
<path d="M129.86 330.568C133.628 330.568 137.02 329.822 139.394 328.635L140.074 324.362C137.692 325.75 134.019 326.639 129.9 326.639C125.702 326.639 121.968 325.715 119.59 324.281L120.268 328.607C122.646 329.812 126.062 330.568 129.86 330.568Z" fill="white"/>
<path d="M129.859 333.453C126.313 333.453 123.102 332.795 120.755 331.726L121.081 333.806C123.398 334.799 126.496 335.407 129.899 335.407C133.227 335.407 136.261 334.826 138.562 333.873L138.899 331.756C136.56 332.805 133.373 333.453 129.859 333.453Z" fill="white"/>
<path d="M129.846 312.813C137.028 312.813 142.85 310.111 142.85 306.778C142.85 303.445 137.028 300.743 129.846 300.743C122.665 300.743 116.843 303.445 116.843 306.778C116.843 310.111 122.665 312.813 129.846 312.813Z" fill="#0077B6"/>
<path d="M130.034 311.312C136.011 311.312 140.857 309.189 140.857 306.569C140.857 303.949 136.011 301.825 130.034 301.825C124.056 301.825 119.211 303.949 119.211 306.569C119.211 309.189 124.056 311.312 130.034 311.312Z" fill="white"/>
<path d="M139.153 298.159C139.153 298.159 145.818 303.305 157.336 296.084C158.849 295.137 160.321 294.571 161.732 294.296C164.939 293.673 165.532 289.313 162.577 287.923C157.941 285.744 152.314 285.105 145.976 288.303C145.976 288.303 139.455 291.466 139.153 298.159Z" fill="#0077B6"/>
<path d="M124.521 301.823C124.541 302.794 123.889 303.657 122.945 303.886C120.283 304.534 114.295 304.864 106.892 298.179C104.425 295.952 101.865 295.055 99.4418 294.932C97.2916 294.825 96.6626 291.957 98.5881 290.996C104.433 288.075 111.903 286.86 119.432 292.486C119.429 292.486 124.397 296.078 124.521 301.823Z" fill="#0077B6"/>
<path d="M132.598 295.368C132.598 295.368 140.251 295.154 145.844 282.777C147.065 280.076 149.521 278.099 152.122 276.682C154.859 275.19 153.697 271.031 150.579 271.119C145.343 271.267 139.164 273.511 134.427 281.416C134.429 281.416 130.035 289.554 132.598 295.368Z" fill="#0077B6"/>
<path d="M125.761 290.639C125.69 292.036 124.328 292.997 122.973 292.645C120.174 291.918 115.337 289.547 110.803 281.896C108.834 278.574 104.916 276.704 101.408 275.659C99.2273 275.009 99.3078 271.908 101.517 271.369C107.132 270.001 115.141 270.315 121.955 279.229C121.987 279.272 122.019 279.314 122.049 279.359C122.509 280.046 126.019 285.478 125.761 290.639Z" fill="#0077B6"/>
<path d="M127.067 288.129C128.266 289.41 130.344 289.249 131.312 287.786C133.409 284.614 135.968 278.449 132.33 270.13C130.759 266.538 129.823 263.291 129.284 260.498C128.732 257.638 124.667 257.557 123.994 260.392C123.5 262.477 123.023 264.967 122.592 267.939C121.846 273.095 121.844 278.174 123.687 283.047C124.352 284.805 125.687 286.654 127.067 288.129Z" fill="#0077B6"/>
<path d="M132.842 311.187C133.88 304.772 137.964 298.986 143.501 295.619C145.057 294.673 146.722 293.926 148.468 293.409C148.826 293.303 148.673 292.742 148.314 292.849C141.937 294.742 136.585 299.646 133.89 305.688C133.129 307.394 132.58 309.188 132.282 311.031C132.223 311.398 132.783 311.555 132.842 311.187Z" fill="#0077B6"/>
<path d="M127.621 311.225C126.632 305.11 122.752 299.601 117.461 296.406C115.97 295.507 114.368 294.797 112.697 294.303C112.339 294.196 112.186 294.755 112.543 294.862C118.356 296.587 123.193 301.016 125.63 306.535C126.313 308.081 126.789 309.713 127.059 311.379C127.12 311.746 127.68 311.59 127.621 311.225Z" fill="#0077B6"/>
<path d="M131.952 311.302C131.484 305.867 131.731 300.383 133.009 295.068C134.158 290.292 136.082 285.711 138.906 281.677C140.459 279.46 142.279 277.434 144.332 275.667C144.615 275.423 144.203 275.014 143.921 275.257C140.248 278.418 137.346 282.409 135.282 286.781C133.049 291.511 131.773 296.676 131.325 301.877C131.055 305.013 131.1 308.168 131.37 311.302C131.404 311.671 131.984 311.674 131.952 311.302Z" fill="#0077B6"/>
<path d="M128.462 311.312C128.665 308.965 128.744 306.6 128.47 304.256C128.224 302.135 127.706 300.066 127.107 298.02C126.406 295.626 125.661 293.25 124.65 290.966C123.67 288.752 122.486 286.629 121.092 284.649C119.519 282.412 117.689 280.363 115.615 278.578C115.333 278.335 114.92 278.743 115.204 278.988C118.845 282.121 121.706 286.061 123.752 290.395C124.806 292.627 125.577 294.951 126.288 297.31C126.911 299.375 127.493 301.461 127.803 303.598C128.174 306.157 128.101 308.747 127.88 311.314C127.848 311.684 128.43 311.681 128.462 311.312Z" fill="#0077B6"/>
<path d="M128.144 274.39C129.326 283.931 129.742 293.564 129.375 303.171C129.271 305.885 129.103 308.596 128.877 311.302C128.845 311.674 129.427 311.672 129.457 311.302C130.261 301.723 130.294 292.079 129.544 282.494C129.333 279.787 129.058 277.084 128.724 274.39C128.679 274.025 128.099 274.02 128.144 274.39Z" fill="#0077B6"/>
<path d="M186.8 150.716V200.333L229.819 175.49V125.909L186.8 150.716Z" fill="#0077B6"/>
<path d="M189.894 152.501V194.981L226.725 173.712V131.261L189.894 152.501Z" fill="white"/>
<path d="M195.792 189.31L195.738 152.546L210.617 154.93L204.55 163.721L219.41 171.401L195.792 189.31Z" fill="#0077B6"/>
<path d="M219.238 155.652C220.117 153.958 219.872 152.088 218.69 151.477C217.508 150.865 215.837 151.744 214.958 153.439C214.078 155.133 214.323 157.003 215.505 157.614C216.687 158.226 218.358 157.347 219.238 155.652Z" fill="#0077B6"/>
<path d="M228.346 125.037L229.819 125.909L186.8 150.716V200.333L185.327 199.462V149.845L228.346 125.037Z" fill="#022445"/>
<path d="M231.635 339.299C257.952 339.299 279.286 330.54 279.286 319.735C279.286 308.931 257.952 300.172 231.635 300.172C205.318 300.172 183.984 308.931 183.984 319.735C183.984 330.54 205.318 339.299 231.635 339.299Z" fill="#0077B6"/>
<path d="M221.385 209.772C242.258 185.025 231.638 181.155 231.638 181.155C222.71 172.67 210.919 197.123 210.919 197.123L206.351 204.811L193.642 193.816L189.089 198.024C189.089 198.024 203.595 221.957 210.131 218.27C216.726 214.548 222.388 208.709 221.385 209.772Z" fill="#E95561"/>
<path d="M220.422 232.54L209.685 277.245L206.024 315.701C206.024 315.701 213.635 319.893 222.573 316.142C222.727 315.221 227.267 281.885 227.267 281.885L236.7 257.75L241.359 283.951L247.255 323.556C247.255 323.556 258.224 329.257 265.402 324.61C265.504 324.101 260.419 283.74 260.419 283.74L255.599 224.908C255.597 224.906 249.076 237.018 220.422 232.54Z" fill="#022445"/>
<path d="M194.229 311.182C194.242 311.12 194.356 309.352 194.371 309.291C195.032 306.577 197.905 305.033 200.578 305.86C202.875 306.57 206.566 307.325 206.566 307.325L206.829 307.396L206.023 315.701C206.023 315.701 215.296 320.006 222.396 315.956L222.572 315.909V320.603C217.923 327.639 207.861 321.872 207.861 321.872V320.447C198.777 317.054 193.313 315.621 194.229 311.182Z" fill="#022445"/>
<path d="M222.857 236.144C226.845 237.489 231.119 238.023 233.952 238.157C235.525 238.23 237.807 238.239 239.543 238.073C252.673 236.815 256.542 233.508 255.943 225.278C255.313 216.596 257.203 197.22 257.203 197.22C262.125 162.626 243.258 170.95 243.258 170.95C243.203 170.813 242.148 171.429 240.934 172.194C238.755 173.569 236.296 174.442 233.739 174.76C230.398 175.177 225.532 176.84 221.451 181.465C203.591 201.704 220.069 206.359 219.922 209.273C219.771 212.247 220 213.955 220.079 217.766C220.094 218.491 220.244 220.372 219.729 225.389C219.729 225.389 219.09 230.785 219.717 233.368C220.036 234.665 221.592 235.717 222.857 236.144Z" fill="#E95561"/>
<path d="M225.83 152.785C225.44 152.929 223.11 173.444 232.752 171.138C232.752 171.138 232.73 173.554 231.912 175.088C231.912 175.088 238.755 177.545 242.883 174.155C243.611 173.558 243.891 172.57 243.589 171.675C243.3 170.816 242.878 169.584 242.364 168.149C241.006 164.356 244.369 145.95 225.83 152.785Z" fill="#F2B5A7"/>
<path d="M231.456 175.202L232.4 173.785C232.4 173.785 240.204 175.914 243.26 170.949C243.26 170.949 245.716 174.316 239.579 175.699C233.643 176.9 231.456 175.202 231.456 175.202Z" fill="#BC2C37"/>
<path d="M221.472 209.668C221.528 209.618 221.502 209.648 221.385 209.772C221.414 209.737 221.442 209.703 221.472 209.668C221.343 209.784 220.778 210.326 219.886 211.118C219.939 214.395 220.139 218.409 220.104 220.047C228.247 214.292 233.526 204.007 232.686 192.957C230.927 197.032 227.539 202.463 221.472 209.668Z" fill="#BC2C37"/>
<path d="M252.108 171.128C252.11 171.128 252.11 171.13 252.113 171.13C252.11 171.13 252.108 171.128 252.108 171.128C252.106 171.128 252.106 171.128 252.108 171.128Z" fill="#022445"/>
<path d="M242.862 237.78C241.845 237.924 240.7 237.961 239.543 238.071C237.807 238.237 235.524 238.229 233.951 238.155C231.118 238.023 226.844 237.487 222.856 236.142C221.944 235.836 220.882 235.203 220.241 234.389C220.241 235.908 220.241 238.831 220.241 238.831C220.241 238.831 251.347 246.301 255.508 230.477H255.506C254.354 234.155 251.075 236.243 244.562 237.406L242.862 237.78Z" fill="#022445"/>
<path d="M207.863 320.444C199.846 317.453 194.65 315.984 194.167 312.63C193.627 316.783 199.034 318.23 207.863 321.524V320.444Z" fill="#EBEDF6"/>
<path d="M207.863 321.87V322.949C207.863 322.949 217.923 328.717 222.574 321.679V320.601C217.923 327.637 207.863 321.87 207.863 321.87Z" fill="#EBEDF6"/>
<path d="M237.233 319.836C237.247 319.774 237.361 318.006 237.376 317.945C238.037 315.231 240.856 313.888 243.583 314.514C245.502 314.955 245.455 314.933 245.455 314.933L245.779 315.02L248.015 323.759C248.015 323.759 258.303 328.66 265.402 324.61L265.578 324.563V329.257C260.929 336.293 250.867 330.526 250.867 330.526V329.101C241.782 325.708 236.318 324.275 237.233 319.836Z" fill="#022445"/>
<path d="M250.868 329.099C242.851 326.108 237.655 324.64 237.172 321.286C236.632 325.439 242.039 326.885 250.868 330.179V329.099Z" fill="#EBEDF6"/>
<path d="M250.868 330.524V331.602C250.868 331.602 260.928 337.371 265.579 330.333V329.255C260.928 336.291 250.868 330.524 250.868 330.524Z" fill="#EBEDF6"/>
<path d="M230.594 163.207C231.278 163.328 231.211 155.3 234.778 165.245C238.347 175.192 243.844 169.316 243.275 168.074C242.708 166.831 245.999 162.65 245.994 162.161C245.989 161.672 253.394 155.098 245.89 145.888C242.616 141.871 229.356 142.284 227.388 139.947C225.421 137.609 217.555 150.443 228.982 154.766C228.984 154.768 228.368 162.814 230.594 163.207Z" fill="#022445"/>
<path d="M214.521 312.684L218.542 281.203C219.072 279.554 227.987 251.829 228.143 251.209L227.318 251.003C227.175 251.551 220.979 270.85 217.721 280.98L217.704 281.056L213.679 312.577L214.521 312.684Z" fill="white"/>
<path d="M255.089 321.584L255.929 321.463L250.77 285.389L247.677 254.312L246.83 254.396L249.928 285.5L255.089 321.584Z" fill="white"/>
<path d="M190.66 186.942C190.877 187.781 191.398 189.877 191.202 191.952L192.997 194.511L189.439 197.798L187.932 195.865C187.932 195.865 179.193 194.067 186.209 185.411L188.302 189.859C188.472 190.221 189.015 190.102 189.018 189.703L189.04 187.153C189.049 186.197 190.422 186.016 190.66 186.942Z" fill="#F2B5A7"/>
</g>
<defs>
<clipPath id="clip0_113_1614">
<rect width="477" height="356" fill="white"/>
</clipPath>
</defs>
</svg>
