<svg width="454" height="414" viewBox="0 0 454 414" fill="none" xmlns="http://www.w3.org/2000/svg">
<path d="M225.402 10.253V160.529C225.402 167.818 229.291 174.556 235.606 178.199L394.527 269.92C400.344 273.277 407.612 269.079 407.612 262.364V116.716C407.612 109.369 403.693 102.581 397.331 98.9077L234.587 4.94967C230.504 2.59392 225.402 5.53957 225.402 10.253Z" fill="#022445"/>
<path d="M232.25 19.8274V158.805C232.25 165.547 235.847 171.777 241.687 175.148L388.66 259.974C394.038 263.079 400.761 259.196 400.761 252.987V118.288C400.761 111.495 397.135 105.217 391.252 101.819L240.742 14.9243C236.967 12.7448 232.25 15.4683 232.25 19.8274Z" fill="#CAE9F8"/>
<path d="M404.766 94.5199L243.964 1.57315C241.152 -0.0509739 237.697 -0.0911936 234.849 1.4659L228.95 4.695C230.655 3.90209 232.725 3.87528 234.583 4.94973L397.327 98.9077C403.689 102.581 407.608 109.369 407.608 116.716V262.364C407.608 265.178 406.331 267.551 404.419 269.11L410.226 265.756C413.208 264.034 415.047 260.851 415.047 257.406V112.328C415.047 104.983 411.128 98.1933 404.766 94.5199Z" fill="#022445"/>
<path d="M298.362 214.422V226.231C298.362 226.287 298.364 226.342 298.366 226.398C298.393 227.087 298.165 233.429 281.627 238.36C270.448 241.693 258.412 245.219 250.303 247.584C246.653 248.649 246.04 253.56 249.317 255.49C261.831 262.858 284.795 276.23 296.602 283.1C300.946 285.627 306.464 284.778 309.846 281.063L330.533 258.346C330.533 258.346 334.704 254.029 334.704 249.484C334.704 245.972 334.7 235.434 334.7 235.434L298.362 214.422Z" fill="#CAE9F8"/>
<path d="M334.701 235.436C334.701 235.436 334.705 245.973 334.705 249.486C334.705 254.031 330.533 258.348 330.533 258.348L309.847 281.065C306.462 284.78 300.945 285.629 296.603 283.102C284.793 276.232 261.83 262.86 249.317 255.492C248.183 254.824 247.515 253.799 247.278 252.7C246.904 254.504 247.582 256.519 249.451 257.62C262.755 265.453 283.859 277.65 296.413 284.954C301.031 287.642 306.897 286.737 310.582 282.691L332.575 258.539C332.575 258.539 336.618 254.517 336.618 248.913C336.618 246.288 336.616 240.059 336.614 236.539L334.701 235.436Z" fill="#022445"/>
<path d="M407.61 244.346V262.406C407.61 269.121 400.342 273.317 394.525 269.962L235.604 178.241C229.289 174.596 225.4 167.86 225.4 160.571V139.028L407.61 244.346Z" fill="#0077B6"/>
<path d="M320.126 214.116C322.543 212.851 322.883 208.732 320.886 204.916C318.888 201.1 315.31 199.032 312.893 200.297C310.476 201.561 310.136 205.681 312.133 209.497C314.13 213.313 317.709 215.381 320.126 214.116Z" fill="white"/>
<path d="M241.405 24.1232V31.3092L391.834 118.156V110.972L241.405 24.1232Z" fill="#022445"/>
<path d="M389.894 121.745V232.494L341.636 204.591V93.8745L389.894 121.745Z" fill="#0077B6"/>
<path d="M387.272 123.26V227.951L344.256 203.082V98.4155L387.272 123.26Z" fill="white"/>
<path d="M325.457 87.8012V152.634L244.417 106.687V41.9005L325.457 87.8012Z" fill="#0077B6"/>
<path d="M349.578 108.149V111.765L381.95 130.484V126.87L349.578 108.149Z" fill="#EA5D68"/>
<path d="M358.788 127.464V131.08L371.906 138.632V135.018L358.788 127.464Z" fill="#0077B6"/>
<path d="M348.188 121.789V131.358L356.174 136.209V126.648L348.188 121.789Z" fill="#0077B6"/>
<path d="M348.188 138.214V147.783L356.174 152.634V143.073L348.188 138.214Z" fill="#0077B6"/>
<path d="M348.458 159.219V198.265L381.044 217.312V178.296L348.458 159.219Z" fill="#CAE9F8"/>
<path d="M244.417 126.361V145.883L260.71 155.248V135.74L244.417 126.361Z" fill="#0077B6"/>
<path d="M268.652 139.346V158.87L284.945 168.234V148.727L268.652 139.346Z" fill="#0077B6"/>
<path d="M290.943 151.305V170.829L307.236 180.193V160.686L290.943 151.305Z" fill="#0077B6"/>
<path d="M358.788 134.154V136.054L381.949 149.6V147.702L358.788 134.154Z" fill="#0077B6"/>
<path d="M358.788 144.615V148.231L371.906 155.783V152.169L358.788 144.615Z" fill="#0077B6"/>
<path d="M358.788 151.305V153.205L381.949 166.751V164.853L358.788 151.305Z" fill="#0077B6"/>
<path d="M325.457 149.359V152.634L244.417 106.687V103.458L325.457 149.359Z" fill="#EA5D68"/>
<path d="M325.457 160.341V163.616L244.417 117.669V114.44L325.457 160.341Z" fill="#022445"/>
<path d="M279.526 87.2515V100.497C279.526 100.988 279.95 101.369 280.438 101.317L289.608 100.344C290.244 100.277 290.564 99.5436 290.181 99.0322L281.011 86.7593C280.536 86.1234 279.526 86.4586 279.526 87.2515Z" fill="white"/>
<path opacity="0.6" d="M377.975 94.135L374.33 92.0225L257.518 157.66L261.174 159.776L377.975 94.135Z" fill="white"/>
<path opacity="0.6" d="M250.942 153.791L367.651 88.1901L352.823 79.5925L236.081 145.201L250.942 153.791Z" fill="white"/>
<path opacity="0.6" d="M385.356 98.4116L268.652 164.034L272.793 166.43L389.491 100.8L385.356 98.4116Z" fill="white"/>
<path d="M31.4069 301.631C38.2866 301.631 43.8637 298.753 43.8637 295.203C43.8637 291.653 38.2866 288.776 31.4069 288.776C24.5273 288.776 18.9502 291.653 18.9502 295.203C18.9502 298.753 24.5273 301.631 31.4069 301.631Z" fill="#0077B6"/>
<path d="M31.1782 262.646C24.7813 262.646 19.5067 260.415 18.7598 257.534C18.6966 257.456 18.6679 257.41 18.6679 257.41L24.856 297.004C24.856 297.004 27.0241 298.894 31.138 298.894C35.2098 298.894 37.3223 297.004 37.3223 297.004L43.5813 257.584C42.7884 260.44 37.5368 262.646 31.1782 262.646Z" fill="#022445"/>
<path d="M31.1914 280.048C34.8169 280.048 38.0805 279.332 40.3654 278.187L41.0185 274.069C38.7259 275.406 35.1942 276.262 31.2316 276.262C27.1923 276.262 23.6013 275.371 21.3145 273.99L21.9656 278.158C24.2505 279.318 27.5371 280.048 31.1914 280.048Z" fill="white"/>
<path d="M31.1911 282.825C27.78 282.825 24.6907 282.191 22.4346 281.161L22.7487 283.164C24.978 284.122 27.9581 284.706 31.2313 284.706C34.4317 284.706 37.3524 284.147 39.5645 283.227L39.8882 281.188C37.6359 282.203 34.5696 282.825 31.1911 282.825Z" fill="white"/>
<path d="M31.1783 262.937C38.0865 262.937 43.6868 260.334 43.6868 257.123C43.6868 253.911 38.0865 251.308 31.1783 251.308C24.2701 251.308 18.6698 253.911 18.6698 257.123C18.6698 260.334 24.2701 262.937 31.1783 262.937Z" fill="#0077B6"/>
<path d="M31.3585 261.493C37.1095 261.493 41.7717 259.446 41.7717 256.922C41.7717 254.397 37.1095 252.35 31.3585 252.35C25.6075 252.35 20.9453 254.397 20.9453 256.922C20.9453 259.446 25.6075 261.493 31.3585 261.493Z" fill="white"/>
<path d="M40.1309 248.82C40.1309 248.82 46.5431 253.779 57.6228 246.82C59.0784 245.907 60.4937 245.361 61.8517 245.097C64.9352 244.497 65.5079 240.295 62.6656 238.956C58.2069 236.857 52.7925 236.241 46.6944 239.324C46.6963 239.322 40.422 242.369 40.1309 248.82Z" fill="#0077B6"/>
<path d="M26.0553 252.35C26.0744 253.284 25.4462 254.116 24.5384 254.338C21.9777 254.962 16.2167 255.28 9.0958 248.839C6.72282 246.692 4.25982 245.828 1.92897 245.712C-0.139497 245.608 -0.744709 242.845 1.10733 241.918C6.73049 239.104 13.9165 237.932 21.1599 243.352C21.158 243.352 25.9365 246.813 26.0553 252.35Z" fill="#0077B6"/>
<path d="M33.8235 246.129C33.8235 246.129 41.1857 245.922 46.5676 233.996C47.7416 231.393 50.105 229.488 52.6063 228.124C55.2398 226.686 54.1213 222.679 51.122 222.763C46.0849 222.905 40.1419 225.067 35.5837 232.686C35.5856 232.686 31.3586 240.527 33.8235 246.129Z" fill="#0077B6"/>
<path d="M27.2479 241.573C27.1809 242.919 25.8709 243.844 24.5666 243.505C21.8738 242.806 17.2216 240.519 12.8587 233.148C10.9645 229.945 7.19533 228.143 3.82067 227.138C1.72348 226.513 1.80009 223.524 3.92601 223.004C9.327 221.685 17.032 221.989 23.5879 230.579C23.6185 230.621 23.6492 230.662 23.6779 230.706C24.1184 231.366 27.4969 236.601 27.2479 241.573Z" fill="#0077B6"/>
<path d="M28.5051 239.154C29.6581 240.387 31.6576 240.232 32.5884 238.822C34.6051 235.766 37.0681 229.827 33.5671 221.809C32.0559 218.348 31.1558 215.219 30.6368 212.528C30.1062 209.772 26.1953 209.695 25.548 212.427C25.073 214.436 24.6133 216.835 24.1996 219.699C23.4814 224.667 23.4795 229.56 25.253 234.256C25.8927 235.951 27.1778 237.733 28.5051 239.154Z" fill="#0077B6"/>
<path d="M34.0617 261.372C35.0595 255.192 38.9896 249.617 44.3159 246.372C45.8117 245.461 47.4148 244.741 49.0944 244.243C49.4392 244.141 49.2917 243.601 48.945 243.704C42.8105 245.528 37.6604 250.253 35.0691 256.075C34.3375 257.72 33.8089 259.446 33.5216 261.225C33.4661 261.576 34.0042 261.727 34.0617 261.372Z" fill="#0077B6"/>
<path d="M29.0371 261.409C28.0852 255.518 24.3543 250.208 19.2636 247.131C17.8291 246.263 16.2873 245.581 14.6823 245.102C14.3376 244.999 14.1901 245.539 14.5329 245.641C20.1255 247.303 24.7776 251.57 27.1237 256.889C27.7807 258.377 28.2384 259.951 28.4989 261.556C28.5544 261.911 29.0926 261.761 29.0371 261.409Z" fill="#0077B6"/>
<path d="M33.205 261.484C32.7549 256.247 32.9924 250.963 34.222 245.84C35.3271 241.239 37.1772 236.823 39.895 232.937C41.3888 230.799 43.1394 228.848 45.114 227.147C45.386 226.912 44.9895 226.519 44.7195 226.753C41.1858 229.798 38.3934 233.644 36.4092 237.855C34.2622 242.413 33.0327 247.389 32.6036 252.401C32.3451 255.424 32.3872 258.463 32.6477 261.484C32.6764 261.838 33.2357 261.842 33.205 261.484Z" fill="#0077B6"/>
<path d="M29.8451 261.493C30.0404 259.231 30.1151 256.954 29.8546 254.694C29.6171 252.65 29.1192 250.657 28.5427 248.686C27.8685 246.38 27.1503 244.089 26.1793 241.889C25.237 239.757 24.0974 237.71 22.7587 235.802C21.2456 233.647 19.4855 231.671 17.4898 229.951C17.2179 229.717 16.8214 230.11 17.0953 230.346C20.5983 233.364 23.3505 237.162 25.3193 241.335C26.3325 243.486 27.0737 245.725 27.7594 247.998C28.3588 249.988 28.9181 251.997 29.2169 254.058C29.5731 256.523 29.5041 259.019 29.2916 261.493C29.2571 261.851 29.8144 261.849 29.8451 261.493Z" fill="#0077B6"/>
<path d="M29.5406 225.916C30.6782 235.109 31.0785 244.392 30.7242 253.648C30.6246 256.263 30.4637 258.875 30.2454 261.484C30.2147 261.842 30.774 261.84 30.8046 261.484C31.5784 252.252 31.609 242.961 30.8889 233.724C30.6859 231.116 30.4216 228.511 30.0998 225.914C30.0558 225.563 29.4965 225.559 29.5406 225.916Z" fill="#0077B6"/>
<path d="M420.102 381.809C426.982 381.809 432.559 378.931 432.559 375.381C432.559 371.831 426.982 368.954 420.102 368.954C413.223 368.954 407.646 371.831 407.646 375.381C407.646 378.931 413.223 381.809 420.102 381.809Z" fill="#0077B6"/>
<path d="M419.874 342.824C413.477 342.824 408.202 340.593 407.455 337.712C407.392 337.634 407.363 337.588 407.363 337.588L413.551 377.182C413.551 377.182 415.719 379.072 419.833 379.072C423.905 379.072 426.018 377.182 426.018 377.182L432.277 337.762C431.484 340.618 426.232 342.824 419.874 342.824Z" fill="#022445"/>
<path d="M419.885 360.226C423.51 360.226 426.774 359.51 429.059 358.364L429.712 354.247C427.419 355.583 423.888 356.44 419.925 356.44C415.886 356.44 412.295 355.549 410.008 354.168L410.659 358.336C412.946 359.498 416.232 360.226 419.885 360.226Z" fill="white"/>
<path d="M419.884 363.003C416.473 363.003 413.384 362.369 411.128 361.339L411.442 363.342C413.671 364.3 416.651 364.884 419.924 364.884C423.125 364.884 426.046 364.325 428.258 363.405L428.581 361.366C426.331 362.381 423.265 363.003 419.884 363.003Z" fill="white"/>
<path d="M419.873 343.115C426.781 343.115 432.381 340.512 432.381 337.301C432.381 334.089 426.781 331.486 419.873 331.486C412.964 331.486 407.364 334.089 407.364 337.301C407.364 340.512 412.964 343.115 419.873 343.115Z" fill="#0077B6"/>
<path d="M420.051 341.671C425.802 341.671 430.464 339.624 430.464 337.1C430.464 334.575 425.802 332.528 420.051 332.528C414.3 332.528 409.638 334.575 409.638 337.1C409.638 339.624 414.3 341.671 420.051 341.671Z" fill="white"/>
<path d="M428.825 328.998C428.825 328.998 435.238 333.956 446.317 326.998C447.773 326.085 449.188 325.539 450.546 325.275C453.63 324.675 454.202 320.473 451.36 319.134C446.901 317.035 441.487 316.419 435.389 319.502C435.389 319.5 429.116 322.547 428.825 328.998Z" fill="#0077B6"/>
<path d="M414.748 332.528C414.767 333.462 414.139 334.294 413.231 334.516C410.67 335.14 404.909 335.458 397.788 329.017C395.415 326.87 392.952 326.006 390.621 325.89C388.553 325.786 387.948 323.022 389.8 322.096C395.423 319.282 402.609 318.11 409.852 323.53C409.85 323.532 414.629 326.991 414.748 332.528Z" fill="#0077B6"/>
<path d="M422.518 326.307C422.518 326.307 429.88 326.1 435.262 314.174C436.436 311.571 438.799 309.665 441.301 308.302C443.934 306.863 442.815 302.857 439.816 302.941C434.779 303.083 428.836 305.245 424.278 312.864C424.28 312.864 420.051 320.705 422.518 326.307Z" fill="#0077B6"/>
<path d="M415.94 321.751C415.873 323.097 414.563 324.022 413.259 323.683C410.566 322.984 405.914 320.697 401.551 313.326C399.657 310.123 395.888 308.321 392.513 307.316C390.416 306.691 390.492 303.701 392.618 303.182C398.019 301.863 405.724 302.167 412.28 310.757C412.311 310.799 412.342 310.84 412.37 310.884C412.813 311.544 416.189 316.779 415.94 321.751Z" fill="#0077B6"/>
<path d="M417.197 319.332C418.35 320.565 420.35 320.41 421.281 319C423.298 315.944 425.761 310.005 422.259 301.987C420.748 298.526 419.848 295.397 419.329 292.706C418.799 289.95 414.886 289.873 414.24 292.605C413.765 294.614 413.306 297.013 412.892 299.877C412.174 304.845 412.172 309.738 413.945 314.434C414.585 316.129 415.87 317.911 417.197 319.332Z" fill="#0077B6"/>
<path d="M422.753 341.551C423.751 335.37 427.681 329.795 433.007 326.55C434.503 325.639 436.106 324.919 437.786 324.421C438.129 324.319 437.983 323.779 437.636 323.882C431.502 325.706 426.352 330.431 423.761 336.253C423.029 337.898 422.5 339.624 422.213 341.403C422.157 341.754 422.696 341.905 422.753 341.551Z" fill="#0077B6"/>
<path d="M417.729 341.587C416.778 335.694 413.047 330.386 407.956 327.309C406.521 326.441 404.98 325.759 403.375 325.282C403.03 325.179 402.883 325.719 403.225 325.821C408.818 327.483 413.47 331.75 415.816 337.069C416.473 338.557 416.931 340.131 417.191 341.736C417.249 342.091 417.787 341.939 417.729 341.587Z" fill="#0077B6"/>
<path d="M421.899 341.662C421.449 336.425 421.687 331.141 422.916 326.018C424.021 321.417 425.872 317.001 428.589 313.115C430.083 310.977 431.834 309.026 433.808 307.325C434.08 307.089 433.684 306.697 433.414 306.931C429.88 309.976 427.088 313.822 425.104 318.033C422.957 322.591 421.727 327.567 421.298 332.579C421.039 335.602 421.082 338.641 421.342 341.662C421.371 342.018 421.93 342.02 421.899 341.662Z" fill="#0077B6"/>
<path d="M418.539 341.671C418.735 339.409 418.809 337.132 418.549 334.872C418.312 332.828 417.814 330.835 417.237 328.864C416.563 326.558 415.847 324.267 414.874 322.067C413.931 319.935 412.792 317.888 411.453 315.98C409.94 313.825 408.18 311.849 406.184 310.129C405.912 309.895 405.516 310.288 405.79 310.524C409.293 313.542 412.045 317.34 414.014 321.513C415.027 323.664 415.768 325.903 416.454 328.176C417.053 330.166 417.612 332.175 417.911 334.236C418.267 336.701 418.198 339.197 417.986 341.671C417.949 342.029 418.509 342.027 418.539 341.671Z" fill="#0077B6"/>
<path d="M418.233 306.094C419.371 315.287 419.771 324.57 419.417 333.826C419.317 336.441 419.156 339.053 418.938 341.662C418.907 342.02 419.466 342.018 419.497 341.662C420.271 332.43 420.301 323.139 419.581 313.902C419.378 311.293 419.114 308.689 418.792 306.092C418.748 305.741 418.189 305.737 418.233 306.094Z" fill="#0077B6"/>
<path d="M368.317 194.379V235.398L332.812 214.86V173.872L368.317 194.379Z" fill="#0077B6"/>
<path d="M365.765 195.856V230.973L335.366 213.39V178.297L365.765 195.856Z" fill="white"/>
<path d="M337.962 212.24L363.172 226.856L358.218 210.601L352.74 214.089L344.872 194.344L337.962 212.24Z" fill="#0077B6"/>
<path d="M359.878 203.164C360.854 202.658 361.057 201.112 360.331 199.711C359.605 198.31 358.225 197.584 357.249 198.089C356.273 198.595 356.071 200.14 356.797 201.542C357.523 202.943 358.902 203.669 359.878 203.164Z" fill="#0077B6"/>
<path d="M334.029 173.152L332.812 173.872L368.317 194.379V235.398L369.533 234.676V193.659L334.029 173.152Z" fill="#022445"/>
<path d="M331.313 350.276C353.033 350.276 370.641 343.035 370.641 334.104C370.641 325.172 353.033 317.931 331.313 317.931C309.593 317.931 291.985 325.172 291.985 334.104C291.985 343.035 309.593 350.276 331.313 350.276Z" fill="#0077B6"/>
<path d="M339.772 243.2C322.545 222.744 331.311 219.543 331.311 219.543C338.679 212.53 348.41 232.743 348.41 232.743L352.181 239.098L362.669 230.01L366.427 233.488C366.427 233.488 354.455 253.275 349.06 250.225C343.618 247.148 338.945 242.321 339.772 243.2Z" fill="#EA5D68"/>
<path d="M340.568 262.021L349.43 298.976L352.452 330.767C352.452 330.767 346.17 334.232 338.792 331.131C338.666 330.369 334.918 302.812 334.918 302.812L327.132 282.861L323.287 304.521L318.422 337.262C318.422 337.262 309.368 341.973 303.445 338.133C303.36 337.712 307.557 304.348 307.557 304.348L311.535 255.713C311.538 255.711 316.92 265.724 340.568 262.021Z" fill="#022445"/>
<path d="M362.187 327.032C362.177 326.981 362.081 325.519 362.07 325.47C361.524 323.225 359.153 321.949 356.947 322.633C355.052 323.219 352.003 323.844 352.003 323.844L351.787 323.901L352.451 330.767C352.451 330.767 344.798 334.326 338.938 330.978L338.792 330.939V334.82C342.63 340.636 350.933 335.869 350.933 335.869V334.691C358.433 331.888 362.941 330.702 362.187 327.032Z" fill="#022445"/>
<path d="M338.558 265C335.266 266.11 331.74 266.553 329.401 266.662C328.102 266.723 326.22 266.729 324.787 266.593C313.953 265.553 310.758 262.82 311.252 256.017C311.773 248.841 310.212 232.822 310.212 232.822C306.15 204.223 321.721 211.105 321.721 211.105C321.767 210.992 322.636 211.499 323.638 212.133C325.436 213.269 327.465 213.991 329.575 214.255C332.333 214.6 336.348 215.975 339.716 219.798C354.458 236.53 340.856 240.377 340.979 242.787C341.103 245.246 340.914 246.657 340.848 249.808C340.837 250.407 340.712 251.963 341.138 256.109C341.138 256.109 341.666 260.572 341.147 262.705C340.889 263.778 339.604 264.647 338.558 265Z" fill="#E95561"/>
<path d="M336.105 196.091C336.427 196.21 338.351 213.169 330.392 211.264C330.392 211.264 330.411 213.261 331.085 214.529C331.085 214.529 325.437 216.559 322.032 213.757C321.43 213.263 321.2 212.445 321.447 211.708C321.687 210.998 322.033 209.979 322.459 208.793C323.581 205.656 320.804 190.441 336.105 196.091Z" fill="#FBAA78"/>
<path d="M331.462 214.621L330.682 213.449C330.682 213.449 324.241 215.209 321.719 211.105C321.719 211.105 319.692 213.888 324.756 215.031C329.657 216.025 331.462 214.621 331.462 214.621Z" fill="#BC2C37"/>
<path d="M339.702 243.114C339.656 243.074 339.677 243.097 339.773 243.2C339.75 243.172 339.727 243.143 339.702 243.114C339.807 243.21 340.277 243.658 341.012 244.313C340.968 247.021 340.803 250.34 340.832 251.694C334.111 246.937 329.754 238.435 330.447 229.3C331.897 232.668 334.696 237.158 339.702 243.114Z" fill="#BC2C37"/>
<path d="M314.418 211.254C314.417 211.254 314.417 211.256 314.415 211.256C314.417 211.254 314.418 211.254 314.418 211.254Z" fill="#333333"/>
<path d="M322.047 266.354C322.886 266.473 323.832 266.503 324.786 266.595C326.219 266.733 328.103 266.725 329.4 266.664C331.739 266.555 335.264 266.112 338.557 265.002C339.309 264.747 340.187 264.224 340.715 263.552C340.715 264.808 340.715 267.225 340.715 267.225C340.715 267.225 315.043 273.4 311.607 260.319C312.559 263.358 315.264 265.086 320.64 266.047L322.047 266.354Z" fill="#101947"/>
<path d="M350.936 334.69C357.553 332.217 361.841 331.003 362.239 328.229C362.686 331.662 358.223 332.859 350.936 335.58V334.69Z" fill="#EBEDF6"/>
<path d="M350.935 335.868V336.76C350.935 336.76 342.633 341.529 338.795 335.711V334.818C342.631 340.637 350.935 335.868 350.935 335.868Z" fill="#EBEDF6"/>
<path d="M326.694 334.186C326.684 334.134 326.588 332.673 326.577 332.623C326.031 330.378 323.704 329.269 321.454 329.787C319.87 330.15 319.91 330.133 319.91 330.133L319.642 330.204L317.797 337.428C317.797 337.428 309.307 341.481 303.447 338.131L303.301 338.093V341.973C307.139 347.79 315.442 343.023 315.442 343.023V341.845C322.94 339.041 327.448 337.855 326.694 334.186Z" fill="#022445"/>
<path d="M315.441 341.843C322.058 339.37 326.346 338.156 326.745 335.383C327.191 338.815 322.729 340.012 315.441 342.734V341.843Z" fill="#EBEDF6"/>
<path d="M315.441 343.021V343.913C315.441 343.913 307.139 348.682 303.301 342.864V341.971C307.139 347.79 315.441 343.021 315.441 343.021Z" fill="#EBEDF6"/>
<path d="M332.173 204.706C331.608 204.805 331.664 198.169 328.718 206.391C325.773 214.613 321.237 209.756 321.705 208.73C322.172 207.703 319.456 204.246 319.46 203.842C319.464 203.438 313.352 198.004 319.546 190.391C322.249 187.07 333.192 187.413 334.816 185.481C336.44 183.548 342.933 194.157 333.501 197.732C333.502 197.729 334.01 204.38 332.173 204.706Z" fill="#022445"/>
<path d="M345.437 328.274L342.118 302.249C341.679 300.886 334.323 277.968 334.194 277.455L334.874 277.284C334.991 277.738 340.107 293.69 342.794 302.065L342.807 302.129L346.132 328.185L345.437 328.274Z" fill="white"/>
<path d="M311.958 335.63L311.263 335.532L315.522 305.71L318.075 280.019L318.772 280.09L316.217 305.802L311.958 335.63Z" fill="white"/>
<path d="M365.132 224.328C364.954 225.021 364.523 226.754 364.686 228.47L363.205 230.587L366.141 233.302L367.384 231.705C367.384 231.705 374.597 230.219 368.805 223.063L367.078 226.741C366.938 227.04 366.49 226.942 366.486 226.611L366.469 224.502C366.461 223.711 365.327 223.561 365.132 224.328Z" fill="#FBAA78"/>
<path d="M196.676 240.531L149.664 266.168L247.855 325.862L294.832 300.242L196.676 240.531Z" fill="white"/>
<path d="M196.698 239.613L296.422 300.278L247.833 326.776L148.071 266.128L196.698 239.613ZM293.241 300.206L196.654 241.448L151.255 266.206L247.877 324.945L293.241 300.206Z" fill="#0077B6"/>
<path opacity="0.7" d="M247.857 325.862C247.857 325.862 253.66 320.794 247.688 316.903C241.717 313.011 249.898 299.732 243.768 293.334C238.664 288.007 212.607 302.49 211.779 294.42C210.952 286.349 217.119 274.461 206.332 274.846C195.544 275.231 188.647 281.741 184.545 275.731C180.442 269.721 185.236 267.242 178.073 263.864C172.134 261.062 155.534 263.257 149.668 266.17L247.857 325.862Z" fill="#0077B6"/>
<path opacity="0.57" d="M247.857 325.862L265.479 316.251C265.479 316.251 258.362 306.407 238.778 313.513C219.195 320.618 229.896 294.621 222.166 288.846C214.235 282.922 199.24 297.133 195.908 288.503C192.575 279.873 191.336 244.83 184.608 247.113C183.549 247.691 149.666 266.17 149.666 266.17L247.857 325.862Z" fill="#0077B6"/>
<path d="M247.835 326.778L247.856 326.766L247.877 326.778L293.241 302.039L293.222 302.025L296.422 300.28V302.113L247.835 328.613L148.073 267.964V266.132L247.835 326.778Z" fill="#022445"/>
<path d="M233.963 328.224L194.536 351.302C192.942 352.235 192.958 354.543 194.563 355.455L234.283 378.028C235.509 378.725 237.012 378.715 238.23 378.003L277.629 354.939C279.222 354.007 279.207 351.701 277.604 350.787L237.914 328.197C236.687 327.502 235.181 327.511 233.963 328.224Z" fill="#0077B6"/>
<path d="M234.107 329.911L197.351 351.427C195.865 352.296 195.88 354.447 197.376 355.298L234.404 376.342C235.547 376.992 236.949 376.982 238.083 376.319L274.811 354.819C276.296 353.949 276.282 351.799 274.788 350.948L237.788 329.888C236.644 329.237 235.242 329.247 234.107 329.911Z" fill="white"/>
<path d="M243.376 352.692C246.915 352.508 249.68 350.362 249.552 347.897C249.424 345.433 246.452 343.584 242.913 343.767C239.374 343.951 236.609 346.097 236.737 348.562C236.864 351.026 239.837 352.876 243.376 352.692Z" fill="#0077B6"/>
<path d="M214.298 353.679C216.841 351.042 221.032 349.203 225.851 348.952C233.95 348.531 240.753 352.764 241.046 358.404C241.203 361.442 239.437 364.269 236.511 366.297L214.298 353.679Z" fill="#0077B6"/>
<path d="M163.105 377.227L188.331 362.658C190.361 361.484 192.864 361.486 194.892 362.66L237.064 387.075C238.889 388.133 238.887 390.77 237.058 391.821L211.861 406.301C209.837 407.465 207.345 407.465 205.321 406.299L163.107 381.973C161.28 380.92 161.278 378.282 163.105 377.227Z" fill="#0077B6"/>
<path d="M237.33 391.641L200.186 388.929C196.34 388.648 193.129 385.811 192.376 382.029L188.505 362.558C188.505 362.558 188.821 362.39 188.976 362.328C189.181 362.231 189.472 362.135 189.472 362.135L193.387 381.829C194.048 385.158 196.875 387.656 200.261 387.903L238.15 390.663C238.15 390.663 238.001 390.967 237.782 391.222C237.597 391.459 237.33 391.641 237.33 391.641Z" fill="white"/>
<path d="M210.998 389.72L214.518 404.772L215.453 404.236L212.076 389.799L210.998 389.72Z" fill="white"/>
<path d="M191.367 376.951L166.302 375.379L164.688 376.312L191.576 377.999L191.367 376.951Z" fill="white"/>
<path d="M238.07 388.079L238.066 388.077C238.07 388.082 238.073 388.086 238.075 388.092C238.075 388.088 238.073 388.082 238.07 388.079Z" fill="#022445"/>
<path d="M238.126 388.186C238.758 389.416 238.404 391.046 237.059 391.821L211.864 406.3C209.84 407.465 207.348 407.465 205.324 406.299L163.11 381.973C162.093 381.387 161.643 380.311 161.756 379.29C161.392 380.966 161.702 383.231 163.11 384.042L205.324 408.367C207.348 409.533 209.84 409.533 211.864 408.369L237.059 393.89C238.85 392.857 239.009 389.85 238.126 388.186Z" fill="#022445"/>
<path d="M162.251 377.997L162.249 377.999C162.245 378.005 162.243 378.01 162.24 378.016C162.243 378.01 162.245 378.003 162.251 377.997Z" fill="#022445"/>
<path d="M301.135 352.132L353.234 380.542L302.557 411.414L250.496 383.023L301.135 352.132Z" fill="#0077B6"/>
<path d="M301.241 356.395L345.845 380.72L302.457 407.151L257.883 382.844L301.241 356.395Z" fill="white"/>
<path d="M290.845 381.249L303.168 387.97C303.624 388.219 304.193 388.017 304.392 387.539L308.14 378.514C308.401 377.89 307.88 377.219 307.209 377.315L291.138 379.619C290.309 379.738 290.108 380.847 290.845 381.249Z" fill="#0077B6"/>
<path d="M302.556 411.414L250.496 383.023V384.965L302.556 413.356L353.234 382.484V380.542L302.556 411.414Z" fill="#022445"/>
<path d="M134.288 109.549L101.509 128.543C100.411 129.179 99.7354 130.353 99.7354 131.621L99.7373 154.215C99.7373 156.957 102.708 158.668 105.081 157.291L128.533 143.669C135.38 144.307 137.766 144.658 137.766 144.658L135.66 139.533L137.856 138.27C138.954 137.635 139.628 136.462 139.628 135.193V112.627C139.63 109.887 136.659 108.174 134.288 109.549Z" fill="white"/>
<path d="M99.7374 154.215L99.7354 131.621C99.7354 130.351 100.412 129.179 101.509 128.543L134.288 109.549C135.098 109.08 135.978 108.971 136.786 109.14C135.708 108.086 133.99 107.74 132.505 108.599L99.7259 127.593C98.6284 128.229 97.9524 129.403 97.9524 130.671L97.9543 153.265C97.9543 155.519 100.745 157.794 103.055 157.768C101.296 157.643 99.7393 156.201 99.7374 154.215Z" fill="#0077B6"/>
<path d="M121.829 127.17C122.995 124.918 122.67 122.433 121.101 121.621C119.533 120.808 117.316 121.975 116.149 124.227C114.982 126.479 115.308 128.964 116.876 129.776C118.444 130.589 120.662 129.422 121.829 127.17Z" fill="#0077B6"/>
<path d="M111.94 145.483C111.232 142.959 111.613 139.705 113.201 136.641C115.87 131.487 120.944 128.817 124.533 130.675C126.466 131.676 127.573 133.789 127.766 136.33L111.94 145.483Z" fill="#0077B6"/>
<path d="M185.315 84.726L152.535 103.719C151.438 104.355 150.762 105.529 150.762 106.797L150.764 129.391C150.764 132.134 153.734 133.844 156.107 132.467L179.559 118.846C186.406 119.484 188.793 119.834 188.793 119.834L186.686 114.709L188.883 113.447C189.98 112.811 190.654 111.639 190.654 110.369V87.8038C190.656 85.0631 187.686 83.3528 185.315 84.726Z" fill="white"/>
<path d="M150.763 129.393L150.761 106.799C150.761 105.529 151.437 104.357 152.534 103.722L185.314 84.728C186.124 84.2588 187.003 84.1496 187.811 84.3182C186.733 83.2648 185.015 82.9181 183.53 83.7781L150.751 102.772C149.654 103.407 148.978 104.581 148.978 105.849L148.979 128.443C148.979 130.698 151.77 132.973 154.08 132.946C152.322 132.822 150.764 131.378 150.763 129.393Z" fill="#0077B6"/>
<path d="M171.582 102.256C172.815 99.847 176.048 95.3212 179.457 97.202C182.866 99.0828 179.457 105.665 179.457 105.665L171.582 119.419L162.412 113.893C162.412 113.893 160.002 109.72 164.233 104.783C166.459 102.189 169.054 101.433 171.582 102.256Z" fill="#EA5D68"/>
<path d="M150.765 177.32L150.763 154.726C150.763 153.456 151.439 152.284 152.536 151.648L185.316 132.655C186.126 132.186 187.005 132.077 187.813 132.245C186.735 131.192 185.017 130.845 183.532 131.705L150.753 150.698C149.656 151.334 148.98 152.508 148.98 153.776L148.982 176.37C148.982 178.625 151.772 180.9 154.082 180.873C152.324 180.749 150.767 179.304 150.765 177.32Z" fill="#0077B6"/>
<path d="M185.317 132.653L152.537 151.646C151.44 152.282 150.764 153.456 150.764 154.724L150.766 177.318C150.766 180.061 153.736 181.771 156.109 180.394L179.561 166.773C186.408 167.411 188.795 167.761 188.795 167.761L186.688 162.636L188.885 161.374C189.982 160.738 190.656 159.566 190.656 158.296V135.731C190.658 132.99 187.688 131.28 185.317 132.653Z" fill="white"/>
<path d="M165.468 155.795V170.674L162.76 172.205V157.375L165.468 155.795Z" fill="#0077B6"/>
<path d="M167.039 154.853V169.732L175.564 164.818C178.276 163.255 179.946 160.363 179.946 157.233V150.089C179.946 148.866 178.609 148.111 177.561 148.743L172.409 151.855L172.365 146.246C172.365 144.171 169.609 143.392 168.562 145.181C167.608 146.811 169.111 151.624 167.039 154.853Z" fill="#0077B6"/>
<path d="M185.315 84.726L152.535 103.719C151.438 104.355 150.762 105.529 150.762 106.797L150.764 129.391C150.764 132.134 153.734 133.844 156.107 132.467L179.559 118.846C186.406 119.484 188.793 119.834 188.793 119.834L186.686 114.709L188.883 113.447C189.98 112.811 190.654 111.639 190.654 110.369V87.8038C190.656 85.0631 187.686 83.3528 185.315 84.726Z" fill="white"/>
<path d="M150.763 129.393L150.761 106.799C150.761 105.529 151.437 104.357 152.534 103.722L185.314 84.728C186.124 84.2588 187.003 84.1496 187.811 84.3182C186.733 83.2648 185.015 82.9181 183.53 83.7781L150.751 102.772C149.654 103.407 148.978 104.581 148.978 105.849L148.979 128.443C148.979 130.698 151.77 132.973 154.08 132.946C152.322 132.822 150.764 131.378 150.763 129.393Z" fill="#0077B6"/>
<path d="M171.582 102.256C172.815 99.847 176.048 95.3212 179.457 97.202C182.866 99.0828 179.457 105.665 179.457 105.665L171.582 119.419L162.412 113.893C162.412 113.893 160.002 109.72 164.233 104.783C166.459 102.189 169.054 101.433 171.582 102.256Z" fill="#EA5D68"/>
<path d="M185.315 37.3849L152.535 56.3784C151.438 57.0142 150.762 58.1883 150.762 59.4562L150.764 82.0503C150.764 84.7929 153.734 86.5032 156.107 85.1262L179.559 71.5049C186.406 72.1427 188.793 72.4932 188.793 72.4932L186.686 67.368L188.883 66.1059C189.98 65.47 190.654 64.2979 190.654 63.0281V40.4627C190.656 37.722 187.686 36.0097 185.315 37.3849Z" fill="white"/>
<path d="M150.763 82.0504L150.761 59.4563C150.761 58.1865 151.437 57.0144 152.534 56.3785L185.314 37.385C186.124 36.9158 187.003 36.8066 187.811 36.9752C186.733 35.9218 185.015 35.5751 183.53 36.4351L150.751 55.4285C149.654 56.0644 148.978 57.2384 148.978 58.5063L148.979 81.1004C148.979 83.3547 151.77 85.63 154.08 85.6032C152.322 85.4806 150.764 84.0365 150.763 82.0504Z" fill="#0077B6"/>
<path d="M162.88 74.7744C163.688 75.234 164.596 75.4619 165.574 75.4619C167.206 75.4619 169.035 74.828 170.933 73.5812C173.775 71.71 176.485 68.6705 178.56 65.0181C180.621 61.3906 181.929 57.3667 182.149 53.9806C182.39 50.2631 181.339 47.5415 179.19 46.3215C177.035 45.0977 174.109 45.5841 170.949 47.6909C168.037 49.633 165.191 52.818 163.142 56.4244C161.074 60.0672 159.863 63.9322 159.737 67.3068C159.601 70.8941 160.717 73.5467 162.88 74.7744ZM168.87 51.1039C167.74 53.2509 166.296 56.4091 165.498 59.7876C165.471 59.9025 165.446 60.0174 165.419 60.1304L161.928 62.5187C162.477 60.7165 163.274 58.8721 164.295 57.0794C165.613 54.7658 167.202 52.7299 168.87 51.1039ZM161.064 67.3566C161.098 66.4316 161.225 65.4644 161.43 64.4723L165.09 61.969C164.827 63.8536 164.841 65.5908 165.138 67.1479C165.243 67.7033 165.387 68.2376 165.563 68.749L161.675 71.4093C161.215 70.3253 161.003 68.9578 161.064 67.3566ZM167.191 69.2431L173.515 64.9166C172.619 67.2475 171.368 69.7641 169.771 72.4397C168.643 71.5548 167.783 70.4881 167.191 69.2431ZM166.702 67.9676C166.101 65.9911 166.068 63.6372 166.611 60.9252L175.038 55.1584C175.407 57.3188 175.139 59.8891 174.247 62.8041L166.702 67.9676ZM171.425 49.6272C172.329 50.1482 173.896 51.3624 174.697 53.7833L167.076 58.9985C168.246 54.8367 170.305 51.1575 171.188 49.6904C171.238 49.6081 171.343 49.5813 171.425 49.6272ZM180.396 49.8839L175.83 53.0076C174.877 50.4527 173.174 49.1159 172.142 48.5087C173.718 47.5358 175.254 46.9938 176.587 46.9938C177.301 46.9938 177.958 47.1489 178.531 47.4745C179.383 47.9571 180.01 48.7788 180.396 49.8839ZM180.822 53.8925C180.718 55.4879 180.354 57.2403 179.772 59.0234L175.961 61.6301C176.62 58.897 176.71 56.4627 176.227 54.3425L180.732 51.2609C180.852 52.05 180.885 52.9291 180.822 53.8925ZM172.138 70.9764C173.576 68.3468 174.664 65.8953 175.398 63.6276L178.964 61.1876C178.514 62.2602 177.991 63.327 177.403 64.3612C175.94 66.9391 174.088 69.2527 172.138 70.9764ZM162.338 72.5642L166.086 69.9997C166.72 71.2714 167.606 72.3784 168.738 73.3092C166.723 74.2841 164.912 74.4028 163.537 73.6195C163.073 73.3571 162.675 73.0009 162.338 72.5642Z" fill="#0077B6"/>
<path d="M165.095 189.642L157.298 202.791C156.754 203.706 157.057 204.888 157.97 205.432L177.797 217.193C178.714 217.739 179.9 217.435 180.444 216.515L188.235 203.323C188.777 202.408 188.472 201.226 187.557 200.684L167.738 188.966C166.82 188.424 165.639 188.727 165.095 189.642Z" fill="#022445"/>
<path d="M165.787 191.217L158.989 202.68C158.516 203.478 158.779 204.509 159.576 204.982L177.339 215.517C178.14 215.992 179.172 215.728 179.645 214.928L186.437 203.426C186.908 202.628 186.644 201.597 185.845 201.124L168.087 190.627C167.29 190.156 166.26 190.418 165.787 191.217Z" fill="#CAE9F8"/>
<path d="M156.697 205.271L158.021 203.344C159.836 202.486 160.838 200.745 161.48 199.835C161.64 199.607 161.562 199.289 161.313 199.163C160.216 198.611 158.905 200.178 158.905 200.178L161.143 196.269C161.143 196.269 154.671 192.77 154.422 201.314L154.029 201.906C154.431 202.415 154.805 202.913 155.15 203.396C155.69 203.997 156.209 204.629 156.697 205.271Z" fill="#FBAA78"/>
<path d="M145.22 347.635C160.578 347.635 173.029 341.211 173.029 333.286C173.029 325.361 160.578 318.937 145.22 318.937C129.861 318.937 117.41 325.361 117.41 333.286C117.41 341.211 129.861 347.635 145.22 347.635Z" fill="#0077B6"/>
<path d="M157.645 227.237C139.372 205.537 148.669 202.141 148.669 202.141C156.485 194.701 166.806 216.144 166.806 216.144L170.805 222.885L181.931 213.244L185.916 216.933C185.916 216.933 173.216 237.92 167.493 234.685C161.723 231.424 156.766 226.304 157.645 227.237Z" fill="#022445"/>
<path d="M158.642 247.242V336.442C158.642 336.442 149.481 340.7 143.266 337.147C143.044 335.816 142.295 267.225 142.295 267.225L141.334 328.118C141.334 328.118 132.733 334.058 126.682 327.785C126.46 326.674 127.849 240.55 127.849 240.55C127.849 240.55 133.558 251.17 158.642 247.242Z" fill="#022445"/>
<path d="M156.357 250.362C152.865 251.539 149.123 252.009 146.643 252.125C145.266 252.191 143.268 252.198 141.747 252.051C130.254 250.948 126.866 248.048 127.389 240.831C127.94 233.218 126.286 216.228 126.286 216.228C121.976 185.893 138.493 193.192 138.493 193.192C138.541 193.071 139.464 193.611 140.527 194.281C142.435 195.486 144.586 196.252 146.827 196.532C149.751 196.898 154.011 198.355 157.585 202.412C173.221 220.158 158.793 224.241 158.923 226.796C159.055 229.405 158.854 230.903 158.785 234.245C158.772 234.881 158.642 236.53 159.092 240.929C159.092 240.929 159.651 245.662 159.101 247.925C158.828 249.063 157.466 249.988 156.357 250.362Z" fill="#022445"/>
<path d="M153.554 262.822H153.311V333.389H153.554V262.822Z" fill="white"/>
<path d="M137.55 264.397L136.264 327.136L136.507 327.141L137.793 264.402L137.55 264.397Z" fill="white"/>
<path d="M153.754 177.266C154.097 177.393 156.136 195.381 147.694 193.36C147.694 193.36 147.713 195.48 148.429 196.823C148.429 196.823 142.438 198.977 138.826 196.005C138.189 195.48 137.945 194.614 138.208 193.831C138.46 193.077 138.83 191.996 139.28 190.74C140.468 187.411 137.524 171.273 153.754 177.266Z" fill="#FBAA78"/>
<path d="M185.333 216.391L182.368 213.755L183.695 210.327C183.895 209.814 184.352 209.444 184.896 209.354L187.33 208.954L191.481 204.56C191.481 204.56 192.463 204.65 192.011 205.273C191.561 205.895 188.625 209.797 188.625 209.797C188.625 209.797 191.157 212.604 189.577 214.073C188.784 214.811 187.997 215.129 187.518 215.265C187.17 215.364 186.846 215.531 186.562 215.757L185.333 216.391Z" fill="#FBAA78"/>
<path d="M148.827 196.922L148.002 195.679C148.002 195.679 141.17 197.545 138.495 193.193C138.495 193.193 136.346 196.147 141.718 197.359C146.914 198.412 148.827 196.922 148.827 196.922Z" fill="#022445"/>
<path d="M157.569 227.145C157.521 227.101 157.542 227.126 157.646 227.235C157.619 227.206 157.594 227.176 157.569 227.145C157.682 227.246 158.178 227.721 158.96 228.417C158.912 231.289 158.738 234.81 158.768 236.246C151.64 231.199 147.016 222.181 147.754 212.491C149.292 216.065 152.258 220.826 157.569 227.145Z" fill="#022445"/>
<path d="M130.75 193.35C130.748 193.35 130.748 193.352 130.746 193.352C130.748 193.35 130.75 193.35 130.75 193.35C130.75 193.349 130.75 193.35 130.75 193.35Z" fill="#333333"/>
<path d="M121.718 222.481L122.043 215.006C122.204 202.208 126.607 196.526 129.555 194.182C126.546 196.765 124.382 202.819 126.288 216.228C126.288 216.228 127.824 226.76 127.701 234.402L122.922 226.951C122.068 225.622 121.649 224.061 121.718 222.481Z" fill="#022445"/>
<path d="M125.696 210.71C125.81 212.395 126.002 214.23 126.287 216.228C126.287 216.228 127.325 223.341 127.626 230.117C124.382 224.025 125.696 210.71 125.696 210.71Z" fill="#022445"/>
<path d="M138.843 251.796C139.731 251.922 140.735 251.955 141.748 252.051C143.267 252.196 145.266 252.189 146.643 252.125C149.124 252.009 152.864 251.539 156.357 250.361C157.156 250.091 158.087 249.538 158.646 248.824C158.646 250.157 158.646 252.719 158.646 252.719C158.646 252.719 131.415 259.269 127.771 245.393C128.78 248.619 131.649 250.45 137.351 251.468L138.843 251.796Z" fill="#101947"/>
<path d="M141.333 328.118L141.457 320.184L142.417 319.927C142.417 319.927 142.605 319.921 142.934 319.885C142.993 324.081 143.051 327.818 143.101 330.731C141.999 331.137 140.808 331.568 139.534 332.045V333.295C139.534 333.295 130.726 338.353 126.656 332.183V326.203C126.656 327.153 126.664 327.703 126.681 327.785C132.731 334.056 141.333 328.118 141.333 328.118Z" fill="#022445"/>
<path d="M126.666 324.131C126.66 324.949 126.658 325.644 126.658 326.201V324.133L126.666 324.131Z" fill="#022445"/>
<path d="M143.266 336.201C149.48 339.753 158.641 335.496 158.641 335.496V328.08L158.871 328.019C158.871 328.019 160.355 327.971 162.366 327.348C164.707 326.624 167.221 327.977 167.802 330.357C167.815 330.411 167.915 331.962 167.926 332.016C168.727 335.908 163.944 337.166 155.99 340.138V341.389C155.99 341.389 147.182 346.447 143.112 340.276V332.226L143.149 332.217C143.195 334.575 143.235 336.019 143.266 336.201Z" fill="#022445"/>
<path d="M155.989 340.138C163.009 337.515 167.557 336.227 167.979 333.288C168.452 336.928 163.717 338.196 155.989 341.085V340.138Z" fill="#EBEDF6"/>
<path d="M155.989 341.387V342.333C155.989 342.333 147.181 347.391 143.111 341.221V340.274C147.183 346.445 155.989 341.387 155.989 341.387Z" fill="#EBEDF6"/>
<path d="M139.545 333.269V334.215C139.545 334.215 130.737 339.273 126.667 333.102V332.156C130.737 338.327 139.545 333.269 139.545 333.269Z" fill="#EBEDF6"/>
<path d="M143.121 331.648C142.018 332.054 140.822 332.487 139.547 332.964V332.018C140.817 331.543 142.006 331.112 143.105 330.708C143.109 331.032 143.115 331.346 143.121 331.648Z" fill="#EBEDF6"/>
<path d="M149.585 186.406C148.987 186.511 149.045 179.473 145.921 188.193C142.797 196.915 137.984 191.761 138.482 190.673C138.978 189.583 136.098 185.917 136.102 185.488C136.105 185.059 129.622 179.296 136.192 171.22C139.057 167.698 150.667 168.06 152.389 166.01C154.111 163.961 160.998 175.213 150.993 179.005C150.993 179.003 151.533 186.059 149.585 186.406Z" fill="#022445"/>
</svg>
