<svg width="428" height="385" viewBox="0 0 428 385" fill="none" xmlns="http://www.w3.org/2000/svg">
<path d="M207.155 155.383L206.134 2.70937L209.29 0.859504C211.232 -0.277602 213.636 -0.287545 215.582 0.8363L411.472 113.871C415.527 116.211 418.023 120.534 418.023 125.109V272.16C418.023 274.561 416.744 276.778 414.668 277.982L410.534 280.379L213.938 167.116C209.741 164.702 207.155 160.227 207.155 155.383Z" fill="#022445"/>
<path d="M203.137 157.445V7.6092C203.137 3.35251 207.745 0.690427 211.431 2.81877L407.458 115.936C411.512 118.276 414.008 122.599 414.008 127.284V274.302C414.008 279.799 408.061 283.24 403.294 280.498L209.92 169.181C205.726 166.764 203.137 162.289 203.137 157.445Z" fill="#0077B6"/>
<path d="M207.37 155.088V14.2495C207.37 10.2216 211.729 7.70204 215.22 9.71435L404.331 119.38C408.17 121.595 410.534 125.689 410.534 130.118V268.288C410.534 273.493 404.905 276.749 400.393 274.149L213.788 166.187C209.82 163.907 207.37 159.67 207.37 155.088Z" fill="#CAE9F8"/>
<path d="M221.128 25.5344V35.1749L347.947 108.619L347.943 99.0882L221.128 25.5344Z" fill="#022445"/>
<path d="M220.469 49.2744V150.808L346.972 224.047L346.966 122.706L220.469 49.2744Z" fill="white"/>
<path d="M347.944 225.735L219.494 151.369V47.5836L347.937 122.145L347.944 225.735ZM221.44 150.248L345.998 222.36L345.991 123.266L221.44 50.9651V150.248Z" fill="#022445"/>
<path d="M336.964 208.731L228.767 145.335V64.2258H229.841V144.718L337.508 207.806L336.964 208.731Z" fill="#022445"/>
<path d="M241.832 73.4154H240.758V145.942H241.832V73.4154Z" fill="#0077B6"/>
<path d="M256.66 81.7366H255.586V154.263H256.66V81.7366Z" fill="#0077B6"/>
<path d="M271.489 89.9881H270.415V162.514H271.489V89.9881Z" fill="#0077B6"/>
<path d="M286.158 97.981H285.084V170.507H286.158V97.981Z" fill="#0077B6"/>
<path d="M300.782 107.078H299.708V179.604H300.782V107.078Z" fill="#0077B6"/>
<path d="M315.047 115.207H313.973V187.733H315.047V115.207Z" fill="#0077B6"/>
<path d="M329.263 122.855H328.188V195.381H329.263V122.855Z" fill="#0077B6"/>
<path d="M357.889 127.446V182.07C357.889 184.043 358.94 185.866 360.648 186.858L400.221 209.769C401.879 210.727 403.951 209.533 403.951 207.617V153.195C403.951 151.137 402.853 149.234 401.073 148.199L361.619 125.295C359.965 124.333 357.889 125.53 357.889 127.446Z" fill="white"/>
<path d="M401.467 210.462C400.98 210.462 400.489 210.332 400.045 210.074L360.471 187.162C358.661 186.115 357.534 184.162 357.534 182.07V127.446C357.534 126.419 358.065 125.497 358.956 124.986C359.848 124.472 360.909 124.476 361.801 124.993L401.255 147.898C403.138 148.992 404.308 151.02 404.308 153.199V207.62C404.308 208.648 403.778 209.566 402.886 210.08C402.442 210.332 401.954 210.462 401.467 210.462ZM360.375 125.311C360.011 125.311 359.646 125.407 359.311 125.6C358.641 125.984 358.244 126.674 358.244 127.446V182.07C358.244 183.91 359.235 185.628 360.826 186.549L400.399 209.46C401.066 209.848 401.865 209.848 402.531 209.464C403.197 209.079 403.599 208.39 403.599 207.617V153.195C403.599 151.269 402.564 149.472 400.9 148.508L361.446 125.603C361.108 125.407 360.74 125.311 360.375 125.311Z" fill="#022445"/>
<path d="M381.974 161.579C382.886 162.71 383.728 164.159 384.378 165.813C385.432 168.488 385.753 171.107 385.392 172.974L395.583 190.355C399.999 184.335 400.36 172.94 395.858 161.5C392.566 153.132 387.388 146.555 381.971 143.081V161.579H381.974Z" fill="#E95561"/>
<path d="M383.585 175.583C381.712 176.206 379.116 174.068 377.316 170.583L366.107 175.702C372.101 189.072 382.912 197.188 390.955 194.025C391.886 193.657 392.742 193.156 393.517 192.533L383.585 175.583Z" fill="#0077B6"/>
<path d="M376.202 167.928C374.823 163.764 375.231 159.948 377.24 159.159C377.803 158.937 378.437 158.977 379.096 159.235V141.536C375.98 140.196 372.88 139.948 370.112 141.038C361.748 144.33 359.507 158.586 365.01 173.04L376.202 167.928Z" fill="#022445"/>
<path d="M357.889 104.068V113.294L403.954 139.964L403.951 130.808L357.889 104.068Z" fill="#E95561"/>
<path d="M358.225 190.978V196.985L404.289 223.653V217.719L358.225 190.978Z" fill="#022445"/>
<path d="M357.713 205.983V236.502L403.777 263.173L403.774 232.723L357.713 205.983Z" fill="white"/>
<path d="M404.132 263.786L357.359 236.705V205.366L404.129 232.517L404.132 263.786ZM358.068 236.3L403.423 262.56L403.42 232.929L358.065 206.599V236.3H358.068Z" fill="#022445"/>
<path d="M357.713 236.502C357.713 236.502 360.74 231.602 366.803 235.753C366.803 235.753 372.853 241.091 376.911 240.434C379.321 240.043 382.477 235.329 386.167 237.295C387.997 238.269 389.084 241.826 392.671 242.433C396.169 243.023 403.781 237.348 403.781 237.348V263.173L357.713 236.502Z" fill="#022445"/>
<path d="M364.772 235.325C364.772 234.241 364.772 233.157 364.772 232.073C364.772 230.893 364.772 229.71 364.772 228.529C364.772 227.313 364.772 226.096 364.772 224.879C364.772 223.689 364.772 222.499 364.772 221.312C364.772 220.208 364.772 219.104 364.772 217.997C364.772 217.871 364.772 217.745 364.772 217.619C364.772 217.367 364.384 217.367 364.384 217.619C364.384 218.703 364.384 219.787 364.384 220.871C364.384 222.051 364.384 223.235 364.384 224.415C364.384 225.632 364.384 226.849 364.384 228.065C364.384 229.255 364.384 230.445 364.384 231.632C364.384 232.736 364.384 233.84 364.384 234.947C364.384 235.073 364.384 235.199 364.384 235.325C364.384 235.577 364.772 235.577 364.772 235.325Z" fill="#022445"/>
<path d="M373.686 240.308C373.686 239.224 373.686 238.14 373.686 237.056C373.686 235.876 373.686 234.692 373.686 233.512C373.686 232.295 373.686 231.079 373.686 229.862C373.686 228.672 373.686 227.482 373.686 226.295C373.686 225.191 373.686 224.087 373.686 222.98C373.686 222.854 373.686 222.728 373.686 222.602C373.686 222.35 373.298 222.35 373.298 222.602C373.298 223.686 373.298 224.77 373.298 225.854C373.298 227.034 373.298 228.218 373.298 229.398C373.298 230.615 373.298 231.831 373.298 233.048C373.298 234.238 373.298 235.428 373.298 236.615C373.298 237.719 373.298 238.823 373.298 239.93C373.298 240.056 373.298 240.182 373.298 240.308C373.298 240.557 373.686 240.56 373.686 240.308Z" fill="#022445"/>
<path d="M382.955 246.136C382.955 245.052 382.955 243.968 382.955 242.884C382.955 241.704 382.955 240.52 382.955 239.34C382.955 238.123 382.955 236.907 382.955 235.69C382.955 234.5 382.955 233.31 382.955 232.123C382.955 231.019 382.955 229.915 382.955 228.808C382.955 228.682 382.955 228.556 382.955 228.43C382.955 228.178 382.567 228.178 382.567 228.43C382.567 229.514 382.567 230.598 382.567 231.682C382.567 232.862 382.567 234.046 382.567 235.226C382.567 236.443 382.567 237.659 382.567 238.876C382.567 240.066 382.567 241.256 382.567 242.443C382.567 243.547 382.567 244.651 382.567 245.758C382.567 245.884 382.567 246.01 382.567 246.136C382.567 246.385 382.955 246.385 382.955 246.136Z" fill="#022445"/>
<path d="M236.299 136.172V142.938L256.339 131.408L276.243 142.938L289.733 135.343L303.166 142.938L319.632 133.281L323.399 138.85L332.777 122.016L312.956 122.778L316.463 128.491L303.103 136.285L289.733 128.597L276.296 136.268L256.339 124.738L236.299 136.172Z" fill="#022445"/>
<path d="M258.999 135.284C261.049 134.528 261.644 131.023 260.329 127.455C259.014 123.887 256.287 121.607 254.237 122.362C252.188 123.117 251.592 126.622 252.907 130.191C254.222 133.759 256.95 136.039 258.999 135.284Z" fill="#E95561"/>
<path d="M293.42 139.871C295.47 139.115 296.065 135.611 294.75 132.042C293.435 128.474 290.708 126.194 288.658 126.949C286.609 127.705 286.013 131.209 287.328 134.778C288.643 138.346 291.371 140.626 293.42 139.871Z" fill="#0077B6"/>
<path d="M278.061 145.53C280.11 144.775 280.706 141.27 279.391 137.702C278.076 134.134 275.348 131.853 273.299 132.609C271.249 133.364 270.654 136.869 271.969 140.437C273.284 144.005 276.011 146.286 278.061 145.53Z" fill="#E95561"/>
<path d="M306.541 145.532C308.591 144.776 309.186 141.271 307.871 137.703C306.556 134.135 303.829 131.855 301.779 132.61C299.73 133.365 299.134 136.87 300.449 140.439C301.764 144.007 304.492 146.287 306.541 145.532Z" fill="#E95561"/>
<path opacity="0.38" d="M381.238 105.987L376.647 103.325L238.855 180.691L243.463 183.357L381.238 105.987Z" fill="white"/>
<path opacity="0.38" d="M223.737 166.194L239.667 175.41L377.459 98.0306L358.778 87.1966L221.311 164.384C222.037 165.07 222.849 165.68 223.737 166.194Z" fill="white"/>
<path opacity="0.38" d="M395.57 114.298L390.368 111.281L252.593 188.641L257.808 191.658L395.57 114.298Z" fill="white"/>
<path d="M251.723 346.241L361.846 282.57L427.931 320.787L317.781 384.343L251.723 346.241Z" fill="#F7F7F7"/>
<path d="M401.094 315.287L363.467 293.527L364.538 292.903L402.165 314.664L401.094 315.287Z" fill="#0077B6"/>
<path d="M396.496 327.126L358.869 305.365L361.047 304.095L398.674 325.856L396.496 327.126Z" fill="#0077B6"/>
<path d="M387.634 332.125L350.007 310.368L352.185 309.098L389.812 330.859L387.634 332.125Z" fill="#0077B6"/>
<path d="M379.466 337.045L341.839 315.284L344.017 314.014L381.644 335.775L379.466 337.045Z" fill="#0077B6"/>
<path d="M371.672 341.259L334.045 319.498L336.22 318.228L373.847 339.989L371.672 341.259Z" fill="#0077B6"/>
<path d="M364.137 345.913L326.51 324.156L328.685 322.886L366.312 344.647L364.137 345.913Z" fill="#0077B6"/>
<path d="M355.179 351.539L317.552 329.778L319.73 328.508L357.357 350.269L355.179 351.539Z" fill="#0077B6"/>
<path d="M346.318 356.538L308.691 334.781L310.869 333.511L348.497 355.272L346.318 356.538Z" fill="#0077B6"/>
<path d="M338.149 361.458L300.522 339.697L302.7 338.431L340.327 360.188L338.149 361.458Z" fill="#0077B6"/>
<path d="M330.355 365.672L292.728 343.911L294.906 342.644L332.533 364.402L330.355 365.672Z" fill="#0077B6"/>
<path d="M322.82 370.329L285.193 348.569L287.371 347.299L324.998 369.06L322.82 370.329Z" fill="#0077B6"/>
<path d="M220.02 334.161L330.143 270.486L396.228 308.704L286.078 372.259L220.02 334.161Z" fill="white"/>
<path d="M365.638 300.538L328.011 278.781L329.682 277.902L367.309 299.66L365.638 300.538Z" fill="#0077B6"/>
<path d="M363.825 312.669L326.197 290.908L328.375 289.638L366.003 311.399L363.825 312.669Z" fill="#0077B6"/>
<path d="M322.618 289.336L316.362 285.965L322.171 282.58L328.426 285.951L322.618 289.336ZM317.828 285.941L322.605 288.517L326.964 285.978L322.187 283.402L317.828 285.941Z" fill="#0077B6"/>
<path d="M313.571 294.498L307.315 291.126L313.124 287.742L319.379 291.113L313.571 294.498ZM308.781 291.103L313.558 293.679L317.917 291.14L313.14 288.564L308.781 291.103Z" fill="#0077B6"/>
<path d="M304.158 299.71L297.902 296.338L303.711 292.953L309.966 296.325L304.158 299.71ZM299.364 296.311L304.142 298.887L308.501 296.348L303.724 293.772L299.364 296.311Z" fill="#0077B6"/>
<path d="M296.01 304.533L289.755 301.162L295.563 297.777L301.819 301.148L296.01 304.533ZM291.217 301.135L295.994 303.711L300.353 301.172L295.576 298.596L291.217 301.135Z" fill="#0077B6"/>
<path d="M287.215 309.532L280.96 306.161L286.768 302.776L293.024 306.147L287.215 309.532ZM282.425 306.138L287.202 308.713L291.562 306.174L286.785 303.598L282.425 306.138Z" fill="#0077B6"/>
<path d="M354.964 317.671L317.337 295.91L319.515 294.641L357.142 316.401L354.964 317.671Z" fill="#0077B6"/>
<path d="M346.795 322.587L309.168 300.827L311.346 299.56L348.973 321.318L346.795 322.587Z" fill="#0077B6"/>
<path d="M339.001 326.801L301.374 305.04L303.549 303.774L341.176 325.531L339.001 326.801Z" fill="#0077B6"/>
<path d="M331.465 331.459L293.838 309.698L296.013 308.428L333.64 330.189L331.465 331.459Z" fill="#0077B6"/>
<path d="M320.688 284.768L320.894 285.948L325.399 285.706L320.43 286.495L320.688 284.768Z" fill="#0077B6"/>
<path d="M311.893 290.039L312.095 291.219L316.604 290.977L311.631 291.766L311.893 290.039Z" fill="#0077B6"/>
<path d="M302.422 295.237L302.627 296.421L307.133 296.175L302.163 296.964L302.422 295.237Z" fill="#0077B6"/>
<path d="M294.325 300.031L294.528 301.211L299.036 300.969L294.063 301.758L294.325 300.031Z" fill="#0077B6"/>
<path d="M285.308 305.312L285.514 306.496L290.023 306.25L285.05 307.039L285.308 305.312Z" fill="#0077B6"/>
<path d="M239.003 247.297C252.861 247.297 264.095 241.501 264.095 234.351C264.095 227.202 252.861 221.406 239.003 221.406C225.145 221.406 213.91 227.202 213.91 234.351C213.91 241.501 225.145 247.297 239.003 247.297Z" fill="#0077B6"/>
<path d="M188.771 264.009C203.559 264.009 215.548 257.824 215.548 250.195C215.548 242.565 203.559 236.38 188.771 236.38C173.982 236.38 161.994 242.565 161.994 250.195C161.994 257.824 173.982 264.009 188.771 264.009Z" fill="#0077B6"/>
<path d="M239.002 236.536C251.795 236.536 262.165 230.567 262.165 223.203C262.165 215.839 251.795 209.869 239.002 209.869C226.209 209.869 215.839 215.839 215.839 223.203C215.839 230.567 226.209 236.536 239.002 236.536Z" fill="#E95561"/>
<path d="M262.163 223.103C262.163 223.05 262.163 223.02 262.163 223.02C262.163 223.02 262.163 223.02 262.159 223.02C262.163 223.043 262.163 223.073 262.163 223.103Z" fill="#F2B5A7"/>
<path d="M262.162 223.302C262.073 230.622 251.739 236.54 239.002 236.54C226.226 236.54 215.869 230.585 215.839 223.236C215.839 223.932 215.839 227.373 215.839 229.581C215.839 236.944 226.209 242.915 239.002 242.915C251.796 242.915 262.165 236.944 262.165 229.581C262.165 227.267 262.162 224.23 262.162 223.302Z" fill="#BC2C37"/>
<path d="M239.002 233.075C248.47 233.075 256.145 228.892 256.145 223.733C256.145 218.573 248.47 214.391 239.002 214.391C229.535 214.391 221.859 218.573 221.859 223.733C221.859 228.892 229.535 233.075 239.002 233.075Z" fill="#F08891"/>
<path d="M248.116 227.459L245.988 228.686L244.751 227.976C244.751 227.976 240.939 229.594 239.765 229.78L236.205 227.708C236.205 227.708 243.017 226.345 243.713 224.9C244.41 223.454 240.793 224.134 239.841 224.353C237.527 224.887 233.098 226.79 230.453 223.932C228.507 221.827 230.758 219.625 230.758 219.625L229.491 218.966L231.507 217.855L232.724 218.525C232.724 218.525 235.2 216.9 238.084 216.695L241.244 218.435C241.244 218.435 232.545 220.093 234.126 221.866C234.126 221.866 235.134 222.732 237.972 221.631C240.65 220.938 245.245 219.49 247.983 222.622C248.527 223.246 248.733 224.595 248.222 225.44C247.877 226.014 247.811 226.243 246.932 226.733L248.116 227.459Z" fill="#BC2C37"/>
<path d="M239.002 214.391C248.311 214.391 255.89 218.435 256.138 223.474C256.142 223.385 256.145 223.295 256.145 223.203C256.145 217.752 248.47 213.333 239.002 213.333C229.534 213.333 221.859 217.752 221.859 223.203C221.859 223.292 221.863 223.385 221.866 223.474C222.115 218.435 229.693 214.391 239.002 214.391Z" fill="#BC2C37"/>
<path d="M217.235 234.129V227.768C216.691 226.906 216.296 226.004 216.068 225.072V231.434C216.293 232.366 216.688 233.271 217.235 234.129Z" fill="#E95561"/>
<path d="M219.571 236.825V230.463C219.15 230.091 218.762 229.707 218.404 229.309V235.671C218.759 236.069 219.15 236.453 219.571 236.825Z" fill="#E95561"/>
<path d="M221.909 238.565V232.2C221.505 231.945 221.114 231.679 220.742 231.408V237.769C221.114 238.045 221.501 238.31 221.909 238.565Z" fill="#E95561"/>
<path d="M224.246 239.845V233.483C223.845 233.291 223.457 233.095 223.079 232.889V239.251C223.457 239.457 223.845 239.656 224.246 239.845Z" fill="#E95561"/>
<path d="M226.583 240.823V234.458C226.185 234.312 225.797 234.159 225.416 234V240.362C225.797 240.524 226.185 240.68 226.583 240.823Z" fill="#E95561"/>
<path d="M228.921 241.575V235.213C228.526 235.104 228.139 234.985 227.754 234.865V241.227C228.139 241.347 228.526 241.466 228.921 241.575Z" fill="#E95561"/>
<path d="M231.258 242.136V235.77C230.864 235.691 230.476 235.605 230.091 235.512V241.877C230.476 241.97 230.864 242.056 231.258 242.136Z" fill="#E95561"/>
<path d="M233.596 242.537V236.172C233.205 236.118 232.813 236.059 232.429 235.992V242.358C232.817 242.421 233.205 242.48 233.596 242.537Z" fill="#E95561"/>
<path d="M235.933 242.785V236.42C235.541 236.39 235.154 236.354 234.766 236.314V242.676C235.154 242.719 235.541 242.755 235.933 242.785Z" fill="#E95561"/>
<path d="M238.27 242.895V236.53C237.879 236.523 237.491 236.51 237.103 236.493V242.858C237.491 242.875 237.879 242.888 238.27 242.895Z" fill="#E95561"/>
<path d="M240.607 242.868V236.503C240.222 236.52 239.831 236.53 239.44 236.533V242.898C239.834 242.895 240.222 242.885 240.607 242.868Z" fill="#E95561"/>
<path d="M242.944 242.709V236.344C242.56 236.38 242.172 236.414 241.777 236.44V242.805C242.172 242.779 242.56 242.745 242.944 242.709Z" fill="#E95561"/>
<path d="M245.285 242.404V236.039C244.901 236.102 244.513 236.158 244.118 236.208V242.573C244.509 242.523 244.901 242.467 245.285 242.404Z" fill="#E95561"/>
<path d="M247.621 241.947V235.585C247.237 235.674 246.849 235.757 246.454 235.833V242.195C246.849 242.119 247.237 242.036 247.621 241.947Z" fill="#E95561"/>
<path d="M249.959 241.317V234.952C249.578 235.071 249.187 235.18 248.792 235.286V241.651C249.187 241.549 249.574 241.436 249.959 241.317Z" fill="#E95561"/>
<path d="M252.336 240.471V234.103C251.955 234.255 251.567 234.405 251.169 234.544V240.912C251.567 240.773 251.955 240.627 252.336 240.471Z" fill="#E95561"/>
<path d="M254.633 239.407V233.045C254.255 233.244 253.867 233.436 253.466 233.619V239.981C253.867 239.795 254.255 239.606 254.633 239.407Z" fill="#E95561"/>
<path d="M256.971 237.982V231.62C256.599 231.882 256.212 232.137 255.804 232.382V238.744C256.212 238.499 256.599 238.243 256.971 237.982Z" fill="#E95561"/>
<path d="M259.308 235.986V229.624C258.95 229.999 258.558 230.363 258.141 230.715V237.08C258.558 236.725 258.95 236.36 259.308 235.986Z" fill="#E95561"/>
<path d="M261.645 232.382V226.021C261.364 226.773 260.972 227.502 260.478 228.205V234.567C260.972 233.868 261.364 233.135 261.645 232.382Z" fill="#E95561"/>
<path d="M188.771 253.381C201.563 253.381 211.934 247.411 211.934 240.047C211.934 232.683 201.563 226.713 188.771 226.713C175.978 226.713 165.608 232.683 165.608 240.047C165.608 247.411 175.978 253.381 188.771 253.381Z" fill="#E95561"/>
<path d="M211.93 239.944C211.93 239.891 211.93 239.861 211.93 239.861C211.93 239.861 211.93 239.861 211.927 239.861C211.93 239.888 211.93 239.918 211.93 239.944Z" fill="#F2B5A7"/>
<path d="M211.931 240.143C211.841 247.463 201.508 253.381 188.771 253.381C175.994 253.381 165.638 247.427 165.608 240.077C165.608 240.773 165.608 244.214 165.608 246.422C165.608 253.785 175.978 259.756 188.771 259.756C201.564 259.756 211.934 253.785 211.934 246.422C211.934 244.111 211.934 241.075 211.931 240.143Z" fill="#BC2C37"/>
<path d="M188.771 249.916C198.239 249.916 205.914 245.734 205.914 240.574C205.914 235.415 198.239 231.232 188.771 231.232C179.303 231.232 171.628 235.415 171.628 240.574C171.628 245.734 179.303 249.916 188.771 249.916Z" fill="#F08891"/>
<path d="M197.885 244.304L195.756 245.53L194.52 244.821C194.52 244.821 190.707 246.439 189.534 246.624L185.973 244.552C185.973 244.552 192.786 243.19 193.482 241.744C194.178 240.299 190.561 240.979 189.61 241.197C187.296 241.731 182.867 243.634 180.221 240.776C178.275 238.671 180.526 236.47 180.526 236.47L179.26 235.81L181.276 234.7L182.492 235.369C182.492 235.369 184.969 233.745 187.853 233.539L191.012 235.28C191.012 235.28 182.313 236.937 183.894 238.711C183.894 238.711 184.902 239.576 187.74 238.476C190.419 237.783 195.014 236.334 197.752 239.467C198.296 240.09 198.501 241.439 197.991 242.285C197.646 242.858 197.58 243.087 196.701 243.578L197.885 244.304Z" fill="#E95561"/>
<path d="M188.771 231.235C198.08 231.235 205.658 235.28 205.907 240.319C205.91 240.229 205.914 240.14 205.914 240.047C205.914 234.597 198.239 230.178 188.771 230.178C179.303 230.178 171.628 234.597 171.628 240.047C171.628 240.137 171.631 240.229 171.635 240.319C171.883 235.28 179.462 231.235 188.771 231.235Z" fill="#E95561"/>
<path d="M167.003 250.974V244.612C166.46 243.75 166.065 242.848 165.836 241.917V248.279C166.065 249.21 166.46 250.112 167.003 250.974Z" fill="#E95561"/>
<path d="M169.34 253.669V247.307C168.919 246.936 168.531 246.551 168.173 246.153V252.515C168.531 252.913 168.919 253.298 169.34 253.669Z" fill="#E95561"/>
<path d="M171.678 255.41V249.048C171.273 248.792 170.882 248.527 170.511 248.255V254.617C170.882 254.889 171.273 255.151 171.678 255.41Z" fill="#E95561"/>
<path d="M174.015 256.689V250.324C173.614 250.132 173.226 249.936 172.848 249.731V256.096C173.226 256.301 173.614 256.497 174.015 256.689Z" fill="#E95561"/>
<path d="M176.352 257.667V251.302C175.954 251.156 175.566 251.004 175.185 250.845V257.206C175.566 257.369 175.954 257.521 176.352 257.667Z" fill="#E95561"/>
<path d="M178.69 258.42V252.058C178.295 251.948 177.907 251.829 177.523 251.71V258.072C177.907 258.191 178.295 258.307 178.69 258.42Z" fill="#E95561"/>
<path d="M181.027 258.98V252.615C180.632 252.535 180.244 252.449 179.86 252.356V258.721C180.244 258.814 180.635 258.9 181.027 258.98Z" fill="#E95561"/>
<path d="M183.363 259.378V253.016C182.972 252.963 182.581 252.903 182.196 252.837V259.199C182.584 259.265 182.972 259.325 183.363 259.378Z" fill="#E95561"/>
<path d="M185.701 259.63V253.265C185.31 253.235 184.922 253.198 184.534 253.159V259.52C184.922 259.563 185.31 259.6 185.701 259.63Z" fill="#E95561"/>
<path d="M188.042 259.739V253.374C187.651 253.367 187.263 253.354 186.875 253.337V259.703C187.26 259.719 187.651 259.732 188.042 259.739Z" fill="#E95561"/>
<path d="M190.379 259.713V253.347C189.994 253.364 189.603 253.374 189.212 253.377V259.742C189.603 259.739 189.991 259.729 190.379 259.713Z" fill="#E95561"/>
<path d="M192.716 259.553V253.188C192.331 253.225 191.943 253.258 191.549 253.284V259.65C191.94 259.623 192.328 259.59 192.716 259.553Z" fill="#E95561"/>
<path d="M195.053 259.248V252.883C194.668 252.946 194.281 253.003 193.886 253.052V259.418C194.281 259.368 194.668 259.311 195.053 259.248Z" fill="#E95561"/>
<path d="M197.39 258.791V252.429C197.005 252.519 196.617 252.602 196.223 252.678V259.04C196.617 258.963 197.005 258.881 197.39 258.791Z" fill="#E95561"/>
<path d="M199.728 258.161V251.796C199.346 251.915 198.955 252.025 198.561 252.131V258.496C198.955 258.393 199.346 258.28 199.728 258.161Z" fill="#E95561"/>
<path d="M202.105 257.316V250.947C201.723 251.1 201.335 251.249 200.938 251.388V257.757C201.335 257.617 201.723 257.468 202.105 257.316Z" fill="#E95561"/>
<path d="M204.401 256.252V249.89C204.024 250.089 203.636 250.281 203.234 250.463V256.825C203.636 256.639 204.024 256.447 204.401 256.252Z" fill="#E95561"/>
<path d="M206.739 254.823V248.461C206.368 248.723 205.98 248.978 205.572 249.223V255.585C205.98 255.343 206.368 255.088 206.739 254.823Z" fill="#E95561"/>
<path d="M209.076 252.83V246.468C208.718 246.843 208.327 247.208 207.909 247.559V253.921C208.33 253.57 208.718 253.205 209.076 252.83Z" fill="#E95561"/>
<path d="M211.414 249.227V242.865C211.132 243.617 210.741 244.347 210.247 245.05V251.411C210.741 250.709 211.136 249.979 211.414 249.227Z" fill="#E95561"/>
<path d="M191.695 241.555C204.488 241.555 214.859 235.586 214.859 228.222C214.859 220.858 204.488 214.888 191.695 214.888C178.903 214.888 168.532 220.858 168.532 228.222C168.532 235.586 178.903 241.555 191.695 241.555Z" fill="#E95561"/>
<path d="M214.855 228.119C214.855 228.066 214.855 228.036 214.855 228.036H214.852C214.855 228.063 214.855 228.089 214.855 228.119Z" fill="#F2B5A7"/>
<path d="M214.855 228.318C214.766 235.638 204.432 241.555 191.695 241.555C178.919 241.555 168.562 235.601 168.532 228.252C168.532 228.948 168.532 232.389 168.532 234.597C168.532 241.96 178.902 247.93 191.695 247.93C204.489 247.93 214.859 241.96 214.859 234.597C214.859 232.283 214.859 229.246 214.855 228.318Z" fill="#BC2C37"/>
<path d="M191.696 238.091C201.163 238.091 208.838 233.908 208.838 228.749C208.838 223.589 201.163 219.407 191.696 219.407C182.228 219.407 174.553 223.589 174.553 228.749C174.553 233.908 182.228 238.091 191.696 238.091Z" fill="#F08891"/>
<path d="M200.809 232.475L198.681 233.702L197.444 232.992C197.444 232.992 193.632 234.61 192.458 234.796L188.898 232.724C188.898 232.724 195.711 231.361 196.407 229.916C197.103 228.47 193.486 229.15 192.535 229.369C190.221 229.902 185.791 231.805 183.146 228.948C181.2 226.843 183.451 224.641 183.451 224.641L182.185 223.982L184.2 222.871L185.417 223.541C185.417 223.541 187.893 221.916 190.778 221.711L193.937 223.451C193.937 223.451 185.238 225.109 186.819 226.882C186.819 226.882 187.827 227.748 190.665 226.647C193.343 225.954 197.938 224.505 200.677 227.638C201.22 228.261 201.426 229.611 200.915 230.456C200.571 231.03 200.504 231.258 199.626 231.749L200.809 232.475Z" fill="#E95561"/>
<path d="M191.696 219.407C201.005 219.407 208.583 223.451 208.832 228.49C208.835 228.401 208.838 228.311 208.838 228.218C208.838 222.768 201.164 218.349 191.696 218.349C182.227 218.349 174.553 222.768 174.553 228.218C174.553 228.308 174.556 228.401 174.559 228.49C174.811 223.451 182.386 219.407 191.696 219.407Z" fill="#E95561"/>
<path d="M169.928 239.145V232.783C169.384 231.921 168.989 231.02 168.761 230.088V236.45C168.989 237.382 169.384 238.287 169.928 239.145Z" fill="#E95561"/>
<path d="M172.266 241.84V235.479C171.845 235.107 171.457 234.723 171.099 234.325V240.687C171.457 241.085 171.845 241.469 172.266 241.84Z" fill="#E95561"/>
<path d="M174.602 243.581V237.216C174.198 236.961 173.807 236.695 173.435 236.423V242.785C173.807 243.06 174.198 243.326 174.602 243.581Z" fill="#E95561"/>
<path d="M176.94 244.861V238.499C176.538 238.306 176.151 238.111 175.773 237.905V244.267C176.151 244.473 176.538 244.672 176.94 244.861Z" fill="#E95561"/>
<path d="M179.276 245.842V239.477C178.879 239.331 178.491 239.178 178.109 239.019V245.381C178.491 245.543 178.879 245.696 179.276 245.842Z" fill="#E95561"/>
<path d="M181.614 246.591V240.229C181.22 240.12 180.832 240.001 180.447 239.881V246.243C180.832 246.366 181.22 246.482 181.614 246.591Z" fill="#E95561"/>
<path d="M183.951 247.155V240.79C183.557 240.71 183.169 240.624 182.784 240.531V246.896C183.169 246.986 183.56 247.072 183.951 247.155Z" fill="#E95561"/>
<path d="M186.292 247.553V241.187C185.901 241.134 185.51 241.075 185.125 241.008V247.374C185.51 247.436 185.897 247.496 186.292 247.553Z" fill="#E95561"/>
<path d="M188.629 247.801V241.439C188.238 241.409 187.85 241.373 187.462 241.333V247.695C187.846 247.735 188.234 247.771 188.629 247.801Z" fill="#E95561"/>
<path d="M190.966 247.911V241.549C190.575 241.542 190.187 241.529 189.799 241.512V247.874C190.183 247.891 190.575 247.904 190.966 247.911Z" fill="#E95561"/>
<path d="M193.304 247.884V241.519C192.919 241.535 192.528 241.545 192.137 241.549V247.914C192.528 247.911 192.916 247.901 193.304 247.884Z" fill="#E95561"/>
<path d="M195.641 247.725V241.36C195.256 241.396 194.868 241.429 194.474 241.456V247.821C194.865 247.794 195.256 247.761 195.641 247.725Z" fill="#E95561"/>
<path d="M197.978 247.423V241.058C197.593 241.121 197.205 241.177 196.811 241.227V247.592C197.205 247.539 197.593 247.483 197.978 247.423Z" fill="#E95561"/>
<path d="M200.314 246.962V240.601C199.93 240.69 199.542 240.773 199.147 240.849V247.211C199.542 247.135 199.93 247.052 200.314 246.962Z" fill="#E95561"/>
<path d="M202.652 246.336V239.971C202.271 240.09 201.88 240.199 201.485 240.306V246.667C201.88 246.565 202.271 246.452 202.652 246.336Z" fill="#E95561"/>
<path d="M205.029 245.487V239.119C204.648 239.271 204.26 239.42 203.862 239.56V245.928C204.26 245.789 204.651 245.643 205.029 245.487Z" fill="#E95561"/>
<path d="M207.326 244.423V238.061C206.948 238.26 206.56 238.452 206.159 238.635V244.997C206.56 244.814 206.948 244.622 207.326 244.423Z" fill="#E95561"/>
<path d="M209.664 242.997V236.636C209.293 236.898 208.905 237.153 208.497 237.398V243.76C208.905 243.515 209.293 243.259 209.664 242.997Z" fill="#E95561"/>
<path d="M212.001 241.002V234.64C211.643 235.015 211.252 235.379 210.834 235.731V242.092C211.255 241.741 211.643 241.38 212.001 241.002Z" fill="#E95561"/>
<path d="M214.338 237.398V231.036C214.056 231.789 213.665 232.518 213.171 233.221V239.583C213.665 238.883 214.06 238.151 214.338 237.398Z" fill="#E95561"/>
<path d="M183.95 231.527C196.743 231.527 207.113 225.557 207.113 218.193C207.113 210.829 196.743 204.86 183.95 204.86C171.158 204.86 160.787 210.829 160.787 218.193C160.787 225.557 171.158 231.527 183.95 231.527Z" fill="#E95561"/>
<path d="M207.11 218.094C207.11 218.041 207.11 218.011 207.11 218.011H207.107C207.11 218.034 207.11 218.064 207.11 218.094Z" fill="#F2B5A7"/>
<path d="M207.11 218.293C207.021 225.613 196.687 231.53 183.951 231.53C171.174 231.53 160.817 225.576 160.787 218.226C160.787 218.923 160.787 222.364 160.787 224.572C160.787 231.935 171.157 237.905 183.951 237.905C196.744 237.905 207.114 231.935 207.114 224.572C207.114 222.258 207.114 219.221 207.11 218.293Z" fill="#BC2C37"/>
<path d="M183.95 228.066C193.418 228.066 201.093 223.883 201.093 218.724C201.093 213.564 193.418 209.382 183.95 209.382C174.483 209.382 166.808 213.564 166.808 218.724C166.808 223.883 174.483 228.066 183.95 228.066Z" fill="#F08891"/>
<path d="M193.064 222.45L190.936 223.677L189.699 222.967C189.699 222.967 185.887 224.585 184.713 224.771L181.153 222.699C181.153 222.699 187.965 221.336 188.662 219.891C189.358 218.445 185.741 219.125 184.789 219.344C182.475 219.877 178.046 221.78 175.401 218.923C173.455 216.818 175.706 214.616 175.706 214.616L174.439 213.957L176.455 212.846L177.672 213.516C177.672 213.516 180.148 211.891 183.032 211.686L186.192 213.426C186.192 213.426 177.493 215.084 179.074 216.857C179.074 216.857 180.082 217.723 182.92 216.622C185.598 215.929 190.193 214.48 192.932 217.613C193.475 218.236 193.681 219.586 193.17 220.431C192.825 221.005 192.759 221.233 191.881 221.724L193.064 222.45Z" fill="#BC2C37"/>
<path d="M183.95 209.382C193.259 209.382 200.838 213.426 201.087 218.465C201.09 218.376 201.093 218.286 201.093 218.193C201.093 212.743 193.419 208.324 183.95 208.324C174.482 208.324 166.808 212.743 166.808 218.193C166.808 218.283 166.811 218.376 166.814 218.465C167.066 213.426 174.641 209.382 183.95 209.382Z" fill="#BC2C37"/>
<path d="M162.183 229.12V222.758C161.639 221.896 161.244 220.995 161.016 220.063V226.425C161.244 227.356 161.639 228.261 162.183 229.12Z" fill="#E95561"/>
<path d="M164.52 231.815V225.454C164.099 225.082 163.711 224.698 163.353 224.3V230.662C163.711 231.06 164.099 231.444 164.52 231.815Z" fill="#E95561"/>
<path d="M166.857 233.556V227.194C166.453 226.939 166.062 226.674 165.69 226.402V232.763C166.062 233.035 166.453 233.301 166.857 233.556Z" fill="#E95561"/>
<path d="M169.194 234.835V228.474C168.793 228.281 168.405 228.086 168.028 227.88V234.242C168.405 234.448 168.793 234.647 169.194 234.835Z" fill="#E95561"/>
<path d="M171.531 235.813V229.448C171.133 229.302 170.746 229.15 170.364 228.991V235.353C170.746 235.515 171.133 235.671 171.531 235.813Z" fill="#E95561"/>
<path d="M173.869 236.566V230.201C173.475 230.091 173.087 229.972 172.702 229.853V236.215C173.087 236.337 173.475 236.457 173.869 236.566Z" fill="#E95561"/>
<path d="M176.206 237.126V230.764C175.812 230.685 175.424 230.599 175.039 230.506V236.871C175.424 236.961 175.815 237.047 176.206 237.126Z" fill="#E95561"/>
<path d="M178.543 237.527V231.162C178.152 231.109 177.761 231.05 177.376 230.983V237.348C177.764 237.411 178.152 237.471 178.543 237.527Z" fill="#E95561"/>
<path d="M180.884 237.776V231.411C180.493 231.381 180.105 231.345 179.717 231.305V237.67C180.101 237.71 180.489 237.746 180.884 237.776Z" fill="#E95561"/>
<path d="M183.222 237.885V231.524C182.83 231.517 182.443 231.504 182.055 231.487V237.852C182.439 237.866 182.83 237.879 183.222 237.885Z" fill="#E95561"/>
<path d="M185.558 237.859V231.494C185.174 231.51 184.783 231.52 184.391 231.524V237.889C184.783 237.885 185.17 237.875 185.558 237.859Z" fill="#E95561"/>
<path d="M187.895 237.7V231.335C187.511 231.371 187.123 231.404 186.729 231.431V237.796C187.12 237.769 187.511 237.736 187.895 237.7Z" fill="#E95561"/>
<path d="M190.233 237.395V231.03C189.848 231.093 189.46 231.149 189.066 231.199V237.564C189.46 237.514 189.848 237.458 190.233 237.395Z" fill="#E95561"/>
<path d="M192.57 236.937V230.576C192.185 230.665 191.798 230.748 191.403 230.824V237.186C191.798 237.11 192.185 237.027 192.57 236.937Z" fill="#E95561"/>
<path d="M194.907 236.307V229.942C194.526 230.062 194.135 230.171 193.74 230.277V236.639C194.135 236.539 194.526 236.427 194.907 236.307Z" fill="#E95561"/>
<path d="M197.284 235.462V229.094C196.903 229.246 196.515 229.395 196.117 229.535V235.903C196.515 235.764 196.906 235.618 197.284 235.462Z" fill="#E95561"/>
<path d="M199.581 234.398V228.036C199.203 228.235 198.815 228.427 198.414 228.61V234.971C198.815 234.786 199.203 234.597 199.581 234.398Z" fill="#E95561"/>
<path d="M201.919 232.972V226.611C201.548 226.872 201.16 227.128 200.752 227.373V233.735C201.16 233.49 201.548 233.234 201.919 232.972Z" fill="#E95561"/>
<path d="M204.257 230.977V224.615C203.899 224.989 203.508 225.354 203.09 225.706V232.071C203.511 231.716 203.899 231.351 204.257 230.977Z" fill="#E95561"/>
<path d="M206.594 227.373V221.011C206.312 221.764 205.921 222.493 205.427 223.196V229.558C205.921 228.858 206.315 228.126 206.594 227.373Z" fill="#E95561"/>
<path d="M226.457 297.708C241.246 297.708 253.234 291.523 253.234 283.893C253.234 276.264 241.246 270.079 226.457 270.079C211.669 270.079 199.681 276.264 199.681 283.893C199.681 291.523 211.669 297.708 226.457 297.708Z" fill="#0077B6"/>
<path d="M226.458 287.079C239.251 287.079 249.621 281.11 249.621 273.746C249.621 266.382 239.251 260.412 226.458 260.412C213.665 260.412 203.295 266.382 203.295 273.746C203.295 281.11 213.665 287.079 226.458 287.079Z" fill="#E95561"/>
<path d="M203.298 273.649C203.295 273.649 203.295 273.649 203.298 273.649C203.298 273.649 203.298 273.676 203.298 273.719C203.295 273.696 203.295 273.673 203.298 273.649Z" fill="#F2B5A7"/>
<path d="M249.618 273.646C249.618 273.593 249.618 273.563 249.618 273.563H249.615C249.615 273.586 249.615 273.616 249.618 273.646Z" fill="#F2B5A7"/>
<path d="M249.618 273.845C249.528 281.165 239.195 287.083 226.458 287.083C213.681 287.083 203.325 281.129 203.295 273.779C203.295 274.475 203.295 277.916 203.295 280.124C203.295 287.487 213.665 293.458 226.458 293.458C239.251 293.458 249.621 287.487 249.621 280.124C249.618 277.81 249.618 274.773 249.618 273.845Z" fill="#BC2C37"/>
<path d="M226.458 283.618C235.926 283.618 243.601 279.436 243.601 274.276C243.601 269.117 235.926 264.934 226.458 264.934C216.99 264.934 209.315 269.117 209.315 274.276C209.315 279.436 216.99 283.618 226.458 283.618Z" fill="#F08891"/>
<path d="M235.568 278.002L233.44 279.229L232.203 278.519C232.203 278.519 228.391 280.137 227.217 280.323L223.657 278.251C223.657 278.251 230.469 276.888 231.166 275.443C231.862 273.998 228.245 274.677 227.293 274.896C224.979 275.43 220.55 277.333 217.905 274.475C215.959 272.37 218.21 270.169 218.21 270.169L216.943 269.509L218.959 268.398L220.176 269.068C220.176 269.068 222.652 267.444 225.536 267.238L228.696 268.978C228.696 268.978 219.997 270.636 221.578 272.41C221.578 272.41 222.586 273.275 225.424 272.174C228.102 271.481 232.697 270.033 235.435 273.166C235.979 273.789 236.185 275.138 235.674 275.983C235.329 276.557 235.263 276.786 234.385 277.276L235.568 278.002Z" fill="#E95561"/>
<path d="M226.458 264.934C235.767 264.934 243.346 268.978 243.594 274.017C243.597 273.928 243.601 273.838 243.601 273.746C243.601 268.295 235.926 263.876 226.458 263.876C216.99 263.876 209.315 268.295 209.315 273.746C209.315 273.835 209.319 273.928 209.322 274.017C209.57 268.978 217.146 264.934 226.458 264.934Z" fill="#E95561"/>
<path d="M204.687 284.672V278.311C204.144 277.449 203.749 276.547 203.52 275.615V281.977C203.749 282.909 204.144 283.814 204.687 284.672Z" fill="#E95561"/>
<path d="M207.024 287.368V281.006C206.603 280.635 206.215 280.25 205.857 279.852V286.214C206.215 286.612 206.603 286.996 207.024 287.368Z" fill="#E95561"/>
<path d="M209.362 289.108V282.746C208.958 282.491 208.567 282.226 208.195 281.954V288.316C208.567 288.588 208.958 288.853 209.362 289.108Z" fill="#E95561"/>
<path d="M211.699 290.388V284.026C211.298 283.834 210.91 283.638 210.532 283.433V289.794C210.91 290 211.301 290.199 211.699 290.388Z" fill="#E95561"/>
<path d="M214.036 291.366V285.001C213.638 284.855 213.25 284.702 212.869 284.543V290.905C213.25 291.067 213.641 291.223 214.036 291.366Z" fill="#E95561"/>
<path d="M216.373 292.118V285.757C215.979 285.647 215.591 285.528 215.206 285.408V291.77C215.591 291.89 215.979 292.009 216.373 292.118Z" fill="#E95561"/>
<path d="M218.714 292.679V286.317C218.319 286.237 217.931 286.151 217.547 286.058V292.423C217.931 292.513 218.319 292.599 218.714 292.679Z" fill="#E95561"/>
<path d="M221.051 293.08V286.715C220.659 286.662 220.268 286.602 219.884 286.536V292.901C220.268 292.964 220.656 293.023 221.051 293.08Z" fill="#E95561"/>
<path d="M223.389 293.328V286.963C222.997 286.933 222.609 286.897 222.222 286.857V293.219C222.606 293.262 222.997 293.299 223.389 293.328Z" fill="#E95561"/>
<path d="M225.725 293.438V287.076C225.334 287.069 224.946 287.056 224.559 287.04V293.405C224.946 293.418 225.334 293.431 225.725 293.438Z" fill="#E95561"/>
<path d="M228.062 293.411V287.046C227.678 287.063 227.287 287.073 226.895 287.076V293.441C227.287 293.438 227.674 293.428 228.062 293.411Z" fill="#E95561"/>
<path d="M230.4 293.252V286.887C230.016 286.923 229.628 286.957 229.233 286.983V293.348C229.624 293.322 230.016 293.289 230.4 293.252Z" fill="#E95561"/>
<path d="M232.736 292.947V286.582C232.352 286.645 231.964 286.701 231.569 286.751V293.116C231.964 293.066 232.352 293.01 232.736 292.947Z" fill="#E95561"/>
<path d="M235.074 292.49V286.128C234.689 286.217 234.302 286.3 233.907 286.377V292.738C234.302 292.662 234.689 292.579 235.074 292.49Z" fill="#E95561"/>
<path d="M237.412 291.86V285.495C237.031 285.614 236.64 285.723 236.245 285.829V292.191C236.643 292.092 237.031 291.979 237.412 291.86Z" fill="#E95561"/>
<path d="M239.789 291.014V284.646C239.408 284.798 239.02 284.948 238.622 285.087V291.455C239.02 291.316 239.411 291.17 239.789 291.014Z" fill="#E95561"/>
<path d="M242.086 289.95V283.588C241.708 283.787 241.32 283.98 240.919 284.162V290.524C241.32 290.338 241.711 290.149 242.086 289.95Z" fill="#E95561"/>
<path d="M244.423 288.525V282.163C244.051 282.425 243.663 282.68 243.256 282.925V289.287C243.663 289.042 244.051 288.787 244.423 288.525Z" fill="#E95561"/>
<path d="M246.763 286.529V280.167C246.405 280.542 246.014 280.906 245.596 281.258V287.62C246.014 287.268 246.402 286.904 246.763 286.529Z" fill="#E95561"/>
<path d="M249.1 282.925V276.564C248.819 277.316 248.427 278.045 247.934 278.748V285.11C248.424 284.411 248.819 283.678 249.1 282.925Z" fill="#E95561"/>
<path d="M229.381 275.254C242.174 275.254 252.544 269.284 252.544 261.92C252.544 254.556 242.174 248.587 229.381 248.587C216.588 248.587 206.218 254.556 206.218 261.92C206.218 269.284 216.588 275.254 229.381 275.254Z" fill="#E95561"/>
<path d="M206.221 261.821C206.221 261.821 206.218 261.821 206.221 261.821C206.221 261.821 206.221 261.848 206.221 261.891C206.218 261.867 206.221 261.844 206.221 261.821Z" fill="#F2B5A7"/>
<path d="M252.542 261.818C252.542 261.765 252.542 261.735 252.542 261.735H252.538C252.538 261.761 252.542 261.788 252.542 261.818Z" fill="#F2B5A7"/>
<path d="M252.541 262.017C252.451 269.337 242.118 275.254 229.381 275.254C216.604 275.254 206.248 269.3 206.218 261.95C206.218 262.646 206.218 266.088 206.218 268.296C206.218 275.659 216.588 281.629 229.381 281.629C242.174 281.629 252.544 275.659 252.544 268.296C252.541 265.985 252.541 262.948 252.541 262.017Z" fill="#BC2C37"/>
<path d="M229.381 271.79C238.849 271.79 246.524 267.607 246.524 262.448C246.524 257.288 238.849 253.105 229.381 253.105C219.914 253.105 212.239 257.288 212.239 262.448C212.239 267.607 219.914 271.79 229.381 271.79Z" fill="#F08891"/>
<path d="M238.491 266.174L236.363 267.4L235.126 266.691C235.126 266.691 231.314 268.309 230.14 268.494L226.58 266.422C226.58 266.422 233.392 265.06 234.088 263.614C234.785 262.169 231.168 262.849 230.216 263.067C227.902 263.601 223.473 265.504 220.828 262.646C218.882 260.541 221.133 258.34 221.133 258.34L219.866 257.68L221.882 256.57L223.099 257.239C223.099 257.239 225.575 255.615 228.459 255.409L231.619 257.15C231.619 257.15 222.92 258.807 224.501 260.581C224.501 260.581 225.509 261.446 228.347 260.346C231.025 259.653 235.62 258.204 238.358 261.337C238.902 261.96 239.108 263.309 238.597 264.155C238.252 264.728 238.186 264.957 237.308 265.448L238.491 266.174Z" fill="#E95561"/>
<path d="M229.381 253.105C238.69 253.105 246.269 257.15 246.518 262.189C246.521 262.099 246.524 262.01 246.524 261.917C246.524 256.467 238.85 252.048 229.381 252.048C219.913 252.048 212.239 256.467 212.239 261.917C212.239 262.007 212.242 262.099 212.245 262.189C212.494 257.15 220.069 253.105 229.381 253.105Z" fill="#E95561"/>
<path d="M207.61 272.847V266.485C207.067 265.624 206.672 264.722 206.444 263.79V270.152C206.672 271.084 207.067 271.985 207.61 272.847Z" fill="#E95561"/>
<path d="M209.948 275.543V269.181C209.527 268.809 209.139 268.425 208.781 268.027V274.389C209.139 274.783 209.527 275.168 209.948 275.543Z" fill="#E95561"/>
<path d="M212.285 277.28V270.914C211.881 270.659 211.489 270.394 211.118 270.122V276.484C211.493 276.759 211.881 277.024 212.285 277.28Z" fill="#E95561"/>
<path d="M214.622 278.559V272.197C214.221 272.005 213.833 271.81 213.455 271.604V277.966C213.833 278.171 214.224 278.37 214.622 278.559Z" fill="#E95561"/>
<path d="M216.959 279.541V273.175C216.561 273.03 216.173 272.877 215.792 272.718V279.08C216.177 279.242 216.565 279.395 216.959 279.541Z" fill="#E95561"/>
<path d="M219.3 280.29V273.928C218.905 273.819 218.517 273.699 218.133 273.58V279.942C218.514 280.064 218.902 280.18 219.3 280.29Z" fill="#E95561"/>
<path d="M221.637 280.853V274.488C221.242 274.409 220.854 274.323 220.47 274.23V280.595C220.854 280.688 221.242 280.774 221.637 280.853Z" fill="#E95561"/>
<path d="M223.975 281.251V274.889C223.584 274.836 223.192 274.777 222.808 274.71V281.072C223.192 281.139 223.58 281.198 223.975 281.251Z" fill="#E95561"/>
<path d="M226.311 281.5V275.138C225.92 275.108 225.532 275.072 225.145 275.032V281.397C225.529 281.434 225.92 281.47 226.311 281.5Z" fill="#E95561"/>
<path d="M228.649 281.609V275.247C228.257 275.241 227.87 275.228 227.482 275.211V281.573C227.87 281.589 228.257 281.603 228.649 281.609Z" fill="#E95561"/>
<path d="M230.985 281.586V275.221C230.601 275.238 230.21 275.247 229.819 275.251V281.616C230.21 281.609 230.601 281.599 230.985 281.586Z" fill="#E95561"/>
<path d="M233.323 281.424V275.059C232.939 275.095 232.551 275.128 232.156 275.155V281.52C232.551 281.493 232.939 281.463 233.323 281.424Z" fill="#E95561"/>
<path d="M235.66 281.122V274.757C235.276 274.82 234.888 274.876 234.493 274.926V281.291C234.888 281.241 235.276 281.185 235.66 281.122Z" fill="#E95561"/>
<path d="M237.997 280.665V274.303C237.613 274.392 237.225 274.475 236.83 274.551V280.913C237.225 280.834 237.613 280.751 237.997 280.665Z" fill="#E95561"/>
<path d="M240.335 280.035V273.669C239.954 273.789 239.562 273.898 239.168 274.004V280.366C239.566 280.263 239.954 280.154 240.335 280.035Z" fill="#E95561"/>
<path d="M242.712 279.189V272.821C242.331 272.973 241.943 273.122 241.545 273.262V279.63C241.943 279.488 242.334 279.342 242.712 279.189Z" fill="#E95561"/>
<path d="M245.009 278.122V271.76C244.631 271.959 244.243 272.151 243.842 272.333V278.695C244.243 278.513 244.634 278.321 245.009 278.122Z" fill="#E95561"/>
<path d="M247.35 276.696V270.334C246.979 270.596 246.591 270.852 246.183 271.097V277.459C246.587 277.213 246.975 276.958 247.35 276.696Z" fill="#E95561"/>
<path d="M249.688 274.7V268.339C249.33 268.713 248.938 269.078 248.521 269.429V275.791C248.938 275.443 249.326 275.078 249.688 274.7Z" fill="#E95561"/>
<path d="M252.025 271.097V264.735C251.743 265.488 251.352 266.217 250.858 266.92V273.282C251.352 272.582 251.743 271.853 252.025 271.097Z" fill="#E95561"/>
<path d="M221.638 265.229C234.43 265.229 244.801 259.259 244.801 251.895C244.801 244.531 234.43 238.562 221.638 238.562C208.845 238.562 198.475 244.531 198.475 251.895C198.475 259.259 208.845 265.229 221.638 265.229Z" fill="#E95561"/>
<path d="M198.478 251.796C198.478 251.796 198.475 251.796 198.478 251.796C198.478 251.796 198.478 251.822 198.478 251.866C198.475 251.842 198.478 251.819 198.478 251.796Z" fill="#F2B5A7"/>
<path d="M244.797 251.793C244.797 251.74 244.797 251.71 244.797 251.71H244.794C244.794 251.736 244.797 251.763 244.797 251.793Z" fill="#F2B5A7"/>
<path d="M244.798 251.991C244.708 259.311 234.375 265.229 221.638 265.229C208.861 265.229 198.504 259.275 198.475 251.925C198.475 252.621 198.475 256.063 198.475 258.27C198.475 265.633 208.844 271.604 221.638 271.604C234.431 271.604 244.801 265.633 244.801 258.27C244.798 255.956 244.798 252.92 244.798 251.991Z" fill="#BC2C37"/>
<path d="M221.638 261.765C231.105 261.765 238.781 257.582 238.781 252.422C238.781 247.263 231.105 243.08 221.638 243.08C212.17 243.08 204.495 247.263 204.495 252.422C204.495 257.582 212.17 261.765 221.638 261.765Z" fill="#F08891"/>
<path d="M230.748 256.149L228.619 257.375L227.383 256.666C227.383 256.666 223.57 258.284 222.397 258.469L218.836 256.397C218.836 256.397 225.649 255.035 226.345 253.589C227.041 252.144 223.425 252.824 222.473 253.042C220.159 253.576 215.73 255.479 213.085 252.621C211.138 250.516 213.39 248.315 213.39 248.315L212.123 247.655L214.139 246.545L215.355 247.214C215.355 247.214 217.832 245.59 220.716 245.384L223.875 247.125C223.875 247.125 215.176 248.782 216.758 250.556C216.758 250.556 217.766 251.421 220.603 250.321C223.282 249.628 227.877 248.179 230.615 251.312C231.159 251.935 231.364 253.284 230.854 254.13C230.509 254.703 230.443 254.932 229.564 255.423L230.748 256.149Z" fill="#BC2C37"/>
<path d="M221.638 243.08C230.947 243.08 238.525 247.125 238.774 252.164C238.777 252.074 238.781 251.985 238.781 251.892C238.781 246.442 231.106 242.023 221.638 242.023C212.17 242.023 204.495 246.442 204.495 251.892C204.495 251.982 204.498 252.074 204.502 252.164C204.75 247.125 212.325 243.08 221.638 243.08Z" fill="#BC2C37"/>
<path d="M199.867 262.819V256.457C199.323 255.595 198.929 254.693 198.7 253.762V260.124C198.929 261.055 199.323 261.96 199.867 262.819Z" fill="#E95561"/>
<path d="M202.204 265.514V259.152C201.783 258.781 201.395 258.396 201.037 257.999V264.36C201.395 264.758 201.783 265.143 202.204 265.514Z" fill="#E95561"/>
<path d="M204.542 267.255V260.889C204.137 260.634 203.746 260.369 203.375 260.097V266.459C203.75 266.734 204.137 266.999 204.542 267.255Z" fill="#E95561"/>
<path d="M206.879 268.534V262.172C206.478 261.98 206.09 261.785 205.712 261.579V267.944C206.09 268.146 206.481 268.345 206.879 268.534Z" fill="#E95561"/>
<path d="M209.216 269.516V263.15C208.818 263.004 208.43 262.852 208.049 262.693V269.055C208.433 269.217 208.821 269.37 209.216 269.516Z" fill="#E95561"/>
<path d="M211.556 270.265V263.903C211.162 263.794 210.774 263.674 210.389 263.555V269.917C210.771 270.039 211.159 270.155 211.556 270.265Z" fill="#E95561"/>
<path d="M213.894 270.828V264.467C213.499 264.387 213.111 264.301 212.727 264.208V270.573C213.111 270.659 213.499 270.745 213.894 270.828Z" fill="#E95561"/>
<path d="M216.23 271.226V264.864C215.839 264.811 215.448 264.752 215.063 264.685V271.047C215.448 271.11 215.836 271.17 216.23 271.226Z" fill="#E95561"/>
<path d="M218.568 271.475V265.11C218.177 265.08 217.789 265.043 217.401 265.004V271.369C217.786 271.409 218.177 271.445 218.568 271.475Z" fill="#E95561"/>
<path d="M220.905 271.584V265.222C220.514 265.216 220.126 265.202 219.738 265.186V271.548C220.126 271.564 220.514 271.578 220.905 271.584Z" fill="#E95561"/>
<path d="M223.242 271.558V265.193C222.858 265.209 222.466 265.219 222.075 265.222V271.587C222.466 271.584 222.854 271.574 223.242 271.558Z" fill="#E95561"/>
<path d="M225.58 271.399V265.033C225.195 265.07 224.808 265.103 224.413 265.13V271.495C224.808 271.468 225.195 271.435 225.58 271.399Z" fill="#E95561"/>
<path d="M227.917 271.097V264.732C227.532 264.795 227.144 264.851 226.75 264.901V271.266C227.144 271.213 227.532 271.157 227.917 271.097Z" fill="#E95561"/>
<path d="M230.254 270.636V264.274C229.869 264.364 229.481 264.447 229.087 264.523V270.885C229.481 270.808 229.869 270.726 230.254 270.636Z" fill="#E95561"/>
<path d="M232.591 270.009V263.644C232.21 263.764 231.819 263.873 231.424 263.979V270.344C231.822 270.238 232.21 270.126 232.591 270.009Z" fill="#E95561"/>
<path d="M234.968 269.161V262.792C234.587 262.945 234.199 263.094 233.801 263.233V269.602C234.199 269.463 234.59 269.317 234.968 269.161Z" fill="#E95561"/>
<path d="M237.266 268.097V261.735C236.888 261.934 236.5 262.126 236.099 262.308V268.67C236.5 268.488 236.891 268.296 237.266 268.097Z" fill="#E95561"/>
<path d="M239.606 266.671V260.309C239.235 260.571 238.847 260.826 238.439 261.072V267.434C238.844 267.188 239.232 266.933 239.606 266.671Z" fill="#E95561"/>
<path d="M241.943 264.675V258.314C241.585 258.688 241.194 259.053 240.776 259.404V265.769C241.194 265.415 241.582 265.053 241.943 264.675Z" fill="#E95561"/>
<path d="M244.28 261.072V254.71C243.998 255.463 243.607 256.192 243.113 256.895V263.256C243.607 262.557 243.998 261.824 244.28 261.072Z" fill="#E95561"/>
<path d="M84.1436 103.623L15.4829 143.25C13.9381 144.141 12.9866 145.786 12.9866 147.569L12.9667 199.071C12.9667 200.616 14.6376 201.58 15.9736 200.808L85.6222 160.625C87.167 159.733 88.1185 158.085 88.1185 156.302L88.1218 105.921C88.1251 103.879 85.9106 102.602 84.1436 103.623Z" fill="#0077B6"/>
<path d="M85.0752 104.167L16.4146 143.793C14.8697 144.685 13.9183 146.329 13.9183 148.113L13.8984 199.614C13.8984 201.159 15.5692 202.124 16.9052 201.351L86.5538 161.168C88.0987 160.276 89.0501 158.629 89.0501 156.845L89.0535 106.464C89.0568 104.422 86.8455 103.146 85.0752 104.167Z" fill="#022445"/>
<path d="M83.7826 113.088L83.7793 119.105L63.5468 130.801V124.777L83.7826 113.088Z" fill="white"/>
<path d="M31.4323 150.016L31.429 159.133C31.429 159.62 31.1704 160.074 30.7461 160.32L21.9675 165.451C21.0492 165.988 19.8955 165.325 19.8955 164.265L19.8988 155.141C19.8988 154.651 20.1574 154.2 20.5818 153.954L29.3604 148.829C30.282 148.292 31.4357 148.952 31.4323 150.016Z" fill="#90D1EF"/>
<path d="M33.3679 167.676L33.3646 171.681L19.8984 179.465L19.9017 175.457L33.3679 167.676Z" fill="white"/>
<path d="M50.3318 157.8L50.3285 161.801L36.8622 169.585V165.577L50.3318 157.8Z" fill="white"/>
<path d="M67.2523 148V152.005L53.7861 159.789V155.781L67.2523 148Z" fill="white"/>
<path d="M83.782 138.628V142.633L70.3124 150.417L70.3158 146.409L83.782 138.628Z" fill="white"/>
<path d="M84.1436 34.7373L15.4829 74.3636C13.9381 75.2554 12.9866 76.8997 12.9866 78.6833L12.9667 130.185C12.9667 131.729 14.6376 132.694 15.9736 131.922L85.6222 91.7385C87.167 90.8467 88.1185 89.199 88.1185 87.4155L88.1218 37.0347C88.1251 34.9926 85.9106 33.7162 84.1436 34.7373Z" fill="#022445"/>
<path d="M85.0752 35.281L16.4146 74.9073C14.8697 75.7991 13.9183 77.4434 13.9183 79.227L13.8984 130.728C13.8984 132.273 15.5692 133.238 16.9052 132.465L86.5538 92.2822C88.0987 91.3904 89.0501 89.7427 89.0501 87.9592L89.0535 37.5784C89.0568 35.5363 86.8456 34.2599 85.0752 35.281Z" fill="#00B4D8"/>
<path d="M83.7826 45.9128L83.7793 51.9298L63.5468 63.6258V57.6054L83.7826 45.9128Z" fill="white"/>
<path d="M31.4323 81.1299L31.429 90.2466C31.429 90.734 31.1704 91.1881 30.7461 91.4335L21.9675 96.5654C21.0492 97.1024 19.8955 96.4394 19.8955 95.3752L19.8988 86.2518C19.8988 85.7612 20.1574 85.3103 20.5818 85.065L29.3604 79.9397C30.282 79.406 31.4357 80.0657 31.4323 81.1299Z" fill="#CAE9F8"/>
<path d="M33.3679 98.7899L33.3646 102.795L19.8984 110.579L19.9017 106.571L33.3679 98.7899Z" fill="white"/>
<path d="M50.3318 88.9139L50.3285 92.9154L36.8622 100.699V96.6913L50.3318 88.9139Z" fill="white"/>
<path d="M67.2523 79.1143V83.119L53.7861 90.903V86.895L67.2523 79.1143Z" fill="white"/>
<path d="M83.782 69.7422V73.747L70.3124 81.531L70.3158 77.523L83.782 69.7422Z" fill="white"/>
<path d="M172.426 162.732L163.047 178.549C162.394 179.649 162.755 181.071 163.856 181.728L187.708 195.88C188.812 196.537 190.238 196.172 190.891 195.065L200.263 179.192C200.913 178.088 200.548 176.669 199.447 176.016L175.601 161.92C174.501 161.267 173.079 161.628 172.426 162.732Z" fill="#022445"/>
<path d="M173.258 164.625L165.079 178.416C164.509 179.377 164.827 180.617 165.785 181.188L187.155 193.865C188.116 194.438 189.36 194.12 189.93 193.155L198.102 179.318C198.669 178.356 198.35 177.116 197.392 176.55L176.026 163.919C175.068 163.349 173.828 163.664 173.258 164.625Z" fill="#CAE9F8"/>
<path d="M162.321 181.532L163.912 179.215C166.097 178.184 167.304 176.085 168.073 174.995C168.265 174.72 168.172 174.338 167.871 174.186C166.551 173.523 164.973 175.406 164.973 175.406L167.665 170.702C167.665 170.702 159.878 166.491 159.58 176.772L159.105 177.485C159.589 178.098 160.037 178.695 160.455 179.278C161.111 180.001 161.734 180.763 162.321 181.532Z" fill="#F2B5A7"/>
<path d="M148.513 352.811C166.991 352.811 181.97 345.082 181.97 335.549C181.97 326.015 166.991 318.287 148.513 318.287C130.036 318.287 115.057 326.015 115.057 335.549C115.057 345.082 130.036 352.811 148.513 352.811Z" fill="#0077B6"/>
<path d="M163.461 207.961C141.475 181.854 152.66 177.77 152.66 177.77C162.066 168.819 174.484 194.614 174.484 194.614L179.298 202.726L192.685 191.126L197.482 195.565C197.482 195.565 182.202 220.817 175.32 216.925C168.368 213 162.407 206.84 163.461 207.961Z" fill="#0077B6"/>
<path d="M164.661 232.029V339.348C164.661 339.348 153.642 344.47 146.163 340.197C145.894 338.595 144.996 256.074 144.996 256.074L143.839 329.333C143.839 329.333 133.489 336.477 126.212 328.932C125.943 327.596 127.614 223.977 127.614 223.977C127.614 223.977 134.48 236.753 164.661 232.029Z" fill="#022445"/>
<path d="M161.913 235.782C157.713 237.201 153.211 237.764 150.227 237.904C148.57 237.98 146.166 237.99 144.339 237.814C130.512 236.488 126.434 232.997 127.064 224.318C127.727 215.158 125.738 194.717 125.738 194.717C120.553 158.22 140.424 167.002 140.424 167.002C140.484 166.859 141.594 167.506 142.871 168.315C145.165 169.763 147.754 170.685 150.449 171.023C153.967 171.461 159.092 173.218 163.392 178.098C182.205 199.451 164.847 204.361 165.003 207.437C165.162 210.573 164.92 212.377 164.837 216.398C164.821 217.164 164.665 219.146 165.205 224.441C165.205 224.441 165.878 230.136 165.218 232.858C164.884 234.22 163.246 235.331 161.913 235.782Z" fill="#0077B6"/>
<path d="M158.539 250.773H158.247V335.675H158.539V250.773Z" fill="white"/>
<path d="M139.286 252.671L137.738 328.152L138.03 328.158L139.578 252.677L139.286 252.671Z" fill="white"/>
<path d="M158.781 147.84C159.192 147.993 161.648 169.634 151.491 167.201C151.491 167.201 151.514 169.75 152.376 171.368C152.376 171.368 145.169 173.96 140.823 170.383C140.057 169.754 139.762 168.709 140.077 167.768C140.382 166.859 140.826 165.56 141.366 164.048C142.798 160.047 139.254 140.63 158.781 147.84Z" fill="#F2B5A7"/>
<path d="M196.772 194.912L193.205 191.743L194.803 187.619C195.045 187.002 195.592 186.555 196.248 186.449L199.179 185.965L204.172 180.68C204.172 180.68 205.352 180.79 204.812 181.536C204.271 182.282 200.737 186.979 200.737 186.979C200.737 186.979 203.784 190.357 201.881 192.124C200.93 193.009 199.978 193.394 199.405 193.556C198.987 193.676 198.596 193.878 198.254 194.15L196.772 194.912Z" fill="#F2B5A7"/>
<path d="M152.856 171.491L151.862 169.995C151.862 169.995 143.64 172.24 140.424 167.002C140.424 167.002 137.838 170.552 144.3 172.014C150.552 173.281 152.856 171.491 152.856 171.491Z" fill="#022445"/>
<path d="M163.522 207.795C163.466 207.742 163.491 207.772 163.608 207.904C163.577 207.868 163.549 207.832 163.522 207.795C163.648 207.918 164.202 208.486 165.072 209.32C165.02 212.769 164.823 216.992 164.86 218.715C156.901 212.66 151.739 201.836 152.56 190.205C154.277 194.497 157.59 200.212 163.522 207.795Z" fill="#03125E"/>
<path d="M131.107 167.191C131.107 167.191 131.103 167.191 131.103 167.195C131.103 167.191 131.103 167.191 131.107 167.191Z" fill="#022445"/>
<path d="M120.235 202.239L120.627 193.245C120.822 177.849 126.117 171.01 129.664 168.192C126.044 171.302 123.441 178.585 125.732 194.717C125.732 194.717 127.582 207.387 127.433 216.58L121.684 207.616C120.66 206.018 120.152 204.138 120.235 202.239Z" fill="#0077B6"/>
<path d="M127.89 188.216C128.013 190.232 128.214 192.423 128.517 194.815C128.517 194.815 129.614 203.32 129.932 211.422C126.498 204.14 127.89 188.216 127.89 188.216Z" fill="#03125E"/>
<path d="M140.842 237.509C141.913 237.662 143.12 237.698 144.339 237.817C146.166 237.993 148.573 237.983 150.227 237.907C153.211 237.768 157.713 237.201 161.913 235.785C162.875 235.46 163.992 234.794 164.668 233.935C164.668 235.54 164.668 238.623 164.668 238.623C164.668 238.623 131.908 246.503 127.522 229.811C128.735 233.69 132.189 235.895 139.048 237.121L140.842 237.509Z" fill="#022445"/>
<path d="M143.839 329.333L143.988 319.785L145.142 319.477C145.142 319.477 145.367 319.47 145.761 319.427C145.831 324.476 145.901 328.972 145.964 332.476C144.638 332.963 143.205 333.483 141.674 334.057V335.562C141.674 335.562 131.079 341.649 126.179 334.223V327.029C126.179 328.169 126.189 328.832 126.209 328.932C133.489 336.477 143.839 329.333 143.839 329.333Z" fill="#022445"/>
<path d="M126.192 324.536C126.185 325.52 126.182 326.356 126.182 327.029V324.539L126.192 324.536Z" fill="#022445"/>
<path d="M146.163 339.056C153.642 343.33 164.662 338.208 164.662 338.208V329.286L164.937 329.214C164.937 329.214 166.724 329.157 169.14 328.408C171.955 327.536 174.982 329.164 175.678 332.028C175.695 332.091 175.814 333.958 175.827 334.024C176.792 338.708 171.037 340.22 161.466 343.794V345.299C161.466 345.299 150.871 351.385 145.971 343.959V334.276L146.014 334.263C146.077 337.1 146.126 338.837 146.163 339.056Z" fill="#022445"/>
<path d="M161.469 343.794C169.913 340.638 175.386 339.089 175.893 335.549C176.463 339.928 170.768 341.456 161.469 344.931V343.794Z" fill="#EBEDF6"/>
<path d="M161.469 345.295V346.433C161.469 346.433 150.873 352.519 145.974 345.093V343.956C150.873 351.382 161.469 345.295 161.469 345.295Z" fill="#EBEDF6"/>
<path d="M141.685 335.529V336.666C141.685 336.666 131.089 342.753 126.189 335.327V334.19C131.089 341.612 141.685 335.529 141.685 335.529Z" fill="#EBEDF6"/>
<path d="M145.987 333.58C144.661 334.07 143.222 334.591 141.688 335.164V334.027C143.216 333.457 144.645 332.936 145.967 332.449C145.974 332.837 145.981 333.215 145.987 333.58Z" fill="#EBEDF6"/>
<path d="M153.761 158.837C153.042 158.966 153.111 150.496 149.352 160.988C145.593 171.481 139.804 165.281 140.401 163.972C140.998 162.662 137.533 158.25 137.537 157.733C137.54 157.215 129.743 150.283 137.646 140.567C141.094 136.33 155.061 136.764 157.133 134.298C159.205 131.831 167.489 145.37 155.455 149.932C155.459 149.932 156.108 158.419 153.761 158.837Z" fill="#022445"/>
<path d="M40.6746 318.46C49.5839 318.46 56.8063 314.733 56.8063 310.136C56.8063 305.538 49.5839 301.811 40.6746 301.811C31.7654 301.811 24.543 305.538 24.543 310.136C24.543 314.733 31.7654 318.46 40.6746 318.46Z" fill="#0077B6"/>
<path d="M40.3767 267.977C32.0921 267.977 25.2628 265.086 24.2981 261.356C24.2152 261.253 24.1788 261.197 24.1788 261.197L32.1916 312.466C32.1916 312.466 34.9995 314.913 40.327 314.913C45.6014 314.913 48.3365 312.466 48.3365 312.466L56.4421 261.422C55.4111 265.122 48.6116 267.977 40.3767 267.977Z" fill="#022445"/>
<path d="M40.393 290.51C45.0873 290.51 49.3141 289.582 52.2713 288.1L53.1166 282.769C50.1496 284.499 45.5746 285.61 40.4427 285.61C35.2114 285.61 30.5602 284.456 27.5997 282.669L28.4418 288.067C31.4089 289.568 35.6622 290.51 40.393 290.51Z" fill="white"/>
<path d="M40.393 294.11C35.9772 294.11 31.9757 293.288 29.0518 291.955L29.4562 294.551C32.3437 295.791 36.2026 296.547 40.4427 296.547C44.5867 296.547 48.3693 295.824 51.2336 294.631L51.6513 291.989C48.7406 293.301 44.7723 294.11 40.393 294.11Z" fill="white"/>
<path d="M40.3767 268.355C49.3226 268.355 56.5747 264.984 56.5747 260.826C56.5747 256.668 49.3226 253.297 40.3767 253.297C31.4308 253.297 24.1788 256.668 24.1788 260.826C24.1788 264.984 31.4308 268.355 40.3767 268.355Z" fill="#0077B6"/>
<path d="M40.6087 266.481C48.0551 266.481 54.0915 263.832 54.0915 260.564C54.0915 257.296 48.0551 254.646 40.6087 254.646C33.1623 254.646 27.1259 257.296 27.1259 260.564C27.1259 263.832 33.1623 266.481 40.6087 266.481Z" fill="white"/>
<path d="M51.9699 250.075C51.9699 250.075 60.2745 256.496 74.6192 247.486C76.5023 246.302 78.3389 245.596 80.0959 245.254C84.0907 244.479 84.83 239.035 81.1501 237.301C75.3751 234.583 68.3668 233.784 60.4701 237.775C60.4701 237.775 52.3479 241.72 51.9699 250.075Z" fill="#0077B6"/>
<path d="M33.743 254.646C33.7695 255.856 32.954 256.934 31.7771 257.222C28.4619 258.031 21.0028 258.442 11.78 250.101C8.70679 247.323 5.51759 246.203 2.49746 246.05C-0.181199 245.917 -0.963588 242.337 1.43329 241.137C8.71342 237.494 18.0191 235.975 27.4011 242.997C27.4011 242.993 33.5905 247.476 33.743 254.646Z" fill="#0077B6"/>
<path d="M43.8049 246.59C43.8049 246.59 53.3394 246.322 60.3079 230.88C61.8296 227.508 64.8895 225.042 68.1284 223.275C71.5397 221.415 70.091 216.223 66.2056 216.333C59.6846 216.518 51.9868 219.316 46.0858 229.182C46.0858 229.182 40.6091 239.333 43.8049 246.59Z" fill="#0077B6"/>
<path d="M35.288 240.689C35.2018 242.433 33.5044 243.63 31.8137 243.192C28.3261 242.287 22.3024 239.327 16.6534 229.779C14.2001 225.632 9.32019 223.301 4.95079 221.995C2.23566 221.186 2.33511 217.314 5.0867 216.641C12.0817 214.934 22.0571 215.328 30.5473 226.451C30.587 226.504 30.6268 226.557 30.6633 226.613C31.2368 227.472 35.6096 234.251 35.288 240.689Z" fill="#0077B6"/>
<path d="M36.9159 237.557C38.4078 239.154 41.0002 238.956 42.2037 237.129C44.816 233.171 48.0052 225.479 43.4701 215.1C41.5141 210.617 40.3472 206.566 39.6742 203.082C38.9879 199.512 33.9223 199.412 33.0836 202.949C32.467 205.552 31.8736 208.658 31.3365 212.365C30.4082 218.796 30.4049 225.135 32.699 231.215C33.5312 233.409 35.1954 235.717 36.9159 237.557Z" fill="#0077B6"/>
<path d="M44.1095 266.329C45.4024 258.326 50.4912 251.106 57.3868 246.905C59.3262 245.725 61.3981 244.794 63.5762 244.147C64.0204 244.015 63.8315 243.315 63.3839 243.451C55.4408 245.811 48.774 251.931 45.4157 259.47C44.4675 261.598 43.7846 263.836 43.4133 266.137C43.337 266.591 44.0332 266.786 44.1095 266.329Z" fill="#0077B6"/>
<path d="M37.6052 266.375C36.3719 258.744 31.5417 251.871 24.9478 247.887C23.0913 246.763 21.0956 245.881 19.0137 245.261C18.5661 245.128 18.3771 245.825 18.8214 245.957C26.0617 248.109 32.0887 253.635 35.1254 260.521C35.9741 262.45 36.5708 264.486 36.9057 266.564C36.9819 267.025 37.6781 266.833 37.6052 266.375Z" fill="#0077B6"/>
<path d="M43.0018 266.472C42.4184 259.689 42.7267 252.849 44.318 246.216C45.7501 240.258 48.147 234.54 51.6644 229.507C53.5971 226.739 55.8647 224.213 58.424 222.008C58.7788 221.703 58.2649 221.193 57.9135 221.498C53.3386 225.443 49.7217 230.422 47.1524 235.876C44.371 241.777 42.7797 248.221 42.2228 254.713C41.8879 258.628 41.9443 262.563 42.2791 266.475C42.3189 266.932 43.0416 266.936 43.0018 266.472Z" fill="#0077B6"/>
<path d="M38.6528 266.485C38.9047 263.554 39.0042 260.607 38.6628 257.68C38.3544 255.034 37.7113 252.452 36.9621 249.899C36.0902 246.912 35.1619 243.948 33.9021 241.097C32.6822 238.336 31.2069 235.687 29.4731 233.217C27.5138 230.426 25.233 227.87 22.6504 225.642C22.299 225.34 21.7852 225.847 22.1399 226.152C26.6751 230.061 30.2422 234.977 32.7882 240.384C34.1011 243.169 35.0625 246.07 35.9476 249.014C36.7234 251.59 37.4494 254.192 37.834 256.861C38.2948 260.053 38.2052 263.286 37.9301 266.488C37.8903 266.949 38.613 266.946 38.6528 266.485Z" fill="#0077B6"/>
<path d="M38.2582 220.414C39.7334 232.319 40.2506 244.339 39.7931 256.327C39.6638 259.712 39.455 263.097 39.1732 266.472C39.1334 266.936 39.8594 266.932 39.8959 266.472C40.8971 254.517 40.9369 242.486 40.0053 230.525C39.7434 227.147 39.3986 223.775 38.9842 220.414C38.9245 219.96 38.1985 219.953 38.2582 220.414Z" fill="#0077B6"/>
<path d="M274.114 366.577L330.907 333.776C331.888 333.209 331.891 331.791 330.907 331.224L291.539 308.465C290.465 307.845 289.142 307.845 288.065 308.465L231.368 341.202C230.384 341.769 230.384 343.188 231.368 343.758L270.899 366.58C271.896 367.15 273.12 367.15 274.114 366.577Z" fill="#022445"/>
<path d="M331.633 332.314C331.702 332.868 331.46 333.458 330.907 333.776L274.114 366.577C273.12 367.15 271.896 367.15 270.902 366.577L231.372 343.755C230.861 343.46 230.619 342.939 230.639 342.426L230.636 342.429V345.867C230.636 346.715 231.09 347.501 231.823 347.926L270.902 370.495C271.896 371.069 273.12 371.069 274.114 370.495L330.456 337.914C331.188 337.489 331.643 336.704 331.643 335.858V332.324L331.633 332.314Z" fill="#0077B6"/>
<path d="M270.017 326.175L274.669 323.483C275.202 323.174 275.862 323.171 276.399 323.479L281.107 326.175C281.601 326.456 281.601 327.166 281.107 327.451L276.406 330.15C275.869 330.458 275.209 330.458 274.672 330.146L270.017 327.448C269.527 327.166 269.527 326.46 270.017 326.175Z" fill="#E95561"/>
<path d="M281.64 319.485L289.414 314.983C290.309 314.465 291.41 314.462 292.308 314.976L320.182 331.031C321.007 331.502 321.007 332.692 320.185 333.163L312.325 337.675C311.427 338.192 310.323 338.189 309.427 337.668L281.646 321.61C280.821 321.139 280.821 319.959 281.64 319.485Z" fill="white"/>
<path d="M278.109 330.842L282.76 328.15C283.294 327.842 283.953 327.839 284.49 328.147L289.198 330.842C289.692 331.124 289.692 331.834 289.198 332.119L284.497 334.817C283.96 335.126 283.3 335.126 282.763 334.814L278.109 332.115C277.618 331.83 277.621 331.124 278.109 330.842Z" fill="#0077B6"/>
<path d="M286.258 335.503L290.909 332.812C291.443 332.503 292.102 332.5 292.639 332.808L297.347 335.503C297.841 335.785 297.841 336.495 297.347 336.78L292.646 339.478C292.109 339.787 291.449 339.787 290.912 339.475L286.258 336.777C285.767 336.491 285.767 335.785 286.258 335.503Z" fill="#0077B6"/>
<path d="M294.31 340.168L298.962 337.476C299.495 337.168 300.155 337.164 300.692 337.473L305.4 340.168C305.894 340.45 305.894 341.159 305.4 341.444L300.699 344.143C300.162 344.451 299.502 344.451 298.965 344.14L294.31 341.441C293.82 341.159 293.82 340.453 294.31 340.168Z" fill="#0077B6"/>
<path d="M261.284 331.263L265.935 328.572C266.469 328.263 267.129 328.26 267.666 328.568L272.373 331.263C272.867 331.545 272.867 332.255 272.373 332.54L267.672 335.238C267.135 335.547 266.476 335.547 265.939 335.235L261.284 332.536C260.793 332.251 260.793 331.545 261.284 331.263Z" fill="#0077B6"/>
<path d="M269.376 335.928L274.027 333.236C274.561 332.928 275.221 332.924 275.758 333.233L280.465 335.928C280.959 336.21 280.959 336.919 280.465 337.204L275.765 339.903C275.228 340.211 274.568 340.211 274.031 339.899L269.376 337.201C268.889 336.916 268.889 336.213 269.376 335.928Z" fill="#0077B6"/>
<path d="M277.526 340.589L282.177 337.897C282.711 337.589 283.37 337.585 283.907 337.894L288.615 340.589C289.109 340.871 289.109 341.58 288.615 341.865L283.914 344.564C283.377 344.872 282.717 344.872 282.18 344.561L277.526 341.862C277.038 341.577 277.038 340.874 277.526 340.589Z" fill="#0077B6"/>
<path d="M285.578 345.257L290.229 342.565C290.763 342.257 291.423 342.253 291.96 342.562L296.667 345.257C297.161 345.539 297.161 346.248 296.667 346.533L291.967 349.232C291.429 349.54 290.77 349.54 290.233 349.228L285.578 346.53C285.088 346.245 285.088 345.539 285.578 345.257Z" fill="#0077B6"/>
<path d="M252.367 336.375L257.018 333.683C257.552 333.375 258.211 333.372 258.748 333.68L263.456 336.375C263.95 336.657 263.95 337.367 263.456 337.652L258.755 340.35C258.218 340.659 257.558 340.659 257.021 340.347L252.367 337.648C251.879 337.367 251.879 336.661 252.367 336.375Z" fill="#0077B6"/>
<path d="M260.459 341.043L265.11 338.351C265.644 338.043 266.304 338.04 266.841 338.348L271.548 341.043C272.042 341.325 272.042 342.034 271.548 342.32L266.847 345.018C266.31 345.326 265.651 345.326 265.114 345.015L260.459 342.316C259.972 342.031 259.972 341.325 260.459 341.043Z" fill="#0077B6"/>
<path d="M268.608 345.704L273.259 343.012C273.793 342.704 274.452 342.701 274.989 343.009L279.697 345.704C280.191 345.986 280.191 346.696 279.697 346.981L274.996 349.679C274.459 349.988 273.799 349.988 273.262 349.676L268.608 346.977C268.12 346.692 268.12 345.986 268.608 345.704Z" fill="#0077B6"/>
<path d="M267.832 355.461L281.312 347.677C281.846 347.369 282.505 347.365 283.042 347.674L287.75 350.369C288.244 350.651 288.244 351.36 287.75 351.645L274.221 359.436C273.684 359.744 273.024 359.744 272.487 359.432L267.832 356.734C267.345 356.449 267.345 355.743 267.832 355.461Z" fill="#0077B6"/>
<path d="M243.538 341.468L248.19 338.776C248.723 338.467 249.383 338.464 249.92 338.772L254.628 341.468C255.122 341.749 255.122 342.459 254.628 342.744L249.927 345.442C249.39 345.751 248.73 345.751 248.193 345.439L243.538 342.741C243.051 342.455 243.051 341.749 243.538 341.468Z" fill="#0077B6"/>
<path d="M251.631 346.135L256.282 343.443C256.816 343.135 257.476 343.132 258.013 343.44L262.72 346.135C263.214 346.417 263.214 347.127 262.72 347.412L258.019 350.11C257.482 350.418 256.823 350.418 256.286 350.107L251.631 347.408C251.144 347.123 251.144 346.417 251.631 346.135Z" fill="#0077B6"/>
<path d="M259.779 350.796L264.431 348.105C264.964 347.796 265.624 347.793 266.161 348.101L270.869 350.796C271.363 351.078 271.363 351.788 270.869 352.073L266.168 354.771C265.631 355.08 264.971 355.08 264.434 354.768L259.779 352.069C259.292 351.784 259.292 351.078 259.779 350.796Z" fill="#0077B6"/>
<path d="M313.192 374.166C314.283 373.049 313.595 370.606 311.654 368.709C309.713 366.813 307.255 366.181 306.164 367.298C305.072 368.415 305.761 370.858 307.701 372.754C309.642 374.651 312.1 375.283 313.192 374.166Z" fill="#E95561"/>
<path d="M313.19 374.162C314.261 373.038 313.572 370.608 311.639 368.718C309.7 366.825 307.246 366.192 306.152 367.303C306.255 367.197 314.619 358.64 314.944 358.302C316.035 357.185 318.495 357.815 320.437 359.714C322.38 361.61 323.066 364.054 321.976 365.171C321.631 365.522 313.33 374.019 313.19 374.162Z" fill="#BC2C37"/>
<path d="M320.437 359.714C318.498 357.818 316.041 357.185 314.947 358.302C319.095 354.055 361.37 312.029 361.532 311.866C362.623 310.749 365.083 311.379 367.025 313.279C368.968 315.178 369.654 317.618 368.564 318.735C368.395 318.908 326.126 360.928 321.982 365.168C323.063 364.047 322.373 361.607 320.437 359.714Z" fill="#F2B5A7"/>
<path d="M319.747 367.445C320.818 366.321 320.128 363.891 318.196 362.002C316.256 360.109 313.803 359.475 312.709 360.586C312.812 360.48 314.615 358.64 314.943 358.305C316.034 357.188 318.494 357.818 320.437 359.717C322.379 361.614 323.066 364.057 321.975 365.174C321.63 365.522 319.886 367.303 319.747 367.445Z" fill="#FFF9FF"/>
<path d="M317.022 313.275C315.291 311.585 313.15 310.902 311.933 311.565L311.93 311.561L325.005 304.228L318.905 318.208C319.439 316.962 318.699 314.916 317.022 313.275Z" fill="#CAE9F8"/>
<path d="M318.872 318.281L318.856 318.321L318.853 318.318C318.859 318.304 318.869 318.294 318.872 318.281Z" fill="#FFF9FF"/>
<path d="M321.974 305.929L325.005 304.228L323.622 307.401C323.619 307.401 323.413 305.922 321.974 305.929Z" fill="#022445"/>
</svg>
