<svg width="436" height="96" viewBox="0 0 436 96" fill="none" xmlns="http://www.w3.org/2000/svg">
<path d="M118.548 76V20.7273H156.279V31.5767H131.908V42.9119H153.877V53.7884H131.908V76H118.548ZM161.189 76V34.5455H174.009V42.1023H174.441C175.196 39.3674 176.429 37.3343 178.138 36.0028C179.847 34.6534 181.835 33.9787 184.102 33.9787C184.714 33.9787 185.344 34.0237 185.992 34.1136C186.639 34.1856 187.242 34.3026 187.8 34.4645V45.9347C187.17 45.7187 186.343 45.5478 185.317 45.4219C184.309 45.2959 183.41 45.233 182.618 45.233C181.053 45.233 179.64 45.5838 178.381 46.2855C177.139 46.9692 176.159 47.9318 175.439 49.1733C174.737 50.3968 174.387 51.8362 174.387 53.4915V76H161.189ZM209.403 76.7827C205.067 76.7827 201.324 75.928 198.176 74.2188C195.045 72.4915 192.634 70.0355 190.943 66.8509C189.269 63.6482 188.433 59.8428 188.433 55.4347C188.433 51.1525 189.278 47.41 190.97 44.2074C192.661 40.9867 195.045 38.4858 198.122 36.7045C201.198 34.9053 204.824 34.0057 208.998 34.0057C211.949 34.0057 214.648 34.4645 217.095 35.3821C219.542 36.2997 221.656 37.6581 223.437 39.4574C225.218 41.2566 226.604 43.4787 227.593 46.1236C228.583 48.7505 229.078 51.7642 229.078 55.1648V58.4574H193.048V50.7926H216.798C216.78 49.3892 216.447 48.1387 215.799 47.0412C215.151 45.9437 214.261 45.089 213.127 44.4773C212.012 43.8475 210.725 43.5327 209.268 43.5327C207.793 43.5327 206.47 43.8655 205.301 44.5312C204.131 45.179 203.204 46.0696 202.521 47.2031C201.837 48.3187 201.477 49.5871 201.441 51.0085V58.8082C201.441 60.4995 201.774 61.9839 202.44 63.2614C203.106 64.5208 204.05 65.5014 205.274 66.2031C206.497 66.9048 207.954 67.2557 209.646 67.2557C210.815 67.2557 211.877 67.0937 212.83 66.7699C213.784 66.446 214.603 65.9692 215.286 65.3395C215.97 64.7098 216.483 63.9361 216.825 63.0185L228.943 63.3693C228.439 66.0862 227.332 68.4522 225.623 70.4673C223.932 72.4645 221.71 74.0208 218.957 75.1364C216.204 76.2339 213.019 76.7827 209.403 76.7827ZM254.196 76.7827C249.86 76.7827 246.117 75.928 242.969 74.2188C239.838 72.4915 237.427 70.0355 235.736 66.8509C234.062 63.6482 233.226 59.8428 233.226 55.4347C233.226 51.1525 234.071 47.41 235.763 44.2074C237.454 40.9867 239.838 38.4858 242.915 36.7045C245.991 34.9053 249.617 34.0057 253.791 34.0057C256.742 34.0057 259.441 34.4645 261.888 35.3821C264.335 36.2997 266.449 37.6581 268.23 39.4574C270.011 41.2566 271.397 43.4787 272.386 46.1236C273.376 48.7505 273.871 51.7642 273.871 55.1648V58.4574H237.841V50.7926H261.591C261.573 49.3892 261.24 48.1387 260.592 47.0412C259.944 45.9437 259.054 45.089 257.92 44.4773C256.805 43.8475 255.518 43.5327 254.061 43.5327C252.586 43.5327 251.263 43.8655 250.094 44.5312C248.924 45.179 247.997 46.0696 247.314 47.2031C246.63 48.3187 246.27 49.5871 246.234 51.0085V58.8082C246.234 60.4995 246.567 61.9839 247.233 63.2614C247.898 64.5208 248.843 65.5014 250.067 66.2031C251.29 66.9048 252.747 67.2557 254.439 67.2557C255.608 67.2557 256.67 67.0937 257.623 66.7699C258.577 66.446 259.396 65.9692 260.079 65.3395C260.763 64.7098 261.276 63.9361 261.618 63.0185L273.736 63.3693C273.232 66.0862 272.125 68.4522 270.416 70.4673C268.725 72.4645 266.503 74.0208 263.75 75.1364C260.997 76.2339 257.812 76.7827 254.196 76.7827ZM303.172 34.5455V44.2614H276.507V34.5455H303.172ZM282.067 76V32.4403C282.067 29.2377 282.67 26.5838 283.875 24.4787C285.081 22.3556 286.754 20.7723 288.895 19.7287C291.036 18.6671 293.51 18.1364 296.317 18.1364C298.152 18.1364 299.879 18.2803 301.499 18.5682C303.136 18.8381 304.351 19.081 305.142 19.2969L303.037 28.9588C302.551 28.7969 301.958 28.6619 301.256 28.554C300.572 28.446 299.924 28.392 299.313 28.392C297.765 28.392 296.704 28.7339 296.128 29.4176C295.552 30.1013 295.264 31.0369 295.264 32.2244V76H282.067ZM321.719 20.7273V76H308.521V20.7273H321.719ZM348.47 76.7827C344.115 76.7827 340.373 75.892 337.242 74.1108C334.13 72.3116 331.728 69.8106 330.036 66.608C328.363 63.3873 327.526 59.6539 327.526 55.4077C327.526 51.1435 328.363 47.41 330.036 44.2074C331.728 40.9867 334.13 38.4858 337.242 36.7045C340.373 34.9053 344.115 34.0057 348.47 34.0057C352.824 34.0057 356.557 34.9053 359.67 36.7045C362.801 38.4858 365.203 40.9867 366.876 44.2074C368.567 47.41 369.413 51.1435 369.413 55.4077C369.413 59.6539 368.567 63.3873 366.876 66.608C365.203 69.8106 362.801 72.3116 359.67 74.1108C356.557 75.892 352.824 76.7827 348.47 76.7827ZM348.551 66.8239C350.134 66.8239 351.474 66.3381 352.572 65.3665C353.669 64.3949 354.506 63.0455 355.082 61.3182C355.676 59.5909 355.972 57.5937 355.972 55.3267C355.972 53.0237 355.676 51.0085 355.082 49.2812C354.506 47.554 353.669 46.2045 352.572 45.233C351.474 44.2614 350.134 43.7756 348.551 43.7756C346.913 43.7756 345.528 44.2614 344.394 45.233C343.279 46.2045 342.424 47.554 341.83 49.2812C341.255 51.0085 340.967 53.0237 340.967 55.3267C340.967 57.5937 341.255 59.5909 341.83 61.3182C342.424 63.0455 343.279 64.3949 344.394 65.3665C345.528 66.3381 346.913 66.8239 348.551 66.8239ZM382.029 76L371.233 34.5455H384.485L390.071 61.1023H390.422L396.414 34.5455H409.341L415.494 60.9134H415.845L421.27 34.5455H434.521L423.699 76H409.584L403.107 51.8452H402.648L396.171 76H382.029Z" fill="url(#paint0_linear_151_802)"/>
<circle cx="48" cy="48" r="48" fill="url(#paint1_linear_151_802)"/>
<path d="M23 63.4353C23 63.4353 29.2226 54.3929 35.243 54.0176C40.551 53.6867 44.9745 58.0985 47.4859 59.9821C49.9973 61.8657 55.0302 67.1029 60.6706 66.2606C65.8404 65.4885 72.2857 55.9012 72.2857 55.9012" stroke="white" stroke-width="5.02275" stroke-linecap="round"/>
<path d="M23 39.4353C23 39.4353 29.2226 30.3929 35.243 30.0176C40.551 29.6867 44.9745 34.0985 47.4859 35.9821C49.9973 37.8657 55.0302 43.1029 60.6706 42.2606C65.8404 41.4885 72.2857 31.9012 72.2857 31.9012" stroke="white" stroke-width="5.02275" stroke-linecap="round"/>
<defs>
<linearGradient id="paint0_linear_151_802" x1="114" y1="48" x2="426" y2="48" gradientUnits="userSpaceOnUse">
<stop stop-color="#0077B6"/>
<stop offset="1" stop-color="#00B4D8"/>
</linearGradient>
<linearGradient id="paint1_linear_151_802" x1="12" y1="20.5" x2="86.5" y2="74.5" gradientUnits="userSpaceOnUse">
<stop stop-color="#0077B6"/>
<stop offset="1" stop-color="#00B4D8"/>
</linearGradient>
</defs>
</svg>
