<svg width="468" height="447" viewBox="0 0 468 447" fill="none" xmlns="http://www.w3.org/2000/svg">
<g clip-path="url(#clip0_113_1374)">
<path d="M219.161 21.0582V187.991C219.161 196.09 223.482 203.572 230.497 207.619L407.034 309.508C413.494 313.235 421.569 308.575 421.569 301.115V139.323C421.569 131.162 417.215 123.622 410.148 119.542L229.361 15.1674C224.829 12.5511 219.161 15.8219 219.161 21.0582Z" fill="#022445"/>
<path d="M226.769 31.6927V186.076C226.769 193.565 230.766 200.485 237.251 204.23L400.517 298.459C406.493 301.907 413.96 297.596 413.96 290.697V141.067C413.96 133.519 409.933 126.545 403.397 122.772L236.203 26.2457C232.011 23.825 226.769 26.8513 226.769 31.6927Z" fill="#CAE9F8"/>
<path d="M418.407 114.667L239.781 11.417C236.659 9.61133 232.82 9.56807 229.657 11.2985L223.104 14.8853C224.996 14.005 227.296 13.9749 229.361 15.1674L410.144 119.54C417.212 123.62 421.565 131.162 421.565 139.321V301.115C421.565 304.241 420.147 306.876 418.023 308.609L424.473 304.884C427.787 302.972 429.827 299.436 429.827 295.61V134.448C429.829 126.287 425.475 118.747 418.407 114.667Z" fill="#022445"/>
<path d="M300.211 247.858V260.977C300.211 261.04 300.213 261.102 300.215 261.164C300.243 261.929 299.993 268.975 281.619 274.452C269.199 278.154 255.83 282.071 246.825 284.699C242.769 285.882 242.089 291.336 245.73 293.481C259.631 301.664 285.14 316.519 298.257 324.152C303.081 326.96 309.211 326.016 312.969 321.889L335.949 296.654C335.949 296.654 340.582 291.858 340.582 286.809C340.582 282.908 340.576 271.202 340.576 271.202L300.211 247.858Z" fill="#CAE9F8"/>
<path d="M340.577 271.202C340.577 271.202 340.582 282.907 340.582 286.809C340.582 291.858 335.95 296.654 335.95 296.654L312.969 321.889C309.212 326.016 303.082 326.96 298.257 324.152C285.14 316.519 259.63 301.664 245.73 293.481C244.47 292.74 243.729 291.6 243.466 290.379C243.052 292.384 243.804 294.621 245.881 295.843C260.659 304.544 284.102 318.094 298.049 326.208C303.178 329.193 309.695 328.19 313.788 323.693L338.218 296.864C338.218 296.864 342.71 292.397 342.71 286.172C342.71 283.255 342.708 276.337 342.706 272.426L340.577 271.202Z" fill="#022445"/>
<path d="M421.568 281.099V301.162C421.568 308.622 413.493 313.284 407.033 309.555L230.497 207.666C223.483 203.619 219.161 196.135 219.161 188.038V164.107L421.568 281.099Z" fill="#0077B6"/>
<path d="M324.385 247.52C327.069 246.115 327.447 241.539 325.228 237.3C323.01 233.061 319.035 230.764 316.35 232.169C313.666 233.574 313.288 238.149 315.506 242.388C317.725 246.628 321.7 248.925 324.385 247.52Z" fill="white"/>
<path opacity="0.6" d="M388.647 114.24L384.6 111.891L254.839 184.804L258.902 187.154L388.647 114.24Z" fill="white"/>
<path opacity="0.6" d="M247.531 180.507L377.177 107.634L360.708 98.0835L231.024 170.965L247.531 180.507Z" fill="white"/>
<path opacity="0.6" d="M396.845 118.989L267.206 191.886L271.803 194.545L401.438 121.641L396.845 118.989Z" fill="white"/>
<path d="M181.442 131.015V21.5979C181.442 18.4682 184.829 16.5121 187.542 18.0751L334.46 103.273C337.441 104.994 339.279 108.174 339.279 111.616V218.959C339.279 223.001 334.906 225.531 331.401 223.514L186.432 139.641C183.344 137.865 181.442 134.576 181.442 131.015Z" fill="#F2F2F2"/>
<path d="M191.74 41.5464V49.5156L252.872 84.9097L252.87 77.0326L191.74 41.5464Z" fill="#E95561"/>
<path d="M267.846 85.8351V93.8043L328.98 129.197L328.978 121.321L267.846 85.8351Z" fill="#0077B6"/>
<path d="M267.286 154.677V162.646L328.42 198.04L328.418 190.163L267.286 154.677Z" fill="#022445"/>
<path d="M267.846 102.041V142.543L328.98 177.937L328.978 137.527L267.846 102.041Z" fill="#F08891"/>
<path d="M191.74 104.971V118.368L252.872 153.763L252.87 140.457L191.74 104.971Z" fill="#022445"/>
<path d="M191.74 122.956V124.289L252.872 159.683L252.87 158.442L191.74 122.956Z" fill="#E95561"/>
<path d="M267.286 167.047V168.381L328.42 203.775L328.418 202.535L267.286 167.047Z" fill="#E95561"/>
<path d="M267.286 172.095V173.429L328.42 208.823L328.418 207.583L267.286 172.095Z" fill="#E95561"/>
<path d="M202.428 66.3475V67.681L210.721 72.3944L210.719 71.1531L202.428 66.3475Z" fill="#022445"/>
<path d="M202.428 82.1091V83.4426L210.721 88.1542L210.719 86.9128L202.428 82.1091Z" fill="#0077B6"/>
<path d="M202.428 98.514V99.8475L210.721 104.559L210.719 103.32L202.428 98.514Z" fill="#E95561"/>
<path d="M191.74 127.41V128.743L252.872 164.137L252.87 162.896L191.74 127.41Z" fill="#E95561"/>
<path d="M191.74 131.89V133.223L252.872 168.618L252.87 167.376L191.74 131.89Z" fill="#E95561"/>
<path d="M191.74 58.0472V66.0164L198.536 69.9267L198.534 62.0497L191.74 58.0472Z" fill="#022445"/>
<path d="M191.74 73.8897V81.8589L198.536 85.7674L198.534 77.8922L191.74 73.8897Z" fill="#0077B6"/>
<path d="M191.74 89.657V97.6262L198.536 101.537L198.534 93.6595L191.74 89.657Z" fill="#E95561"/>
<path d="M248.12 94.4927C244.586 88.8783 239.776 84.8532 234.959 82.9724L234.538 102.716H218.276C218.212 102.496 218.154 102.276 218.096 102.056C218.869 105.012 220.163 108.039 221.989 110.939C228.679 121.57 239.955 126.507 247.17 121.966C254.387 117.424 254.812 105.123 248.12 94.4927Z" fill="#E95561"/>
<path d="M234.537 102.716L234.958 82.9724C230.653 81.2909 226.344 81.3229 222.938 83.4652C217.544 86.8601 215.945 94.5886 218.275 102.716H234.537Z" fill="#022445"/>
<path d="M234.538 102.716L252.63 112.927C253.504 107.461 252.024 100.694 248.121 94.4927C244.587 88.8783 239.778 84.8532 234.961 82.9724L234.538 102.716Z" fill="#0077B6"/>
<path d="M267.846 142.543C267.846 142.543 271.862 136.041 279.91 141.548C279.91 141.548 287.938 148.631 293.323 147.761C296.524 147.243 300.713 140.984 305.607 143.595C308.033 144.889 309.476 149.61 314.238 150.415C318.878 151.197 328.98 143.668 328.98 143.668V177.939L267.846 142.543Z" fill="#022445"/>
<path d="M277.215 140.98C277.215 139.541 277.215 138.102 277.215 136.664C277.215 135.095 277.215 133.528 277.215 131.96C277.215 130.346 277.215 128.73 277.215 127.116C277.215 125.538 277.215 123.96 277.215 122.38C277.215 120.915 277.215 119.448 277.215 117.983C277.215 117.815 277.215 117.65 277.215 117.483C277.215 117.15 276.698 117.15 276.698 117.483C276.698 118.921 276.698 120.36 276.698 121.799C276.698 123.368 276.698 124.935 276.698 126.503C276.698 128.117 276.698 129.733 276.698 131.346C276.698 132.924 276.698 134.502 276.698 136.082C276.698 137.548 276.698 139.015 276.698 140.48C276.698 140.647 276.698 140.813 276.698 140.98C276.698 141.313 277.215 141.313 277.215 140.98Z" fill="#022445"/>
<path d="M289.046 147.591C289.046 146.153 289.046 144.714 289.046 143.275C289.046 141.706 289.046 140.139 289.046 138.571C289.046 136.957 289.046 135.341 289.046 133.728C289.046 132.149 289.046 130.571 289.046 128.992C289.046 127.526 289.046 126.059 289.046 124.594C289.046 124.427 289.046 124.261 289.046 124.094C289.046 123.761 288.529 123.761 288.529 124.094C288.529 125.533 288.529 126.971 288.529 128.41C288.529 129.979 288.529 131.546 288.529 133.114C288.529 134.728 288.529 136.344 288.529 137.958C288.529 139.536 288.529 141.114 288.529 142.694C288.529 144.159 288.529 145.626 288.529 147.091C288.529 147.258 288.529 147.424 288.529 147.591C288.529 147.924 289.046 147.924 289.046 147.591Z" fill="#022445"/>
<path d="M301.346 155.326C301.346 153.887 301.346 152.448 301.346 151.009C301.346 149.44 301.346 147.874 301.346 146.305C301.346 144.691 301.346 143.075 301.346 141.462C301.346 139.884 301.346 138.306 301.346 136.726C301.346 135.26 301.346 133.793 301.346 132.328C301.346 132.161 301.346 131.995 301.346 131.828C301.346 131.495 300.829 131.495 300.829 131.828C300.829 133.267 300.829 134.706 300.829 136.144C300.829 137.713 300.829 139.28 300.829 140.848C300.829 142.462 300.829 144.078 300.829 145.692C300.829 147.27 300.829 148.848 300.829 150.428C300.829 151.893 300.829 153.36 300.829 154.825C300.829 154.993 300.829 155.158 300.829 155.326C300.831 155.657 301.346 155.658 301.346 155.326Z" fill="#022445"/>
<path d="M339.277 111.618C339.277 108.176 337.439 104.995 334.458 103.274L187.542 18.077C184.831 16.5121 181.442 18.4682 181.442 21.5998V27.2405L339.277 118.122V111.618Z" fill="#0077B6"/>
<path d="M191.635 30.0425C192.853 29.9192 193.691 28.3531 193.508 26.5445C193.325 24.7359 192.189 23.3697 190.972 23.4931C189.754 23.6164 188.916 25.1826 189.099 26.9912C189.282 28.7997 190.418 30.1659 191.635 30.0425Z" fill="white"/>
<path d="M200.385 35.2202C201.603 35.0969 202.441 33.5308 202.258 31.7222C202.075 29.9136 200.939 28.5474 199.722 28.6708C198.504 28.7941 197.666 30.3603 197.849 32.1689C198.032 33.9774 199.168 35.3436 200.385 35.2202Z" fill="white"/>
<path d="M211.075 36.9852C211.257 38.7946 210.42 40.3614 209.202 40.4836C207.983 40.6078 206.849 39.2404 206.664 37.431C206.482 35.6216 207.319 34.0549 208.538 33.9326C209.755 33.8103 210.891 35.1758 211.075 36.9852Z" fill="white"/>
<path d="M183.895 17.8647C183.907 17.8608 183.918 17.8551 183.93 17.8493L183.895 17.8647Z" fill="#444444"/>
<path d="M336.506 102.2L189.365 16.8788C188.523 16.3898 187.5 16.3277 186.604 16.7095L183.937 17.8474C185.041 17.3829 186.354 17.3941 187.539 18.0769L334.457 103.274C337.438 104.995 339.276 108.176 339.276 111.618V218.961C339.276 220.964 338.202 222.594 336.694 223.486L339.592 221.902C340.66 221.319 341.324 220.198 341.324 218.981V110.544C341.324 107.102 339.487 103.921 336.506 102.2Z" fill="#022445"/>
<path d="M288.702 328.01L286.451 344.796C286.451 344.796 286.739 348.471 286.726 348.293C286.711 348.114 289.711 337.145 288.702 328.01Z" fill="#3A3C49"/>
<path d="M280.085 436.876C299.337 436.876 314.943 428.824 314.943 418.891C314.943 408.958 299.337 400.906 280.085 400.906C260.834 400.906 245.227 408.958 245.227 418.891C245.227 428.824 260.834 436.876 280.085 436.876Z" fill="#0077B6"/>
<path d="M297.953 403.953C298.132 403.84 302.678 405.815 300.434 412.615C300.203 413.314 299.95 414.008 299.926 414.746L299.747 419.982C299.738 420.283 299.52 420.535 299.224 420.591L298.799 420.672C298.621 420.706 298.457 420.571 298.453 420.39C298.44 419.344 298.399 416.222 298.386 414.99C298.382 414.552 298.162 414.144 297.797 413.903C297.163 413.484 296.074 413.077 294.838 413.967C293.45 414.964 290.063 417.193 288.216 418.4C287.424 418.917 286.414 418.961 285.583 418.509C283.333 417.289 279.037 414.635 278.11 411.738C278.018 411.448 278.151 411.132 278.424 410.999C279.272 410.583 281.667 409.899 287.288 410.696C287.288 410.696 285.633 413.583 287.362 413.995C288.041 414.157 288.746 413.858 289.156 413.294C290.539 411.4 294.613 406.047 297.953 403.953Z" fill="#022445"/>
<path d="M280.106 412.316C280.285 412.203 284.831 414.178 282.587 420.977C282.356 421.677 282.104 422.371 282.079 423.108L281.901 428.344C281.891 428.645 281.673 428.897 281.378 428.954L280.953 429.035C280.774 429.068 280.61 428.933 280.607 428.752C280.593 427.707 280.552 424.584 280.539 423.352C280.535 422.914 280.315 422.506 279.95 422.265C279.316 421.846 278.227 421.44 276.992 422.329C275.604 423.326 272.216 425.555 270.369 426.762C269.577 427.28 268.567 427.323 267.736 426.872C265.486 425.651 261.19 422.997 260.263 420.1C260.171 419.811 260.305 419.495 260.577 419.361C261.426 418.946 263.82 418.261 269.442 419.058C269.442 419.058 267.787 421.946 269.515 422.357C270.194 422.519 270.899 422.22 271.309 421.656C272.692 419.764 276.766 414.411 280.106 412.316Z" fill="#022445"/>
<path d="M297.843 398.566C297.638 401.194 297.946 402.494 297.931 403.974C297.931 403.98 297.931 403.985 297.931 403.993C297.924 403.991 297.92 403.989 297.914 403.989C294.576 406.09 290.513 411.43 289.136 413.316C288.724 413.879 288.023 414.166 287.342 414.018C287.227 413.993 287.128 413.959 287.039 413.918C286.287 413.5 286.56 412.374 286.872 411.578L288.659 407.779C290.169 404.499 290.325 402.454 290.353 398.837C290.353 398.837 287.989 364.181 286.456 344.858C285.45 350.828 284.528 355.303 284.528 355.303C284.528 355.303 282.377 369.238 283.302 375.325C284.182 381.116 282.691 387.2 281.852 392.506C281.131 397.06 279.995 406.929 279.995 406.929C279.79 409.556 280.099 410.856 280.084 412.336C280.084 412.342 280.084 412.348 280.084 412.355C280.076 412.353 280.072 412.351 280.067 412.351C276.728 414.452 272.666 419.792 271.289 421.678C270.877 422.241 270.175 422.529 269.494 422.38C269.38 422.356 269.28 422.322 269.192 422.28C268.439 421.863 268.712 420.736 269.024 419.941L270.809 416.141C272.32 412.861 272.476 410.828 272.504 407.211V407.207C272.504 407.207 269.258 359.717 267.907 344.947C266.101 325.207 268.189 316.311 268.189 316.311C268.189 316.311 276.926 321.252 288.948 320.204C288.976 320.776 288.99 321.385 288.992 322.023C288.993 321.351 288.978 320.712 288.948 320.112C288.911 320.116 288.873 320.117 288.835 320.121C293.133 319.758 297.854 318.633 302.748 316.243C306.068 330.419 302.071 348.985 302.071 348.985C302.071 348.985 300.222 360.782 301.148 366.87C302.028 372.661 300.536 378.746 299.697 384.052C298.977 388.605 297.841 398.585 297.841 398.585L297.843 398.566Z" fill="#F2B5A7"/>
<path d="M302.749 316.333C302.749 316.333 302.437 312.114 302.321 310.124C301.568 297.397 305.221 278.02 305.221 278.02C310.322 242.105 290.766 250.746 290.766 250.746C290.708 250.604 289.615 251.242 288.357 252.036C286.098 253.463 283.551 254.368 280.899 254.699C277.437 255.132 271.401 256.732 267.171 261.532C263.776 274.016 265.585 279.502 264.91 282.457C264.346 284.925 265.619 291.466 267.002 297.075C267.37 298.572 268.328 308.667 268.188 316.311C268.19 316.311 284.227 325.386 302.749 316.333Z" fill="#003773"/>
<path d="M275.925 256.044C275.925 256.044 276.82 251.707 275.925 250.204C275.308 250.142 265.464 249.442 273.978 227.784C273.978 227.784 288.017 219.745 288.931 242.532C288.931 242.532 286.715 248.05 288.357 252.038C288.017 258.211 275.925 256.044 275.925 256.044Z" fill="#F2B5A7"/>
<path d="M267.625 302.351L275.387 283.992C275.387 283.992 273.834 297.506 268.014 308.033C268.014 308.033 267.804 304.089 267.625 302.351Z" fill="#022445"/>
<path d="M302.75 316.243C302.75 316.243 286.079 323.845 268.191 316.312C268.191 316.312 262.209 333.056 263.661 361.895C263.661 361.895 287.682 378.906 307.439 357.953C307.439 357.953 307.439 326.242 302.75 316.243Z" fill="#022445"/>
<path d="M302.751 316.333C293.984 328.008 270.297 321.443 268.192 316.311C268.192 316.311 284.228 325.386 302.751 316.333Z" fill="#022445"/>
<path d="M255.885 295.196C257.296 292.653 258.31 289.909 259 287.082C261.278 277.762 263.857 265.817 265.752 263.075C267.212 260.964 269.685 259.751 272.241 259.984C275.745 260.302 277.611 263.092 278.603 265.915C279.65 268.9 279.769 272.129 279.035 275.206C274.762 293.112 267.786 302.592 264.784 306.02C264.774 306.03 264.767 306.039 264.757 306.049C263.439 307.533 261.142 307.597 259.698 306.233C257.287 303.955 253.527 299.45 255.885 295.196Z" fill="#003773"/>
<path d="M273.828 235.548C273.664 235.121 273.515 234.689 273.399 234.245C272.94 232.49 272.908 230.626 273.299 228.856C273.515 227.88 273.818 226.889 274.456 226.101C274.478 226.072 274.505 226.05 274.546 225.995C277.273 222.619 288.263 220.255 294.372 225.166C301.051 230.538 301.096 240.395 301.128 240.666C301.16 240.937 301.52 249.07 308.618 256.915C315.718 264.76 315.225 291.737 298.158 294.438C289.017 295.884 284.24 293.524 281.451 289.501C278.817 285.705 277.909 280.975 278.831 276.446C279.352 273.89 280.268 270.519 281.876 266.825C285.352 258.837 280.945 253.879 280.945 253.879C280.945 253.879 277.755 249.256 278.328 244.898C278.251 245.148 278.191 245.406 278.144 245.667C278.037 246.273 278.005 246.89 277.994 247.503C277.982 248.201 277.992 248.9 278.058 249.594C278.366 252.899 279.709 256.003 280.106 259.294C280.3 260.898 280.213 262.503 279.812 264.07C279.433 265.554 278.821 266.968 278.17 268.35C276.828 271.202 275.389 274.004 274.672 277.098C274.006 279.972 273.982 283.123 275.201 285.861C275.351 286.198 275.518 286.525 275.701 286.845C275.895 287.184 275.374 287.488 275.18 287.15C273.662 284.509 273.359 281.36 273.811 278.389C274.298 275.184 275.637 272.21 277.04 269.317C277.728 267.899 278.419 266.475 278.917 264.976C279.421 263.453 279.677 261.89 279.591 260.283C279.404 256.887 278.001 253.708 277.544 250.354C277.354 248.968 277.313 247.518 277.475 246.124C277.619 244.872 277.999 243.649 278.851 242.69C278.955 242.573 279.066 242.464 279.18 242.359C279.243 242.252 279.306 242.146 279.376 242.041C279.376 242.041 283.332 239.005 281.313 236.955C281.125 236.763 280.879 236.635 280.612 236.607C279.976 236.539 278.767 236.759 277.92 239.035C277.849 239.227 277.646 239.336 277.448 239.284H277.446C277.207 239.218 276.57 239.208 276.431 238.433C276.367 238.084 276.44 237.724 276.607 237.412C276.899 236.869 277.341 235.633 276.068 234.662C274.971 233.825 273.935 232.439 273.67 230.513C273.647 230.814 273.636 231.117 273.638 231.422C273.643 232.291 273.752 233.156 273.965 233.998C274.076 234.433 274.215 234.86 274.373 235.277C274.539 235.71 274.713 236.141 274.817 236.592C275.048 237.591 274.981 238.655 274.618 239.615C274.559 239.767 274.414 239.872 274.245 239.825C274.098 239.786 273.976 239.607 274.034 239.453C274.347 238.629 274.435 237.726 274.258 236.861C274.16 236.41 273.993 235.979 273.828 235.548Z" fill="#022445"/>
<path d="M259.142 287.114C259.142 287.114 257.567 287.223 257.105 289.687C256.642 292.151 256.207 292.836 256.207 292.836C256.207 292.836 255.446 294.515 257.105 295.01C258.763 295.504 263.599 294.295 265.585 292.196C267.57 290.097 266.75 287.633 265.106 287.543C263.462 287.452 262.145 288.739 259.142 287.114Z" fill="#F2B5A7"/>
<path d="M191.668 219.403L181.812 236.022C181.126 237.179 181.507 238.674 182.662 239.361L207.723 254.229C208.883 254.919 210.382 254.536 211.067 253.373L220.913 236.697C221.598 235.539 221.214 234.045 220.058 233.361L195.004 218.551C193.848 217.864 192.354 218.246 191.668 219.403Z" fill="#022445"/>
<path d="M192.542 221.395L183.95 235.883C183.352 236.891 183.683 238.194 184.691 238.794L207.145 252.113C208.155 252.715 209.462 252.38 210.06 251.366L218.645 236.829C219.241 235.819 218.906 234.517 217.898 233.919L195.452 220.65C194.444 220.052 193.14 220.385 192.542 221.395Z" fill="#CAE9F8"/>
<path d="M181.054 239.158L182.726 236.724C185.023 235.638 186.289 233.438 187.097 232.289C187.3 231.999 187.203 231.598 186.887 231.438C185.5 230.741 183.843 232.721 183.843 232.721L186.672 227.78C186.672 227.78 178.492 223.358 178.176 234.158L177.68 234.907C178.19 235.552 178.66 236.178 179.096 236.789C179.781 237.547 180.435 238.347 181.054 239.158Z" fill="#F2B5A7"/>
<path d="M166.545 419.107C185.958 419.107 201.695 410.987 201.695 400.97C201.695 390.953 185.958 382.833 166.545 382.833C147.133 382.833 131.396 390.953 131.396 400.97C131.396 410.987 147.133 419.107 166.545 419.107Z" fill="#0077B6"/>
<path d="M182.251 266.923C159.152 239.494 170.905 235.204 170.905 235.204C180.785 225.8 193.831 252.903 193.831 252.903L198.887 261.425L212.95 249.239L217.989 253.902C217.989 253.902 201.936 280.429 194.704 276.342C187.406 272.216 181.141 265.745 182.251 266.923Z" fill="#0077B6"/>
<path d="M183.51 292.209V404.959C183.51 404.959 171.931 410.341 164.075 405.851C163.794 404.168 162.846 317.469 162.846 317.469L161.633 394.438C161.633 394.438 150.76 401.944 143.114 394.017C142.834 392.614 144.587 283.749 144.587 283.749C144.587 283.749 151.802 297.173 183.51 292.209Z" fill="#161856"/>
<path d="M180.621 296.153C176.207 297.643 171.478 298.235 168.343 298.384C166.603 298.465 164.077 298.474 162.157 298.29C147.629 296.896 143.346 293.23 144.008 284.108C144.706 274.486 142.614 253.008 142.614 253.008C137.167 214.665 158.045 223.891 158.045 223.891C158.107 223.74 159.273 224.421 160.616 225.269C163.027 226.793 165.747 227.759 168.578 228.113C172.274 228.574 177.659 230.419 182.175 235.544C201.939 257.977 183.704 263.137 183.867 266.368C184.035 269.665 183.781 271.557 183.692 275.782C183.676 276.585 183.51 278.669 184.08 284.231C184.08 284.231 184.787 290.214 184.093 293.074C183.745 294.513 182.022 295.679 180.621 296.153Z" fill="#0077B6"/>
<path d="M177.081 311.904H176.772V401.102H177.081V311.904Z" fill="white"/>
<path d="M156.852 313.897L155.226 393.199L155.534 393.205L157.16 313.903L156.852 313.897Z" fill="white"/>
<path d="M177.332 203.76C177.765 203.92 180.343 226.657 169.671 224.101C169.671 224.101 169.696 226.78 170.6 228.478C170.6 228.478 163.028 231.201 158.461 227.444C157.654 226.78 157.346 225.685 157.679 224.696C157.999 223.742 158.465 222.376 159.035 220.787C160.54 216.583 156.817 196.184 177.332 203.76Z" fill="#F2B5A7"/>
<path d="M217.248 253.215L213.501 249.884L215.179 245.551C215.431 244.902 216.008 244.433 216.697 244.32L219.774 243.815L225.019 238.26C225.019 238.26 226.261 238.373 225.691 239.159C225.121 239.946 221.41 244.877 221.41 244.877C221.41 244.877 224.611 248.426 222.614 250.285C221.613 251.216 220.616 251.618 220.011 251.789C219.57 251.914 219.16 252.126 218.801 252.412L217.248 253.215Z" fill="#F2B5A7"/>
<path d="M171.107 228.606L170.063 227.035C170.063 227.035 161.426 229.394 158.046 223.892C158.046 223.892 155.33 227.624 162.12 229.157C168.688 230.489 171.107 228.606 171.107 228.606Z" fill="#120621"/>
<path d="M182.154 266.808C182.092 266.754 182.121 266.786 182.25 266.923C182.218 266.883 182.186 266.846 182.154 266.808C182.297 266.936 182.924 267.536 183.911 268.414C183.851 272.046 183.631 276.495 183.669 278.31C174.657 271.93 168.815 260.532 169.744 248.283C171.691 252.803 175.442 258.82 182.154 266.808Z" fill="#022445"/>
<path d="M148.256 224.09C148.253 224.09 148.253 224.092 148.251 224.092C148.253 224.092 148.253 224.09 148.256 224.09Z" fill="#022445"/>
<path d="M136.836 260.914L137.248 251.464C137.453 235.289 143.017 228.104 146.743 225.143C142.94 228.408 140.205 236.062 142.612 253.01C142.612 253.01 144.555 266.323 144.397 275.981L138.358 266.566C137.282 264.882 136.75 262.909 136.836 260.914Z" fill="#0077B6"/>
<path d="M141.867 246.034C142.012 248.165 142.255 250.482 142.614 253.01C142.614 253.01 143.925 262.001 144.307 270.566C140.205 262.864 141.867 246.034 141.867 246.034Z" fill="#022445"/>
<path d="M158.485 297.967C159.61 298.126 160.877 298.166 162.158 298.29C164.079 298.474 166.605 298.465 168.344 298.384C171.48 298.237 176.208 297.643 180.623 296.153C181.633 295.813 182.808 295.111 183.517 294.21C183.517 295.894 183.517 299.135 183.517 299.135C183.517 299.135 149.097 307.414 144.491 289.875H144.493C145.768 293.951 149.397 296.266 156.602 297.555L158.485 297.967Z" fill="#101047"/>
<path d="M161.634 394.438L161.792 384.407L163.005 384.084C163.005 384.084 163.242 384.076 163.658 384.031C163.733 389.335 163.805 394.058 163.869 397.741C162.477 398.254 160.97 398.8 159.362 399.401V400.981C159.362 400.981 148.229 407.374 143.083 399.575V392.015C143.083 393.215 143.092 393.911 143.113 394.015C150.761 401.943 161.634 394.438 161.634 394.438Z" fill="#022445"/>
<path d="M143.094 389.399C143.089 390.434 143.085 391.312 143.085 392.017V389.403L143.094 389.399Z" fill="#022445"/>
<path d="M164.075 404.655C171.932 409.144 183.51 403.763 183.51 403.763V394.391L183.8 394.314C183.8 394.314 185.675 394.254 188.216 393.467C191.175 392.551 194.354 394.261 195.085 397.27C195.102 397.338 195.228 399.298 195.243 399.368C196.255 404.288 190.21 405.877 180.157 409.633V411.213C180.157 411.213 169.024 417.606 163.878 409.806V399.633L163.925 399.62C163.985 402.599 164.036 404.423 164.075 404.655Z" fill="#022445"/>
<path d="M180.159 409.631C189.031 406.316 194.781 404.689 195.315 400.97C195.913 405.573 189.928 407.175 180.159 410.826V409.631Z" fill="#EBEDF6"/>
<path d="M180.158 411.211V412.408C180.158 412.408 169.025 418.801 163.879 411.001V409.805C169.025 417.604 180.158 411.211 180.158 411.211Z" fill="#EBEDF6"/>
<path d="M159.371 400.948V402.144C159.371 402.144 148.238 408.537 143.092 400.737V399.541C148.238 407.341 159.371 400.948 159.371 400.948Z" fill="#EBEDF6"/>
<path d="M163.891 398.899C162.495 399.413 160.987 399.96 159.373 400.564V399.368C160.979 398.768 162.482 398.222 163.87 397.711C163.876 398.121 163.883 398.517 163.891 398.899Z" fill="#EBEDF6"/>
<path d="M172.061 215.312C171.305 215.445 171.378 206.547 167.431 217.571C163.481 228.595 157.4 222.081 158.028 220.706C158.656 219.329 155.015 214.695 155.019 214.151C155.024 213.61 146.829 206.323 155.133 196.116C158.756 191.664 173.43 192.123 175.607 189.531C177.783 186.941 186.489 201.164 173.842 205.957C173.842 205.957 174.523 214.876 172.061 215.312Z" fill="#022445"/>
<path d="M59.7816 384.864C69.141 384.864 76.7282 380.949 76.7282 376.12C76.7282 371.291 69.141 367.376 59.7816 367.376C50.4223 367.376 42.8351 371.291 42.8351 376.12C42.8351 380.949 50.4223 384.864 59.7816 384.864Z" fill="#0077B6"/>
<path d="M59.4717 331.829C50.7689 331.829 43.5934 328.794 42.5777 324.876C42.4912 324.769 42.4536 324.708 42.4536 324.708L50.8724 378.573C50.8724 378.573 53.8215 381.144 59.419 381.144C64.96 381.144 67.8321 378.573 67.8321 378.573L76.3468 324.945C75.2672 328.828 68.1236 331.829 59.4717 331.829Z" fill="#022445"/>
<path d="M59.488 355.502C64.4196 355.502 68.8604 354.526 71.9675 352.968L72.8572 347.367C69.7387 349.186 64.9331 350.352 59.5407 350.352C54.0448 350.352 49.1602 349.141 46.0474 347.262L46.9332 352.933C50.0461 354.513 54.5169 355.502 59.488 355.502Z" fill="white"/>
<path d="M59.4881 359.283C54.848 359.283 50.6443 358.419 47.5748 357.02L48.0017 359.745C51.0355 361.047 55.0888 361.842 59.5427 361.842C63.8969 361.842 67.8693 361.081 70.8786 359.83L71.3188 357.056C68.2567 358.434 64.085 359.283 59.4881 359.283Z" fill="white"/>
<path d="M59.4717 332.226C68.8705 332.226 76.4897 328.685 76.4897 324.315C76.4897 319.946 68.8705 316.405 59.4717 316.405C50.0729 316.405 42.4536 319.946 42.4536 324.315C42.4536 328.685 50.0729 332.226 59.4717 332.226Z" fill="#0077B6"/>
<path d="M59.7141 330.259C67.5371 330.259 73.8789 327.475 73.8789 324.041C73.8789 320.607 67.5371 317.823 59.7141 317.823C51.8911 317.823 45.5493 320.607 45.5493 324.041C45.5493 327.475 51.8911 330.259 59.7141 330.259Z" fill="white"/>
<path d="M71.6509 313.019C71.6509 313.019 80.3743 319.764 95.4476 310.299C97.4262 309.056 99.3541 308.315 101.201 307.954C105.397 307.137 106.176 301.422 102.307 299.599C96.2413 296.742 88.8758 295.905 80.5793 300.097C80.5812 300.099 72.0459 304.245 71.6509 313.019Z" fill="#0077B6"/>
<path d="M52.4989 317.821C52.5253 319.094 51.6713 320.224 50.4356 320.525C46.9523 321.376 39.1147 321.808 29.4264 313.043C26.1988 310.124 22.8471 308.947 19.6741 308.789C16.8603 308.648 16.0365 304.888 18.555 303.628C26.2045 299.8 35.9812 298.205 45.8369 305.58C45.8369 305.582 52.3372 310.29 52.4989 317.821Z" fill="#0077B6"/>
<path d="M63.0711 309.359C63.0711 309.359 73.0867 309.077 80.407 292.854C82.0057 289.313 85.2201 286.723 88.6226 284.864C92.2057 282.908 90.6841 277.456 86.6045 277.572C79.7525 277.766 71.6666 280.708 65.4654 291.071C65.4673 291.069 59.7156 301.738 63.0711 309.359Z" fill="#0077B6"/>
<path d="M54.1215 303.159C54.0294 304.99 52.2463 306.25 50.4727 305.789C46.8087 304.837 40.4796 301.728 34.5455 291.697C31.9687 287.341 26.8415 284.891 22.2503 283.521C19.397 282.671 19.5005 278.603 22.3932 277.898C29.7418 276.103 40.2238 276.517 49.141 288.203C49.1843 288.259 49.2238 288.316 49.2633 288.374C49.8651 289.275 54.4601 296.396 54.1215 303.159Z" fill="#0077B6"/>
<path d="M55.8334 299.868C57.4021 301.548 60.1237 301.337 61.3876 299.418C64.1318 295.26 67.4816 287.18 62.7193 276.272C60.6635 271.565 59.439 267.308 58.7318 263.646C58.0096 259.896 52.6886 259.792 51.8084 263.507C51.1614 266.24 50.5369 269.505 49.9745 273.4C48.9984 280.158 48.9946 286.817 51.4078 293.206C52.2805 295.512 54.0278 297.936 55.8334 299.868Z" fill="#0077B6"/>
<path d="M63.3902 330.097C64.7482 321.688 70.0955 314.104 77.3405 309.69C79.3756 308.45 81.5574 307.47 83.8427 306.791C84.311 306.652 84.1117 305.919 83.6414 306.058C75.296 308.537 68.2898 314.968 64.7632 322.888C63.7663 325.126 63.0497 327.475 62.6585 329.894C62.5814 330.374 63.3131 330.579 63.3902 330.097Z" fill="#0077B6"/>
<path d="M56.5563 330.146C55.2603 322.13 50.1839 314.907 43.2604 310.721C41.31 309.541 39.2128 308.612 37.0272 307.963C36.557 307.824 36.3577 308.558 36.826 308.697C44.4341 310.957 50.7632 316.764 53.955 323.999C54.8484 326.025 55.4729 328.166 55.8265 330.349C55.9017 330.831 56.6334 330.626 56.5563 330.146Z" fill="#0077B6"/>
<path d="M62.2274 330.248C61.6143 323.123 61.9378 315.934 63.6099 308.966C65.1127 302.706 67.6311 296.699 71.327 291.412C73.3584 288.504 75.7395 285.85 78.4273 283.535C78.7978 283.215 78.258 282.679 77.8894 282.997C73.0819 287.14 69.2844 292.373 66.5835 298.102C63.6625 304.301 61.9904 311.072 61.4055 317.89C61.0519 322.002 61.1121 326.138 61.4657 330.246C61.5089 330.731 62.2688 330.735 62.2274 330.248Z" fill="#0077B6"/>
<path d="M57.6595 330.261C57.9247 327.184 58.0281 324.084 57.6708 321.011C57.3492 318.231 56.6702 315.519 55.8858 312.837C54.968 309.699 53.9937 306.583 52.6696 303.588C51.3887 300.688 49.837 297.904 48.0144 295.307C45.9568 292.375 43.5605 289.687 40.8465 287.349C40.4778 287.031 39.938 287.567 40.3085 287.887C45.0728 291.993 48.8194 297.16 51.4959 302.838C52.8746 305.764 53.8827 308.811 54.8156 311.904C55.63 314.61 56.3918 317.345 56.7981 320.146C57.2833 323.499 57.1874 326.896 56.8977 330.261C56.8564 330.748 57.6181 330.744 57.6595 330.261Z" fill="#0077B6"/>
<path d="M57.24 281.859C58.788 294.366 59.3315 306.995 58.8519 319.589C58.7165 323.146 58.4964 326.7 58.1992 330.248C58.1579 330.735 58.9177 330.733 58.9591 330.248C60.0105 317.689 60.0538 305.048 59.0738 292.484C58.7974 288.935 58.4381 285.393 57.9999 281.859C57.9416 281.379 57.1817 281.373 57.24 281.859Z" fill="#0077B6"/>
<path d="M364.672 420.977C374.032 420.977 381.619 417.062 381.619 412.233C381.619 407.403 374.032 403.489 364.672 403.489C355.313 403.489 347.726 407.403 347.726 412.233C347.726 417.062 355.313 420.977 364.672 420.977Z" fill="#0077B6"/>
<path d="M364.362 367.942C355.659 367.942 348.484 364.906 347.468 360.989C347.382 360.881 347.344 360.821 347.344 360.821L355.763 414.685C355.763 414.685 358.712 417.257 364.31 417.257C369.851 417.257 372.723 414.685 372.723 414.685L381.237 361.058C380.158 364.94 373.014 367.942 364.362 367.942Z" fill="#022445"/>
<path d="M364.378 391.615C369.31 391.615 373.751 390.639 376.858 389.081L377.747 383.48C374.629 385.299 369.823 386.465 364.431 386.465C358.935 386.465 354.05 385.254 350.938 383.375L351.824 389.045C354.938 390.625 359.409 391.615 364.378 391.615Z" fill="white"/>
<path d="M364.379 395.395C359.738 395.395 355.535 394.532 352.465 393.133L352.892 395.858C355.926 397.16 359.979 397.955 364.433 397.955C368.787 397.955 372.76 397.193 375.769 395.943L376.209 393.168C373.147 394.547 368.977 395.395 364.379 395.395Z" fill="white"/>
<path d="M364.362 368.339C373.761 368.339 381.38 364.797 381.38 360.428C381.38 356.059 373.761 352.517 364.362 352.517C354.963 352.517 347.344 356.059 347.344 360.428C347.344 364.797 354.963 368.339 364.362 368.339Z" fill="#0077B6"/>
<path d="M364.606 366.372C372.429 366.372 378.77 363.588 378.77 360.153C378.77 356.719 372.429 353.935 364.606 353.935C356.783 353.935 350.441 356.719 350.441 360.153C350.441 363.588 356.783 366.372 364.606 366.372Z" fill="white"/>
<path d="M376.541 349.132C376.541 349.132 385.265 355.876 400.338 346.412C402.317 345.169 404.244 344.428 406.091 344.066C410.288 343.25 411.066 337.534 407.197 335.712C401.132 332.855 393.766 332.018 385.47 336.21C385.47 336.212 376.936 340.357 376.541 349.132Z" fill="#0077B6"/>
<path d="M357.391 353.933C357.419 355.207 356.564 356.337 355.328 356.638C351.844 357.488 344.007 357.921 334.319 349.156C331.091 346.237 327.739 345.059 324.566 344.901C321.752 344.76 320.929 341.001 323.447 339.74C331.097 335.913 340.873 334.318 350.729 341.693C350.729 341.695 357.229 346.402 357.391 353.933Z" fill="#0077B6"/>
<path d="M367.961 345.472C367.961 345.472 377.977 345.189 385.299 328.967C386.898 325.425 390.112 322.835 393.515 320.977C397.098 319.021 395.576 313.568 391.497 313.685C384.645 313.879 376.559 316.82 370.358 327.184C370.358 327.182 364.606 337.85 367.961 345.472Z" fill="#0077B6"/>
<path d="M359.014 339.272C358.922 341.102 357.139 342.362 355.365 341.902C351.701 340.95 345.372 337.841 339.438 327.81C336.861 323.454 331.734 321.003 327.143 319.634C324.29 318.784 324.393 314.716 327.286 314.01C334.634 312.216 345.116 312.63 354.034 324.316C354.077 324.372 354.116 324.428 354.156 324.487C354.758 325.388 359.353 332.509 359.014 339.272Z" fill="#0077B6"/>
<path d="M360.724 335.981C362.292 337.66 365.014 337.45 366.278 335.531C369.022 331.372 372.372 323.292 367.61 312.385C365.554 307.677 364.329 303.421 363.622 299.759C362.9 296.008 357.579 295.905 356.699 299.62C356.052 302.353 355.427 305.618 354.865 309.513C353.889 316.271 353.885 322.929 356.298 329.319C357.169 331.625 358.918 334.049 360.724 335.981Z" fill="#0077B6"/>
<path d="M368.281 366.21C369.639 357.801 374.987 350.217 382.232 345.802C384.267 344.563 386.449 343.583 388.734 342.904C389.202 342.765 389.003 342.031 388.533 342.171C380.187 344.65 373.181 351.08 369.654 359C368.658 361.239 367.941 363.588 367.55 366.007C367.473 366.486 368.204 366.691 368.281 366.21Z" fill="#0077B6"/>
<path d="M361.448 366.259C360.153 358.243 355.076 351.02 348.153 346.833C346.202 345.654 344.105 344.725 341.919 344.076C341.449 343.937 341.25 344.67 341.718 344.809C349.326 347.07 355.655 352.876 358.847 360.112C359.741 362.138 360.365 364.278 360.719 366.462C360.792 366.943 361.526 366.738 361.448 366.259Z" fill="#0077B6"/>
<path d="M367.119 366.36C366.506 359.236 366.829 352.047 368.501 345.078C370.004 338.819 372.522 332.811 376.218 327.524C378.25 324.616 380.631 321.963 383.319 319.647C383.689 319.327 383.149 318.791 382.781 319.109C377.973 323.253 374.176 328.485 371.475 334.214C368.554 340.414 366.882 347.185 366.297 354.003C365.943 358.115 366.003 362.251 366.357 366.358C366.4 366.844 367.16 366.847 367.119 366.36Z" fill="#0077B6"/>
<path d="M362.551 366.374C362.816 363.296 362.919 360.197 362.562 357.123C362.24 354.344 361.561 351.631 360.777 348.949C359.859 345.812 358.885 342.695 357.563 339.701C356.282 336.801 354.73 334.017 352.908 331.42C350.85 328.487 348.454 325.8 345.74 323.462C345.371 323.144 344.831 323.68 345.202 324C349.966 328.105 353.713 333.272 356.389 338.951C357.768 341.877 358.776 344.924 359.709 348.016C360.523 350.723 361.285 353.458 361.691 356.258C362.177 359.612 362.081 363.009 361.791 366.374C361.748 366.861 362.508 366.857 362.551 366.374Z" fill="#0077B6"/>
<path d="M362.134 317.971C363.682 330.479 364.226 343.107 363.744 355.701C363.609 359.258 363.389 362.813 363.092 366.36C363.05 366.847 363.81 366.846 363.852 366.36C364.903 353.802 364.946 341.161 363.966 328.596C363.69 325.047 363.331 321.505 362.892 317.971C362.836 317.492 362.074 317.486 362.134 317.971Z" fill="#0077B6"/>
<path d="M366.825 265.595L453.127 316.937L455.226 315.761C456.518 315.037 457.321 313.677 457.33 312.197L458.316 163.449C458.337 160.37 456.712 157.515 454.116 155.995L370.666 107.102C369.304 106.305 367.619 106.291 366.246 107.07L363.511 108.62L362.42 257.844C362.398 261.028 364.075 263.983 366.825 265.595Z" fill="#0077B6"/>
<path d="M364.318 267.188L449.35 317.008C451.765 318.425 454.808 316.694 454.827 313.894L455.81 165.04C455.831 161.961 454.206 159.106 451.55 157.549L368.119 108.665C364.998 106.837 361.069 109.069 361.041 112.684L359.916 259.435C359.892 262.621 361.57 265.578 364.318 267.188Z" fill="#022445"/>
<path d="M367.066 265.569L446.991 312.396C449.278 313.736 452.156 312.099 452.175 309.449L452.818 168.698C452.837 165.785 451.921 164.626 449.406 163.154L369.481 116.339C366.528 114.609 363.697 116.299 363.671 119.723L362.9 258.231C362.875 261.248 364.465 264.045 367.066 265.569Z" fill="#CAE9F8"/>
<path d="M385.71 145.363V153.988L445.591 188.716L445.589 180.192L385.71 145.363Z" fill="#0077B6"/>
<path d="M370.123 136.349V144.975L378.399 149.692L378.395 141.166L370.123 136.349Z" fill="white"/>
<path d="M385.71 161.623V170.248L445.591 204.977L445.589 196.452L385.71 161.623Z" fill="#0077B6"/>
<path d="M370.123 152.61V161.235L378.399 165.952L378.395 157.428L370.123 152.61Z" fill="white"/>
<path d="M385.71 177.883V186.508L445.591 221.237L445.589 212.713L385.71 177.883Z" fill="#0077B6"/>
<path d="M370.123 168.871V177.495L378.399 182.212L378.395 173.688L370.123 168.871Z" fill="white"/>
<path d="M385.71 194.543V203.169L445.591 237.897L445.589 229.373L385.71 194.543Z" fill="#0077B6"/>
<path d="M370.123 185.532V194.156L378.399 198.873L378.395 190.349L370.123 185.532Z" fill="white"/>
<path d="M385.71 211.204V219.83L445.591 254.558L445.589 246.034L385.71 211.204Z" fill="#0077B6"/>
<path d="M370.123 202.193V210.817L378.399 215.534L378.395 207.01L370.123 202.193Z" fill="white"/>
<path d="M385.71 227.865V236.49L445.591 271.219L445.589 262.695L385.71 227.865Z" fill="#0077B6"/>
<path d="M370.123 218.854V227.479L378.399 232.195L378.395 223.67L370.123 218.854Z" fill="white"/>
<path d="M385.71 244.525V253.151L445.591 287.879L445.589 279.355L385.71 244.525Z" fill="#0077B6"/>
<path d="M370.123 235.514V244.14L378.399 248.855L378.395 240.331L370.123 235.514Z" fill="white"/>
<path d="M391.208 138.887L426.582 159.319L426.565 152.506C426.561 151.359 425.95 150.298 424.957 149.722L417.717 145.526L417.745 140.721C417.751 139.788 417.258 138.924 416.455 138.452L403.707 130.97C402.676 130.365 401.378 131.109 401.38 132.306L401.386 136.112L393.033 131.318C392.211 130.846 391.188 131.442 391.19 132.388L391.208 138.887Z" fill="#022445"/>
<path d="M393.032 131.318L401.385 136.112L401.383 135.2L393.854 130.88C393.315 130.57 392.391 130.829 391.819 131.311C392.177 131.113 392.628 131.087 393.032 131.318Z" fill="#0077B6"/>
<path d="M427.389 152.068C427.385 150.921 426.774 149.86 425.781 149.284L418.541 145.088L418.569 140.282C418.575 139.349 418.082 138.486 417.279 138.014L404.532 130.532C403.825 130.116 402.689 130.419 402.048 131.036C402.514 130.714 403.15 130.643 403.709 130.97L416.457 138.452C417.262 138.924 417.753 139.79 417.747 140.721L417.719 145.526L424.959 149.722C425.952 150.298 426.563 151.357 426.567 152.506L426.584 159.319L427.407 158.88L427.389 152.068Z" fill="#0077B6"/>
<path d="M371.088 141.415L372.326 143.414C372.326 143.414 377.43 141.112 377.43 141.176C377.43 141.242 372.085 144.87 372.085 144.87L371.088 141.415Z" fill="#0077B6"/>
<path d="M371.088 157.712L372.326 159.712C372.326 159.712 377.43 157.409 377.43 157.473C377.43 157.537 372.085 161.167 372.085 161.167L371.088 157.712Z" fill="#0077B6"/>
<path d="M371.088 174.134L372.326 176.134C372.326 176.134 377.43 173.831 377.43 173.895C377.43 173.961 372.085 177.589 372.085 177.589L371.088 174.134Z" fill="#0077B6"/>
<path d="M371.088 190.595L372.326 192.595C372.326 192.595 377.43 190.293 377.43 190.357C377.43 190.422 372.085 194.051 372.085 194.051L371.088 190.595Z" fill="#0077B6"/>
<path d="M371.088 207.751L372.326 209.75C372.326 209.75 377.43 207.448 377.43 207.512C377.43 207.576 372.085 211.206 372.085 211.206L371.088 207.751Z" fill="#0077B6"/>
<path d="M371.088 223.917L372.326 225.916C372.326 225.916 377.43 223.614 377.43 223.678C377.43 223.744 372.085 227.372 372.085 227.372L371.088 223.917Z" fill="#0077B6"/>
<path d="M371.088 240.577L372.326 242.577C372.326 242.577 377.43 240.275 377.43 240.339C377.43 240.404 372.085 244.033 372.085 244.033L371.088 240.577Z" fill="#0077B6"/>
<path d="M168.006 148.812V35.1967C168.006 32.067 164.618 30.1108 161.906 31.6738L14.9879 116.873C12.0067 118.594 10.1691 121.775 10.1691 125.217V236.758C10.1691 240.8 14.5421 243.329 18.0462 241.313L163.016 157.44C166.104 155.662 168.006 152.373 168.006 148.812Z" fill="#90D1EF"/>
<path d="M10.1701 125.217C10.1701 121.775 12.0077 118.594 14.9889 116.873L161.907 31.6739C164.617 30.109 168.007 32.0651 168.007 35.1967V47.1327L10.1701 138.016V125.217Z" fill="#0077B6"/>
<path d="M165.55 31.4636C165.539 31.4597 165.527 31.454 165.516 31.4482L165.55 31.4636Z" fill="#444444"/>
<path d="M12.94 115.799L160.08 30.4777C160.923 29.9887 161.946 29.9266 162.841 30.3084L165.508 31.4463C164.404 30.9818 163.091 30.993 161.906 31.6758L14.9863 116.873C12.0052 118.594 10.1676 121.775 10.1676 125.217V236.758C10.1676 238.761 11.2415 240.391 12.75 241.283L9.85158 239.699C8.78325 239.116 8.1193 237.995 8.1193 236.778V124.143C8.12118 120.701 9.95879 117.52 12.94 115.799Z" fill="#022445"/>
<path d="M128.418 81.182V92.1869C128.418 92.975 127.996 93.7029 127.314 94.096L117.548 99.7141C117.11 99.9662 116.562 99.6502 116.562 99.1442L116.566 87.876C116.566 87.0484 117.005 86.2829 117.717 85.8634L127.02 80.3826C127.637 80.0177 128.418 80.4635 128.418 81.182Z" fill="white"/>
<path d="M143.928 72.2102V83.2151C143.928 84.0032 143.506 84.7311 142.824 85.1242L133.058 90.7424C132.62 90.9944 132.073 90.6784 132.073 90.1725L132.076 78.9042C132.076 78.0766 132.515 77.3111 133.227 76.8917L142.53 71.4109C143.147 71.0478 143.928 71.4936 143.928 72.2102Z" fill="white"/>
<path d="M158.985 63.4774V74.4823C158.985 75.2704 158.564 75.9983 157.881 76.3914L148.116 82.0096C147.677 82.2616 147.13 81.9456 147.13 81.4397L147.134 70.1714C147.134 69.3438 147.572 68.5783 148.285 68.1589L157.588 62.678C158.206 62.3131 158.985 62.7589 158.985 63.4774Z" fill="white"/>
<path d="M82.5613 107.627V118.632C82.5613 119.42 82.14 120.148 81.4572 120.541L71.6918 126.159C71.2535 126.411 70.7062 126.095 70.7062 125.589L70.71 114.321C70.71 113.493 71.1482 112.728 71.8611 112.308L81.1638 106.828C81.7826 106.465 82.5613 106.91 82.5613 107.627Z" fill="white"/>
<path d="M67.0398 116.584V127.589C67.0398 128.377 66.6185 129.105 65.9357 129.498L56.1703 135.116C55.7321 135.368 55.1847 135.052 55.1847 134.546L55.1885 123.278C55.1885 122.45 55.6267 121.685 56.3396 121.265L65.6423 115.784C66.2611 115.419 67.0398 115.865 67.0398 116.584Z" fill="#E95561"/>
<path d="M98.0747 98.6552V109.66C98.0747 110.448 97.6534 111.176 96.9707 111.569L87.2052 117.187C86.767 117.439 86.2197 117.123 86.2197 116.617L86.2234 105.349C86.2234 104.522 86.6617 103.756 87.3745 103.337L96.6773 97.8558C97.2942 97.4928 98.0747 97.9386 98.0747 98.6552Z" fill="white"/>
<path d="M113.132 90.9568V101.962C113.132 102.75 112.71 103.478 112.028 103.871L102.262 109.489C101.824 109.741 101.277 109.425 101.277 108.919L101.28 97.6508C101.28 96.8232 101.719 96.0577 102.431 95.6383L111.734 90.1574C112.353 89.7944 113.132 90.2402 113.132 90.9568Z" fill="#0077B6"/>
<path d="M128.418 99.5392V110.544C128.418 111.332 127.996 112.06 127.314 112.453L117.548 118.071C117.11 118.323 116.562 118.007 116.562 117.501L116.566 106.233C116.566 105.406 117.005 104.64 117.717 104.221L127.02 98.7398C127.637 98.3768 128.418 98.8226 128.418 99.5392Z" fill="white"/>
<path d="M143.928 90.5675V101.572C143.928 102.361 143.506 103.088 142.824 103.482L133.058 109.1C132.62 109.352 132.073 109.036 132.073 108.53L132.076 97.2615C132.076 96.4339 132.515 95.6684 133.227 95.249L142.53 89.7681C143.147 89.4051 143.928 89.8509 143.928 90.5675Z" fill="#0077B6"/>
<path d="M158.985 81.8346V92.8395C158.985 93.6276 158.564 94.3555 157.881 94.7486L148.116 100.367C147.677 100.619 147.13 100.303 147.13 99.7969L147.134 88.5286C147.134 87.701 147.572 86.9355 148.285 86.5161L157.588 81.0352C158.206 80.6722 158.985 81.118 158.985 81.8346Z" fill="white"/>
<path d="M82.5613 125.984V136.989C82.5613 137.777 82.14 138.505 81.4572 138.898L71.6918 144.516C71.2535 144.768 70.7062 144.452 70.7062 143.946L70.71 132.678C70.71 131.851 71.1482 131.085 71.8611 130.666L81.1638 125.185C81.7826 124.822 82.5613 125.268 82.5613 125.984Z" fill="white"/>
<path d="M67.0398 134.941V145.946C67.0398 146.734 66.6185 147.462 65.9357 147.855L56.1703 153.473C55.7321 153.725 55.1847 153.409 55.1847 152.903L55.1885 141.635C55.1885 140.807 55.6267 140.042 56.3396 139.622L65.6423 134.141C66.2611 133.776 67.0398 134.222 67.0398 134.941Z" fill="white"/>
<path d="M98.0747 117.012V128.017C98.0747 128.805 97.6534 129.533 96.9707 129.926L87.2052 135.545C86.767 135.797 86.2197 135.481 86.2197 134.975L86.2234 123.706C86.2234 122.879 86.6617 122.113 87.3745 121.694L96.6773 116.213C97.2942 115.85 98.0747 116.296 98.0747 117.012Z" fill="white"/>
<path d="M113.132 108.334V119.339C113.132 120.127 112.71 120.855 112.028 121.248L102.262 126.866C101.824 127.118 101.277 126.802 101.277 126.296L101.28 115.028C101.28 114.2 101.719 113.435 102.431 113.016L111.734 107.535C112.353 107.17 113.132 107.616 113.132 108.334Z" fill="white"/>
<path d="M128.418 117.94V128.945C128.418 129.733 127.996 130.461 127.314 130.854L117.548 136.472C117.11 136.724 116.562 136.408 116.562 135.902L116.566 124.634C116.566 123.806 117.005 123.041 117.717 122.621L127.02 117.14C127.637 116.777 128.418 117.223 128.418 117.94Z" fill="white"/>
<path d="M143.928 108.968V119.973C143.928 120.761 143.506 121.489 142.824 121.882L133.058 127.5C132.62 127.752 132.073 127.436 132.073 126.93L132.076 115.662C132.076 114.834 132.515 114.069 133.227 113.649L142.53 108.169C143.147 107.806 143.928 108.251 143.928 108.968Z" fill="white"/>
<path d="M158.985 100.235V111.24C158.985 112.028 158.564 112.756 157.881 113.149L148.116 118.767C147.677 119.019 147.13 118.703 147.13 118.197L147.134 106.929C147.134 106.102 147.572 105.336 148.285 104.917L157.588 99.4357C158.206 99.0727 158.985 99.5185 158.985 100.235Z" fill="white"/>
<path d="M82.5613 144.385V155.39C82.5613 156.178 82.14 156.906 81.4572 157.299L71.6918 162.917C71.2535 163.169 70.7062 162.853 70.7062 162.347L70.71 151.079C70.71 150.251 71.1482 149.486 71.8611 149.066L81.1638 143.585C81.7826 143.222 82.5613 143.668 82.5613 144.385Z" fill="white"/>
<path d="M67.0398 153.341V164.346C67.0398 165.134 66.6185 165.862 65.9357 166.255L56.1703 171.873C55.7321 172.125 55.1847 171.809 55.1847 171.304L55.1885 160.035C55.1885 159.208 55.6267 158.442 56.3396 158.023L65.6423 152.542C66.2611 152.177 67.0398 152.623 67.0398 153.341Z" fill="white"/>
<path d="M98.0747 135.413V146.418C98.0747 147.206 97.6534 147.934 96.9707 148.327L87.2052 153.945C86.767 154.197 86.2197 153.881 86.2197 153.375L86.2234 142.107C86.2234 141.279 86.6617 140.514 87.3745 140.094L96.6773 134.613C97.2942 134.25 98.0747 134.696 98.0747 135.413Z" fill="white"/>
<path d="M113.132 126.735V137.74C113.132 138.528 112.71 139.255 112.028 139.649L102.262 145.267C101.824 145.519 101.277 145.203 101.277 144.697L101.28 133.429C101.28 132.601 101.719 131.835 102.431 131.416L111.734 125.935C112.353 125.57 113.132 126.016 113.132 126.735Z" fill="#E95561"/>
<path d="M128.418 136.982V147.986C128.418 148.775 127.996 149.502 127.314 149.896L117.548 155.514C117.11 155.766 116.562 155.45 116.562 154.944L116.566 143.676C116.566 142.848 117.005 142.082 117.717 141.663L127.02 136.182C127.637 135.819 128.418 136.265 128.418 136.982Z" fill="white"/>
<path d="M143.928 128.01V139.015C143.928 139.803 143.506 140.531 142.824 140.924L133.058 146.542C132.62 146.794 132.073 146.478 132.073 145.972L132.076 134.704C132.076 133.876 132.515 133.111 133.227 132.691L142.53 127.21C143.147 126.847 143.928 127.293 143.928 128.01Z" fill="white"/>
<path d="M158.985 119.277V130.282C158.985 131.07 158.564 131.798 157.881 132.191L148.116 137.809C147.677 138.061 147.13 137.745 147.13 137.239L147.134 125.971C147.134 125.143 147.572 124.378 148.285 123.958L157.588 118.478C158.206 118.115 158.985 118.56 158.985 119.277Z" fill="white"/>
<path d="M82.5613 163.426V174.431C82.5613 175.22 82.14 175.947 81.4572 176.341L71.6918 181.959C71.2535 182.211 70.7062 181.895 70.7062 181.389L70.71 170.12C70.71 169.293 71.1482 168.527 71.8611 168.108L81.1638 162.627C81.7826 162.264 82.5613 162.71 82.5613 163.426Z" fill="#E95561"/>
<path d="M67.0398 172.383V183.388C67.0398 184.176 66.6185 184.904 65.9357 185.297L56.1703 190.915C55.7321 191.167 55.1847 190.851 55.1847 190.345L55.1885 179.077C55.1885 178.25 55.6267 177.484 56.3396 177.065L65.6423 171.584C66.2611 171.219 67.0398 171.665 67.0398 172.383Z" fill="white"/>
<path d="M98.0747 154.455V165.46C98.0747 166.248 97.6534 166.976 96.9707 167.369L87.2052 172.987C86.767 173.239 86.2197 172.923 86.2197 172.417L86.2234 161.149C86.2234 160.321 86.6617 159.556 87.3745 159.136L96.6773 153.655C97.2942 153.292 98.0747 153.738 98.0747 154.455Z" fill="white"/>
<path d="M113.132 145.776V156.781C113.132 157.569 112.71 158.297 112.028 158.69L102.262 164.309C101.824 164.561 101.277 164.245 101.277 163.739L101.28 152.47C101.28 151.643 101.719 150.877 102.431 150.458L111.734 144.977C112.353 144.612 113.132 145.058 113.132 145.776Z" fill="white"/>
<path d="M128.418 155.382V166.387C128.418 167.175 127.996 167.903 127.314 168.296L117.548 173.914C117.11 174.166 116.562 173.85 116.562 173.344L116.566 162.076C116.566 161.248 117.005 160.483 117.717 160.063L127.02 154.583C127.637 154.22 128.418 154.665 128.418 155.382Z" fill="white"/>
<path d="M143.928 146.41V157.415C143.928 158.203 143.506 158.931 142.824 159.324L133.058 164.942C132.62 165.195 132.073 164.879 132.073 164.373L132.076 153.104C132.076 152.277 132.515 151.511 133.227 151.092L142.53 145.611C143.147 145.248 143.928 145.694 143.928 146.41Z" fill="#E95561"/>
<path d="M158.985 137.677V148.682C158.985 149.47 158.564 150.198 157.881 150.591L148.116 156.21C147.677 156.462 147.13 156.146 147.13 155.64L147.134 144.371C147.134 143.544 147.572 142.778 148.285 142.359L157.588 136.878C158.206 136.515 158.985 136.961 158.985 137.677Z" fill="white"/>
<path d="M82.5613 181.827V192.832C82.5613 193.62 82.14 194.348 81.4572 194.741L71.6918 200.359C71.2535 200.611 70.7062 200.295 70.7062 199.789L70.71 188.521C70.71 187.693 71.1482 186.928 71.8611 186.508L81.1638 181.028C81.7826 180.665 82.5613 181.11 82.5613 181.827Z" fill="white"/>
<path d="M67.0398 190.784V201.789C67.0398 202.577 66.6185 203.305 65.9357 203.698L56.1703 209.316C55.7321 209.568 55.1847 209.252 55.1847 208.746L55.1885 197.478C55.1885 196.65 55.6267 195.885 56.3396 195.465L65.6423 189.984C66.2611 189.619 67.0398 190.065 67.0398 190.784Z" fill="white"/>
<path d="M98.0747 172.855V183.86C98.0747 184.648 97.6534 185.376 96.9707 185.769L87.2052 191.387C86.767 191.639 86.2197 191.323 86.2197 190.818L86.2234 179.549C86.2234 178.722 86.6617 177.956 87.3745 177.537L96.6773 172.056C97.2942 171.693 98.0747 172.139 98.0747 172.855Z" fill="white"/>
<path d="M113.132 164.177V175.182C113.132 175.97 112.71 176.698 112.028 177.091L102.262 182.709C101.824 182.961 101.277 182.645 101.277 182.139L101.28 170.871C101.28 170.043 101.719 169.278 102.431 168.858L111.734 163.378C112.353 163.013 113.132 163.458 113.132 164.177Z" fill="white"/>
<path d="M50.5074 125.166V129.846L14.6055 150.631L14.6074 146.006L50.5074 125.166Z" fill="white"/>
<path d="M50.5074 147.4V149.98L14.6055 170.766L14.6074 168.24L50.5074 147.4Z" fill="white"/>
<path d="M50.5074 153.349V155.931L14.6055 176.715L14.6074 174.189L50.5074 153.349Z" fill="white"/>
<path d="M50.5074 159.082V161.664L14.6055 182.45L14.6074 179.922L50.5074 159.082Z" fill="white"/>
<path d="M50.5074 165.033V167.613L14.6055 188.399L14.6074 185.873L50.5074 165.033Z" fill="white"/>
<path d="M50.5074 171.093V173.673L14.6055 194.459L14.6074 191.933L50.5074 171.093Z" fill="white"/>
<path d="M50.5074 177.352V179.935L14.6055 200.718L14.6074 198.192L50.5074 177.352Z" fill="white"/>
<path d="M50.5074 182.971V185.551L14.6055 206.337L14.6074 203.811L50.5074 182.971Z" fill="white"/>
<path d="M50.5074 188.766V191.348L14.6055 212.132L14.6074 209.606L50.5074 188.766Z" fill="white"/>
<path d="M50.5074 194.786V197.369L14.6055 218.152L14.6074 215.626L50.5074 194.786Z" fill="white"/>
<path d="M32.5565 210.841V213.424L14.6055 223.815L14.6074 221.289L32.5565 210.841Z" fill="white"/>
<path d="M30.4612 144.721V149.401L14.6055 158.561L14.6074 153.936L30.4612 144.721Z" fill="white"/>
<path d="M134.057 148.82C132.733 148.82 131.46 148.507 130.316 147.845C128.078 146.553 126.669 144.153 126.35 141.087C126.036 138.078 126.812 134.775 128.539 131.787C132.128 125.57 138.765 122.659 143.336 125.298C145.574 126.59 146.983 128.99 147.302 132.056C147.617 135.065 146.84 138.368 145.113 141.356C142.424 146.017 138.019 148.82 134.057 148.82ZM139.568 125.251C135.944 125.251 131.862 127.891 129.344 132.255C127.717 135.074 126.982 138.178 127.275 140.993C127.563 143.755 128.808 145.901 130.781 147.04C131.787 147.622 132.91 147.896 134.078 147.896C137.703 147.896 141.784 145.255 144.302 140.892C145.929 138.072 146.665 134.969 146.371 132.153C146.084 129.392 144.839 127.246 142.866 126.106C141.861 125.525 140.738 125.251 139.568 125.251Z" fill="#E95561"/>
<path d="M135.235 111.554C133.911 111.554 132.638 111.242 131.494 110.58C126.924 107.941 126.126 100.737 129.715 94.521C133.304 88.3048 139.941 85.3932 144.512 88.032C146.75 89.3242 148.159 91.7242 148.478 94.79C148.793 97.7994 148.016 101.102 146.289 104.091C143.601 108.752 139.196 111.554 135.235 111.554ZM130.524 94.9875C127.193 100.758 127.836 107.39 131.961 109.773C132.967 110.354 134.09 110.629 135.258 110.629C138.882 110.629 142.964 107.988 145.482 103.624C147.109 100.805 147.845 97.7016 147.551 94.8859C147.263 92.1248 146.018 89.9787 144.045 88.8389C139.921 86.4596 133.855 89.217 130.524 94.9875Z" fill="#E95561"/>
<path d="M73.868 183.702C72.5439 183.702 71.2705 183.39 70.1269 182.728C67.8887 181.436 66.48 179.036 66.1602 175.97C65.8461 172.961 66.6229 169.658 68.3495 166.669C71.9382 160.453 78.5758 157.541 83.1463 160.18C85.3845 161.472 86.7933 163.872 87.113 166.938C87.4271 169.947 86.6503 173.25 84.9237 176.239C82.2322 180.9 77.8291 183.702 73.868 183.702ZM79.3789 160.131C75.7545 160.131 71.673 162.772 69.1545 167.136C67.5276 169.955 66.7922 173.058 67.0856 175.874C67.3734 178.635 68.6185 180.781 70.5915 181.921C71.5978 182.502 72.7207 182.777 73.8887 182.777C77.5131 182.777 81.5946 180.136 84.1131 175.772C85.74 172.953 86.4754 169.85 86.182 167.034C85.8942 164.273 84.6491 162.127 82.6761 160.987C81.6717 160.408 80.5488 160.131 79.3789 160.131Z" fill="#E95561"/>
<path d="M56.5255 199.31L60.3719 201.055C60.3719 201.055 65.6346 192.518 65.7004 192.616C65.7662 192.713 61.4797 203.466 61.4797 203.466L56.5255 199.31Z" fill="#0077B6"/>
<path d="M102.499 154.797L106.346 156.543C106.346 156.543 111.608 148.005 111.674 148.103C111.74 148.201 107.453 158.954 107.453 158.954L102.499 154.797Z" fill="#0077B6"/>
<path d="M102.616 173.198L106.463 174.943C106.463 174.943 111.725 166.406 111.791 166.504C111.857 166.601 107.571 177.354 107.571 177.354L102.616 173.198Z" fill="#0077B6"/>
<path d="M148.472 71.1964L152.318 72.9419C152.318 72.9419 157.581 64.4046 157.647 64.5025C157.713 64.6003 153.426 75.3532 153.426 75.3532L148.472 71.1964Z" fill="#0077B6"/>
<path d="M148.472 109.656L152.318 111.402C152.318 111.402 157.581 102.865 157.647 102.962C157.713 103.06 153.426 113.813 153.426 113.813L148.472 109.656Z" fill="#0077B6"/>
<path d="M102.499 116.924L106.346 118.669C106.346 118.669 111.608 110.132 111.674 110.23C111.74 110.328 107.453 121.081 107.453 121.081L102.499 116.924Z" fill="#0077B6"/>
<path d="M72.048 134.286L75.8944 136.032C75.8944 136.032 81.157 127.494 81.2229 127.592C81.2887 127.69 77.0022 138.443 77.0022 138.443L72.048 134.286Z" fill="#0077B6"/>
</g>
<defs>
<clipPath id="clip0_113_1374">
<rect width="467.019" height="446.893" fill="white"/>
</clipPath>
</defs>
</svg>
